<svg id="Grupo_1071478" data-name="Grupo 1071478" xmlns="http://www.w3.org/2000/svg" xmlns:xlink="http://www.w3.org/1999/xlink" width="85" height="75.726" viewBox="0 0 85 75.726">
  <defs>
    <clipPath id="clip-path">
      <rect id="Rectángulo_377608" data-name="Rectángulo 377608" width="85" height="75.726" fill="none"/>
    </clipPath>
  </defs>
  <g id="Grupo_1071477" data-name="Grupo 1071477" transform="translate(0 0)" clip-path="url(#clip-path)">
    <path id="Trazado_608520" data-name="Trazado 608520" d="M1.823,70.609s3.091,5.213-.929,8.745l42.9,3.507.98-9.356Z" transform="translate(-0.11 -8.71)" fill="#e5e5e5"/>
    <path id="Trazado_608521" data-name="Trazado 608521" d="M44.422,79.318c-.535-.5-6.763-6.385-41.756-7.079a2.855,2.855,0,0,0-.772-1.666l42.458,2.434Z" transform="translate(-0.234 -8.705)" fill="#cecdcc"/>
    <path id="Trazado_608522" data-name="Trazado 608522" d="M50.123,67.654,77.476,38.362l.777,9.283L50.372,79.757Z" transform="translate(-6.183 -4.732)" fill="#ffc23a"/>
    <path id="Trazado_608523" data-name="Trazado 608523" d="M1.209,63.366,44.09,66.973,71.442,37.682,33.059,32.846Z" transform="translate(-0.149 -4.052)" fill="#e8a827"/>
    <path id="Trazado_608524" data-name="Trazado 608524" d="M43.781,76.889c.032-.365.064-.775.1-1.22.175-2.165-1.415-2.121-1.415-2.121L.856,70.149l.2-2.488L43.1,71.095a2.642,2.642,0,0,1,1.864.855l0,0c.035.039.066.08.1.119a.033.033,0,0,1,.011.014.7.7,0,0,1,.053.068c.721.959,3.467,5.27-.544,10.722a2.534,2.534,0,0,1-2.541,1.184L0,80.626l.2-2.488,41.611,3.4s1.561.3,1.739-1.861c.035-.445.07-.856.1-1.22l.127-1.567" transform="translate(0 -8.346)" fill="#ffc23a"/>
    <path id="Trazado_608525" data-name="Trazado 608525" d="M16.572,55.087s3.089,5.214-.93,8.745l42.9,3.507.977-9.355Z" transform="translate(-1.929 -6.795)" fill="#e5e5e5"/>
    <path id="Trazado_608526" data-name="Trazado 608526" d="M59.169,63.8c-.532-.5-6.763-6.385-41.755-7.08a2.859,2.859,0,0,0-.773-1.665L59.1,57.485Z" transform="translate(-2.053 -6.791)" fill="#cecdcc"/>
    <path id="Trazado_608527" data-name="Trazado 608527" d="M64.873,52.132,92.223,22.84,93,32.123,65.118,64.234Z" transform="translate(-8.002 -2.817)" fill="#22b1b6"/>
    <path id="Trazado_608528" data-name="Trazado 608528" d="M15.955,47.844l42.884,3.608L86.19,22.159,47.806,17.325Z" transform="translate(-1.968 -2.137)" fill="#119998"/>
    <path id="Trazado_608529" data-name="Trazado 608529" d="M58.53,61.366c.032-.365.062-.775.1-1.219.178-2.165-1.412-2.121-1.412-2.121L15.6,54.625l.2-2.487,42.042,3.435a2.635,2.635,0,0,1,1.864.854l0,0c.032.039.066.08.1.119a.086.086,0,0,1,.011.013c.018.022.035.045.051.068.723.96,3.47,5.27-.543,10.722a2.541,2.541,0,0,1-2.543,1.185L14.749,65.1l.2-2.488,41.612,3.4s1.561.3,1.738-1.862c.037-.445.07-.855.1-1.219l.127-1.567" transform="translate(-1.819 -6.431)" fill="#22b1b6"/>
    <path id="Trazado_608530" data-name="Trazado 608530" d="M8.743,36.293s2.879,5.335-1.282,8.7L50.185,50.23l1.357-9.307Z" transform="translate(-0.92 -4.477)" fill="#e5e5e5"/>
    <path id="Trazado_608531" data-name="Trazado 608531" d="M51.006,46.712c-.513-.524-6.5-6.653-41.435-8.762a2.867,2.867,0,0,0-.7-1.695L51.189,40.4Z" transform="translate(-1.094 -4.472)" fill="#cecdcc"/>
    <path id="Trazado_608532" data-name="Trazado 608532" d="M56.974,35.444,85.487,7.281l.4,9.307L56.73,47.547Z" transform="translate(-6.998 -0.898)" fill="#63a343"/>
    <path id="Trazado_608533" data-name="Trazado 608533" d="M8.3,29.207,51,34.546,79.512,6.383,41.356,0Z" transform="translate(-1.024 0)" fill="#5b9140"/>
    <path id="Trazado_608534" data-name="Trazado 608534" d="M50.389,44.265c.046-.364.1-.772.15-1.215.264-2.157-1.326-2.177-1.326-2.177L7.77,35.794l.3-2.477,41.869,5.131a2.637,2.637,0,0,1,1.827.929l0,0c.033.041.062.082.092.123a.044.044,0,0,1,.01.015.474.474,0,0,1,.048.07c.686.989,3.253,5.406-.975,10.692a2.539,2.539,0,0,1-2.588,1.082L6.492,46.227l.3-2.477,41.442,5.079s1.547.367,1.81-1.79c.055-.443.106-.851.151-1.214,0,0,.076-.624.189-1.56" transform="translate(-0.801 -4.11)" fill="#63a343"/>
    <path id="Trazado_608535" data-name="Trazado 608535" d="M64.276,67.744c4.012-5.452,1.267-9.762.543-10.722-.016-.024-.033-.046-.051-.069a.067.067,0,0,0-.01-.012c-.031-.039-.064-.081-.1-.119l0,0a2.638,2.638,0,0,0-1.863-.855l-7.954-.65v2.5l7.321.6s1.59-.044,1.413,2.121c-.037.444-.068.855-.1,1.219-.076.941-.126,1.567-.126,1.567-.032.365-.065.774-.1,1.219-.176,2.165-1.737,1.862-1.737,1.862l-6.67-.545v2.5l6.894.564a2.54,2.54,0,0,0,2.542-1.185" transform="translate(-6.765 -6.823)" fill="#0f8481"/>
    <path id="Trazado_608536" data-name="Trazado 608536" d="M49.527,83.266c4.012-5.452,1.267-9.762.543-10.723-.016-.023-.033-.046-.051-.068a.046.046,0,0,0-.01-.012c-.031-.039-.064-.081-.1-.119l0,0a2.635,2.635,0,0,0-1.863-.855l-7.954-.65v2.5l7.321.6s1.59-.045,1.413,2.121c-.037.444-.068.855-.1,1.219-.075.941-.126,1.567-.126,1.567-.032.365-.065.774-.1,1.219-.176,2.165-1.737,1.862-1.737,1.862l-6.67-.545v2.5l6.894.563a2.537,2.537,0,0,0,2.542-1.184" transform="translate(-4.945 -8.738)" fill="#f9a431"/>
    <path id="Trazado_608537" data-name="Trazado 608537" d="M55.107,50.774c4.351-5.291,1.68-9.705.969-10.693-.016-.024-.033-.048-.05-.071A.086.086,0,0,0,56.015,40c-.03-.04-.063-.083-.1-.123l0,0a2.757,2.757,0,0,0-1.892-.927L40.362,37.264l-.294,2.479L53.277,41.37s1.645.018,1.378,2.175c-.054.443-.1.851-.149,1.215-.114.936-.189,1.561-.189,1.561-.047.363-.1.771-.152,1.214C53.9,49.693,52.3,49.328,52.3,49.328L39.527,47.752l-.221,2.488,13.13,1.617a2.652,2.652,0,0,0,2.67-1.084" transform="translate(-4.848 -4.597)" fill="#4f823c"/>
    <path id="Trazado_608538" data-name="Trazado 608538" d="M93.063,32.971,65.362,64.88l.292-4.673L92.789,29.715Z" transform="translate(-8.062 -3.665)" fill="#0f8481"/>
    <path id="Trazado_608539" data-name="Trazado 608539" d="M85.887,17.467,56.73,48.442l1.457-5.192L85.76,14.539Z" transform="translate(-6.998 -1.793)" fill="#4f823c"/>
    <path id="Trazado_608540" data-name="Trazado 608540" d="M50.4,83.661,61.612,70.828l-2.95-.219-7.9,8.713Z" transform="translate(-6.217 -8.71)" fill="#f9a431"/>
  </g>
</svg>
