<svg xmlns="http://www.w3.org/2000/svg" xmlns:xlink="http://www.w3.org/1999/xlink" width="62" height="62" viewBox="0 0 62 62">
  <defs>
    <clipPath id="clip-path">
      <rect id="Rect치ngulo_379356" data-name="Rect치ngulo 379356" width="39.312" height="36.501" fill="#12263f"/>
    </clipPath>
  </defs>
  <g id="Grupo_1080558" data-name="Grupo 1080558" transform="translate(-769 -3115)">
    <g id="Grupo_1080542" data-name="Grupo 1080542" transform="translate(248 -9791)">
      <g id="Grupo_1014855" data-name="Grupo 1014855" transform="translate(136.001 10848)">
        <path id="Uni칩n_12" data-name="Uni칩n 12" d="M31,0A31,31,0,1,1,0,31,31,31,0,0,1,31,0Z" transform="translate(384.999 2058)" fill="#cadeb4"/>
      </g>
    </g>
    <g id="Grupo_1080554" data-name="Grupo 1080554" transform="translate(780 3126.305)">
      <g id="Grupo_1080553" data-name="Grupo 1080553" clip-path="url(#clip-path)">
        <path id="Trazado_831906" data-name="Trazado 831906" d="M36.646,12.436c0,.108,0,.171,0,.233-.008.568,0,1.137-.029,1.7a1.69,1.69,0,0,1-.753,1.312.279.279,0,0,0-.127.258q.006,7.04.007,14.08a.8.8,0,0,1,0,.122c-.019.121.039.146.148.146.284,0,.57-.007.852.015a1.784,1.784,0,0,1,1.685,1.615,2.431,2.431,0,0,1,.035.4c0,.737.008,1.474,0,2.21a2.111,2.111,0,0,1-.372,1.212,1.711,1.711,0,0,1-1.406.746q-.417.015-.835.015-16.262,0-32.525,0A5.33,5.33,0,0,1,2.3,36.437a1.705,1.705,0,0,1-1.374-1.4,2.7,2.7,0,0,1-.071-.6c-.008-.731-.024-1.463,0-2.193a1.857,1.857,0,0,1,1.025-1.75,2.673,2.673,0,0,1,.8-.192,4.345,4.345,0,0,1,.73-.011c.125,0,.161-.032.159-.155-.005-.464,0-.928,0-1.392q0-6.37,0-12.74a.387.387,0,0,0-.176-.355,1.894,1.894,0,0,1-.738-1.6c0-.464,0-.928,0-1.392v-.194c-.252,0-.488,0-.723,0a1.849,1.849,0,0,1-1.317-.451,1.68,1.68,0,0,1-.621-1.257C0,9.737,0,8.716,0,7.695A1.819,1.819,0,0,1,1.241,6.033q1.286-.424,2.57-.854c1.394-.468,2.786-.941,4.18-1.408.686-.23,1.376-.448,2.063-.678,1.4-.469,2.8-.943,4.2-1.413.68-.228,1.363-.449,2.045-.674Q17.7.544,19.1.078a1.325,1.325,0,0,1,.868-.009c.873.29,1.751.567,2.626.853q1.709.558,3.415,1.122c.945.313,1.889.63,2.834.944.709.235,1.419.467,2.129.7l2.968.98q2.045.677,4.089,1.354A1.8,1.8,0,0,1,39.27,7.336a1.987,1.987,0,0,1,.041.5c0,.986,0,1.972,0,2.959a1.777,1.777,0,0,1-1.5,1.634,10.485,10.485,0,0,1-1.16.007m.894-1.749V10.48q0-1.218,0-2.436a1.647,1.647,0,0,0-.008-.26.161.161,0,0,0-.081-.112q-.945-.321-1.893-.632c-.946-.311-1.893-.617-2.838-.929-.764-.252-1.525-.512-2.29-.763-.693-.228-1.389-.446-2.081-.676-.973-.322-1.942-.652-2.915-.974-.945-.313-1.892-.62-2.837-.932s-1.877-.626-2.819-.928a.771.771,0,0,0-.4-.012c-.268.068-.528.171-.791.259q-1.465.492-2.93.984c-1.082.361-2.165.717-3.247,1.079-1,.334-2,.675-2.995,1.009-1.158.388-2.318.771-3.477,1.158q-1.351.451-2.7.9c-.428.144-.853.3-1.286.425-.133.04-.172.091-.172.225,0,.9,0,1.8,0,2.7a.788.788,0,0,0,.019.12ZM2.679,32.055c0,.761,0,1.492,0,2.222,0,.148-.043.353.035.429s.283.035.432.035l32.4,0c.319,0,.638,0,.958,0,.079,0,.13,0,.13-.109,0-.829,0-1.659,0-2.488,0-.032-.06-.077-.1-.092a.421.421,0,0,0-.138,0H2.679m16.075-19.59c0,.09,0,.153,0,.216,0,.528,0,1.056-.008,1.583a1.678,1.678,0,0,1-.74,1.4.326.326,0,0,0-.153.3q.007,6.9.007,13.8v.5a.514.514,0,0,0,.084.017c1.126,0,2.252,0,3.377,0,.137,0,.127-.071.127-.166q0-3.759,0-7.517c0-2.227.012-4.454.01-6.681a.354.354,0,0,0-.131-.234,1.676,1.676,0,0,1-.731-1.23c-.027-.532-.028-1.066-.035-1.6-.005-.4,0-.4-.388-.4H18.754m-8.91.006c0,.069-.009.12-.009.17,0,.482,0,.963-.006,1.445a1.836,1.836,0,0,1-.773,1.59.27.27,0,0,0-.125.257q0,7.083,0,14.166v.176h3.574c0-.061.008-.106.008-.152q0-.661,0-1.323,0-6.457.005-12.913a.218.218,0,0,0-.076-.156,2.091,2.091,0,0,1-.865-1.806c0-.423,0-.847,0-1.271V12.47Zm17.894-.006v.187c0,.452.01.905,0,1.357a2.049,2.049,0,0,1-.829,1.7.327.327,0,0,0-.111.226c-.01.336,0,.673,0,1.009q0,6.586,0,13.172c0,.139.035.174.175.174,1.044,0,2.089,0,3.133.006h.274c0-.066.007-.106.007-.146q0-7.126,0-14.251a.228.228,0,0,0-.111-.211,1.716,1.716,0,0,1-.764-1.36c-.025-.562-.024-1.125-.022-1.687,0-.148-.046-.191-.189-.181-.167.012-.336,0-.5,0H27.738m6.231,17.819v-.291q0-6.342,0-12.685c0-.389,0-.777,0-1.166,0-.084,0-.142-.117-.14-.389,0-.777,0-1.166,0-.156,0-.376-.049-.45.032s-.038.3-.038.46c0,1.873,0,3.747,0,5.62q-.006,4.028-.02,8.056c0,.1.041.119.125.119.545,0,1.09,0,1.671,0m-26.857.005v-14.3H5.634c-.335,0-.292-.046-.292.3q0,6.15,0,12.3,0,.774,0,1.548c0,.078-.011.152.107.152.55,0,1.1,0,1.659,0m7.184,0h1.482c.367,0,.3.019.3-.309,0-.064,0-.128,0-.191q0-6.779,0-13.558v-.214H14.3ZM25.027,16H23.643c-.4,0-.4,0-.4.4q0,6.857,0,13.713c0,.131.035.171.165.17.481-.006.963-.008,1.445,0,.155,0,.18-.048.18-.187q0-6.848,0-13.7V16M13.415,14.235h3.6c0-.528-.008-1.038,0-1.547,0-.171-.033-.229-.216-.228-1.084.009-2.169,0-3.253.005-.039,0-.078.005-.13.009Zm8.9,0H25.9c0-.531-.01-1.046.006-1.561.005-.173-.04-.214-.206-.214-1.09.005-2.18,0-3.27,0a1.148,1.148,0,0,0-.121.013Zm12.528-1.758H31.276c0,.571,0,1.127,0,1.683,0,.105.064.1.141.1q1.671-.006,3.343-.008a.6.6,0,0,0,.082-.013ZM4.477,12.465v1.769a.285.285,0,0,0,.06.017c1.124,0,2.249,0,3.373,0,.128,0,.121-.069.121-.155,0-.487,0-.973.005-1.46,0-.133-.031-.179-.173-.178-1,.007-2.005,0-3.008.005H4.477" transform="translate(0 0)" fill="#12263f"/>
      </g>
    </g>
  </g>
</svg>
