<svg xmlns="http://www.w3.org/2000/svg" xmlns:xlink="http://www.w3.org/1999/xlink" width="85" height="85" viewBox="0 0 85 85">
  <defs>
    <clipPath id="clip-path">
      <rect id="Rect치ngulo_380166" data-name="Rect치ngulo 380166" width="53.414" height="53.166" fill="#12263f"/>
    </clipPath>
  </defs>
  <g id="Grupo_1081243" data-name="Grupo 1081243" transform="translate(-285 -5593)">
    <g id="Grupo_1080517" data-name="Grupo 1080517" transform="translate(-0.332 -858)">
      <circle id="Elipse_4872" data-name="Elipse 4872" cx="42.5" cy="42.5" r="42.5" transform="translate(285.332 6451)" fill="#eaf2e1"/>
      <g id="Grupo_156261" data-name="Grupo 156261" transform="translate(302.332 6467)">
        <rect id="Rect치ngulo_47312" data-name="Rect치ngulo 47312" width="7.049" height="3.525" transform="translate(4.424 16.762)" fill="#eaf2e1"/>
        <path id="Trazado_198297" data-name="Trazado 198297" d="M10.008,59.838h7.045l-3.525,4.405Z" transform="translate(-5.582 -33.378)" fill="#eaf2e1"/>
      </g>
    </g>
    <g id="Grupo_1081184" data-name="Grupo 1081184" transform="translate(301 5609)">
      <g id="Grupo_1081183" data-name="Grupo 1081183" clip-path="url(#clip-path)">
        <path id="Trazado_833019" data-name="Trazado 833019" d="M101.376,138.82c.153.078.278.147.409.206a11.787,11.787,0,0,1,6.46,7.047,11.665,11.665,0,0,1,.652,3.81c.015,1.361.01,2.722,0,4.083a1.669,1.669,0,0,1-.127.673,1.04,1.04,0,0,1-1.038.6c-1.206-.007-2.412,0-3.619,0q-8.852,0-17.7,0a1.283,1.283,0,0,1-.813-.157,1.148,1.148,0,0,1-.511-.977c.009-1.636-.078-3.279.048-4.906a11.691,11.691,0,0,1,6.023-9.639c.39-.23.811-.408,1.217-.612.069-.034.134-.076.223-.126a8.218,8.218,0,0,1-3.852-7.44,7.893,7.893,0,0,1,2.909-5.85,8.255,8.255,0,1,1,9.722,13.29m-4.405,14.351v-.007q4.8,0,9.6,0c.2,0,.239-.063.237-.246-.009-1.1-.006-2.2-.008-3.3a8.924,8.924,0,0,0-1.218-4.511,9.49,9.49,0,0,0-7.369-4.947,9.73,9.73,0,0,0-11.025,9.509c-.021,1.107-.013,2.214-.024,3.322,0,.147.048.18.189.18q4.81-.006,9.619,0m6.208-21.361a6.148,6.148,0,0,0-5.91-6.189,6.2,6.2,0,1,0,5.91,6.189" transform="translate(-70.282 -102.077)" fill="#12263f"/>
        <path id="Trazado_833020" data-name="Trazado 833020" d="M7.558,64.8a8.182,8.182,0,0,1-3.913-7.025,7.841,7.841,0,0,1,2.506-5.9,8.169,8.169,0,0,1,11.949.47,7.89,7.89,0,0,1,1.967,6.639,8.209,8.209,0,0,1-3.815,5.817c.093.042.174.077.254.115.39.187.785.364,1.167.567a.977.977,0,0,1,.562.929.99.99,0,0,1-1.425.916c-.471-.217-.932-.462-1.416-.647a9.749,9.749,0,0,0-4.487-.58A9.471,9.471,0,0,0,5.993,68.01,9.622,9.622,0,0,0,2.424,73.3a10.627,10.627,0,0,0-.333,2.724c-.007.956,0,1.911,0,2.867v.252c.068.005.123.013.177.013l12.353-.01q.336,0,.671.018a1.058,1.058,0,0,1,1.03.976,1.084,1.084,0,0,1-.907,1.06,2.417,2.417,0,0,1-.431.036q-6.87,0-13.74,0A1.119,1.119,0,0,1,.009,80c0-1.513-.025-3.027.01-4.539a11.142,11.142,0,0,1,.327-2.313,11.882,11.882,0,0,1,7.109-8.3c.026-.011.051-.025.1-.051M5.719,57.791a6.195,6.195,0,1,0,6.062-6.218,6.156,6.156,0,0,0-6.062,6.218" transform="translate(0 -40.895)" fill="#12263f"/>
        <path id="Trazado_833021" data-name="Trazado 833021" d="M195.332,64.812a8.189,8.189,0,0,1-3.9-6.772,7.855,7.855,0,0,1,2.268-5.934,8.171,8.171,0,0,1,11.81-.145,7.9,7.9,0,0,1,2.366,6.779,8.173,8.173,0,0,1-3.858,6.07c.152.062.284.11.412.169a11.833,11.833,0,0,1,6.28,6.508,11.656,11.656,0,0,1,.864,4.4q0,2.052,0,4.1a1.145,1.145,0,0,1-1.264,1.263q-6.8,0-13.609-.007a2.251,2.251,0,0,1-.839-.151.991.991,0,0,1-.583-1.1,1.088,1.088,0,0,1,.977-.818c.166-.011.332-.016.5-.016H209.5V78.9c0-1.042.033-2.086-.006-3.127a9.58,9.58,0,0,0-5.8-8.865,9.419,9.419,0,0,0-5.54-.735,9.661,9.661,0,0,0-3.105,1.026c-.089.047-.18.092-.272.133a1.011,1.011,0,0,1-.98-1.763c.444-.265.927-.465,1.393-.693.039-.019.079-.034.146-.062m4.234-.885a6.115,6.115,0,0,0,6.306-6.47,6.2,6.2,0,0,0-12.4.269,6.072,6.072,0,0,0,6.089,6.2" transform="translate(-158.163 -40.906)" fill="#12263f"/>
        <path id="Trazado_833022" data-name="Trazado 833022" d="M114.146,16.494a8.248,8.248,0,1,1,8.5-7.812,8.261,8.261,0,0,1-8.5,7.812m6.43-8.229a6.194,6.194,0,1,0-6.2,6.173,6.193,6.193,0,0,0,6.2-6.173" transform="translate(-87.68 0)" fill="#12263f"/>
      </g>
    </g>
  </g>
</svg>
