<svg xmlns="http://www.w3.org/2000/svg" xmlns:xlink="http://www.w3.org/1999/xlink" width="85" height="85" viewBox="0 0 85 85">
  <defs>
    <clipPath id="clip-path">
      <rect id="Rect치ngulo_380167" data-name="Rect치ngulo 380167" width="54.113" height="51.936" fill="#12263f"/>
    </clipPath>
  </defs>
  <g id="Grupo_1081244" data-name="Grupo 1081244" transform="translate(-285 -5711)">
    <g id="Grupo_1080518" data-name="Grupo 1080518" transform="translate(-0.332 -740)">
      <circle id="Elipse_4872" data-name="Elipse 4872" cx="42.5" cy="42.5" r="42.5" transform="translate(285.332 6451)" fill="#eaf2e1"/>
      <g id="Grupo_156261" data-name="Grupo 156261" transform="translate(302.332 6467)">
        <rect id="Rect치ngulo_47312" data-name="Rect치ngulo 47312" width="7.049" height="3.525" transform="translate(4.424 16.762)" fill="#eaf2e1"/>
        <path id="Trazado_198297" data-name="Trazado 198297" d="M10.008,59.838h7.045l-3.525,4.405Z" transform="translate(-5.582 -33.378)" fill="#eaf2e1"/>
      </g>
    </g>
    <g id="Grupo_1081186" data-name="Grupo 1081186" transform="translate(300 5728)">
      <g id="Grupo_1081185" data-name="Grupo 1081185" clip-path="url(#clip-path)">
        <path id="Trazado_833023" data-name="Trazado 833023" d="M61.106,20.362c-.106-.005-.172-.011-.239-.011l-7.08,0c-.842,0-1.074-.229-1.075-1.079q0-2.121,0-4.241c0-.748,0-1.5.023-2.245a3.768,3.768,0,0,1,1.285-2.685,4.687,4.687,0,0,1,2.628-1.223c.079-.012.157-.033.241-.051-.167-.292-.34-.558-.478-.84a5.651,5.651,0,0,1-.567-3.457,3.913,3.913,0,0,1,1.926-2.78A4.033,4.033,0,0,1,63.611,3.7a4.382,4.382,0,0,1,.2,2.689,6.475,6.475,0,0,1-.948,2.331,1.055,1.055,0,0,0-.054.11c.125.024.233.041.339.066.345.083.688.174,1.034.25a.409.409,0,0,0,.278-.013,5.279,5.279,0,0,1,2.674-.9c-.049-.086-.08-.151-.121-.211a6.767,6.767,0,0,1-1.139-3.577A4.4,4.4,0,0,1,69.042.146a4.321,4.321,0,0,1,4.7,1.728,4.482,4.482,0,0,1,.717,3.218,6.665,6.665,0,0,1-1.229,3.131c.167.021.312.036.455.057a5.21,5.21,0,0,1,2.165.816.35.35,0,0,0,.224.075c.485-.1.967-.221,1.476-.34l-.2-.332a5.9,5.9,0,0,1-.871-3.6,4.046,4.046,0,0,1,4.744-3.673,3.93,3.93,0,0,1,3.014,2.427,4.735,4.735,0,0,1,.135,3.129,5.511,5.511,0,0,1-.937,2.038c.367.082.717.137,1.051.24a4.212,4.212,0,0,1,3.074,3.225,3.831,3.831,0,0,1,.063.857c0,2.079,0,4.158,0,6.237,0,.712-.246.969-.968.971q-3.574.005-7.148,0h-.278c.086.3.156.566.242.829a5.509,5.509,0,0,1,.166,1.684,7.751,7.751,0,0,1-1.184,3.966,13.9,13.9,0,0,1-3.429,3.831,28.279,28.279,0,0,1-4.355,2.811.971.971,0,0,1-.991,0,26.658,26.658,0,0,1-4.914-3.273,12.862,12.862,0,0,1-3.349-4.266,7.254,7.254,0,0,1-.642-4.346c.068-.406.209-.8.325-1.232m17.073,2.316c-.018-.185-.034-.419-.065-.651a4.5,4.5,0,0,0-2.05-3.321,3.094,3.094,0,0,0-3.883.156,12.32,12.32,0,0,0-1.205,1.29c-.609.691-1,.694-1.6,0-.308-.353-.605-.717-.934-1.05a3.082,3.082,0,0,0-3.724-.635,4.5,4.5,0,0,0-2.523,3.97,5.967,5.967,0,0,0,.679,3.083,11.313,11.313,0,0,0,2.687,3.391,23.416,23.416,0,0,0,4.416,3.039.425.425,0,0,0,.463-.033,24.927,24.927,0,0,0,3.8-2.535,12.376,12.376,0,0,0,3.156-3.7,6.847,6.847,0,0,0,.783-3m-1.854-5.561c.006-.07.011-.1.011-.129,0-1.36,0-2.721,0-4.081a3.08,3.08,0,0,0-.519-1.778,3.346,3.346,0,0,0-2.9-1.413c-1.8-.028-3.6-.012-5.4,0a4,4,0,0,0-1.679.33A2.976,2.976,0,0,0,64.009,12.9C63.992,14.236,64,15.574,64,16.912c0,.057.009.114.015.2.189-.065.357-.131.529-.181a7.983,7.983,0,0,1,.9-.233c.193-.032.243-.095.241-.286-.011-1.013-.009-2.026,0-3.039a.8.8,0,0,1,.508-.758.755.755,0,0,1,.971.412,1.146,1.146,0,0,1,.1.479q.014,1.508,0,3.016a.231.231,0,0,0,.192.269,5.056,5.056,0,0,1,2.307,1.542c.132.152.269.3.4.445a.32.32,0,0,0,.055-.035c.041-.045.08-.091.119-.137a5.436,5.436,0,0,1,2.512-1.792.283.283,0,0,0,.233-.332c-.01-1.021-.007-2.041,0-3.062a.859.859,0,0,1,.55-.808.753.753,0,0,1,.952.4,1.1,1.1,0,0,1,.081.438c.007,1,.006,2,0,2.994,0,.142.032.213.19.245.331.067.657.16.983.252.157.044.309.11.49.176M57.662,18.831h.229c1.15,0,2.3-.038,3.448.012a1.024,1.024,0,0,0,1.055-.487A.779.779,0,0,0,62.54,18c.009-1.777,0-3.553.009-5.33a3.684,3.684,0,0,1,.3-1.544c.1-.224.2-.45.306-.688-.228-.018-.437-.048-.646-.048q-2.734,0-5.468.007a2.73,2.73,0,0,0-1.316.284A2.615,2.615,0,0,0,54.2,13.106q0,2.733,0,5.466v.236h1.919c0-.133,0-.246,0-.358,0-1.051,0-2.1,0-3.153a4.244,4.244,0,0,1,.056-.789A.717.717,0,0,1,57,13.931a.71.71,0,0,1,.652.738c.006,1.232.007,2.465.011,3.7,0,.142,0,.285,0,.466m28.485.009v-.317c0-1.822,0-3.644,0-5.467a2.474,2.474,0,0,0-.094-.668,2.665,2.665,0,0,0-2.086-1.928,5.278,5.278,0,0,0-1.2-.072q-2.405-.011-4.811,0c-.259,0-.519.03-.816.048a4.542,4.542,0,0,1,.661,2.694c-.013,1.588.007,3.176-.01,4.763-.005.465.388.631.595.936.016.024.085.018.13.018l3.9-.023c.073,0,.146-.007.249-.011v-.4c0-.642,0-1.285,0-1.928,0-.612,0-1.225.019-1.837a.721.721,0,0,1,.556-.689.732.732,0,0,1,.946.7c.023.255.023.514.023.771q0,1.6-.012,3.2c0,.11-.014.213.152.211.589,0,1.177,0,1.8,0M70.177,1.5c-.174,0-.348,0-.521,0a.7.7,0,0,0-.2.041,2.848,2.848,0,0,0-2.015,2.079,3.8,3.8,0,0,0,.007,1.573,4.379,4.379,0,0,0,1.014,2.263,2.217,2.217,0,0,0,2.7.557,2.784,2.784,0,0,0,1.088-1.033,5.424,5.424,0,0,0,.728-2.449,2.77,2.77,0,0,0-2.8-3.032m-7.83,3.868a3.52,3.52,0,0,0-.007-.723,2.555,2.555,0,0,0-2.99-1.928,2.386,2.386,0,0,0-1.994,1.925A4.119,4.119,0,0,0,58.242,8.1a2.011,2.011,0,0,0,2.079.7,2.062,2.062,0,0,0,1.27-.89,3.947,3.947,0,0,0,.756-2.552M80.5,8.853a3.224,3.224,0,0,0,.473-.043,2.257,2.257,0,0,0,1.405-1.07,4.5,4.5,0,0,0,.678-2.726,2.542,2.542,0,0,0-3.072-2.3,2.429,2.429,0,0,0-1.9,1.689,3.952,3.952,0,0,0-.1,1.185,3.812,3.812,0,0,0,.868,2.448,1.944,1.944,0,0,0,1.646.812" transform="translate(-43.12 0)" fill="#12263f"/>
        <path id="Trazado_833024" data-name="Trazado 833024" d="M1.454,43.743v.291q0,8.2.011,16.4a3.055,3.055,0,0,0,.255.949,90.515,90.515,0,0,0,3.743,9.029A97.737,97.737,0,0,0,10.5,79.685a2.051,2.051,0,0,1,.291,1.478c-.227,1.538-.415,3.082-.614,4.624-.052.406-.457.8-.8.753a.808.808,0,0,1-.686-.937c.16-1.281.314-2.562.477-3.843.038-.3.113-.594.145-.893a.649.649,0,0,0-.076-.378A102.605,102.605,0,0,1,3.591,69.854c-.863-1.911-1.65-3.857-2.444-5.8C.774,63.141.457,62.2.133,61.27a2.352,2.352,0,0,1-.127-.753Q0,52.249,0,43.981a1.551,1.551,0,0,1,.852-1.507,1.449,1.449,0,0,1,.537-.155A4.031,4.031,0,0,1,4.71,43.626a4.862,4.862,0,0,1,1.326,3.216c.1,1.561.212,3.122.3,4.683.062,1.049.1,2.1.147,3.148.047.974.1,1.947.154,2.921a.705.705,0,0,0,.122.355q1.447,1.989,2.909,3.968c.052.07.111.135.2.244a.853.853,0,0,0,.008-.176c-.129-.551-.263-1.1-.39-1.651a3.918,3.918,0,0,1,.151-2.572,3.051,3.051,0,0,1,4.643-1.109,4.215,4.215,0,0,1,1.347,1.819q2.164,5.291,4.314,10.586c.392.965.775,1.933,1.162,2.9a13.061,13.061,0,0,1,.722,2.893,18.813,18.813,0,0,1,.031,4.5c-.082.956-.144,1.914-.209,2.871-.08,1.169-.154,2.338-.231,3.506a.892.892,0,0,1-.812.808.79.79,0,0,1-.731-.856c.057-1.041.134-2.081.2-3.122.1-1.492.179-2.986.3-4.477a17.779,17.779,0,0,0-.069-3.214,9.655,9.655,0,0,0-.726-2.7q-1.612-3.951-3.225-7.9-1.057-2.588-2.116-5.175a3.139,3.139,0,0,0-.791-1.173A1.634,1.634,0,0,0,11.8,57.62a1.3,1.3,0,0,0-.937,1.291,7.954,7.954,0,0,0,.185,1.61c.167.874.378,1.739.568,2.609q.534,2.442,1.065,4.886.309,1.415.621,2.829a.7.7,0,0,1-.51.873.71.71,0,0,1-.919-.539c-.377-1.708-.745-3.419-1.124-5.127a1.118,1.118,0,0,0-.2-.4c-1.65-2.248-3.293-4.5-4.967-6.732a2.663,2.663,0,0,1-.5-1.517c-.119-1.931-.241-3.862-.352-5.793-.036-.626-.023-1.255-.058-1.881-.06-1.086-.107-2.175-.217-3.257A2.927,2.927,0,0,0,1.98,43.809c-.161-.031-.327-.041-.526-.066" transform="translate(0 -34.607)" fill="#12263f"/>
        <path id="Trazado_833025" data-name="Trazado 833025" d="M196.988,43.772a2.982,2.982,0,0,0-2.295,1.043,3.124,3.124,0,0,0-.739,1.885q-.113,2.378-.239,4.755c-.032.588-.1,1.175-.135,1.763-.066,1.079-.118,2.158-.182,3.237-.032.535-.055,1.073-.126,1.6a1.5,1.5,0,0,1-.27.656q-2.486,3.406-5,6.795a1.9,1.9,0,0,0-.35.765c-.27,1.292-.56,2.58-.846,3.87q-.118.53-.253,1.056a.734.734,0,0,1-.97.528.754.754,0,0,1-.465-.909c.152-.662.278-1.329.424-1.992.229-1.038.468-2.074.7-3.113.132-.6.246-1.2.378-1.794.252-1.141.516-2.28.766-3.422a9.138,9.138,0,0,0,.192-1.115,1.8,1.8,0,0,0-.407-1.393,1.755,1.755,0,0,0-2.107-.149,3.277,3.277,0,0,0-.921,1.323q-1.463,3.584-2.929,7.166c-.865,2.125-1.733,4.248-2.58,6.38a10.655,10.655,0,0,0-.622,3.051,17.309,17.309,0,0,0,.049,2.785c.073.972.116,1.946.185,2.918q.145,2.058.31,4.114a.824.824,0,0,1-.368.838.79.79,0,0,1-1.175-.636c-.085-1.388-.216-2.773-.286-4.161a52.685,52.685,0,0,1-.258-5.679,11.421,11.421,0,0,1,.532-3c.406-1.207.887-2.389,1.364-3.57q1.673-4.146,3.375-8.28c.418-1.019.818-2.048,1.29-3.041a3.523,3.523,0,0,1,2.3-1.942,3.139,3.139,0,0,1,3.187,1.167,3.318,3.318,0,0,1,.549,2.48c-.11.684-.288,1.357-.434,2.035a.787.787,0,0,0-.011.343c.064-.077.133-.151.193-.231.948-1.291,1.9-2.581,2.838-3.878a.877.877,0,0,0,.158-.434c.09-1.395.168-2.791.246-4.186.06-1.071.111-2.143.172-3.213.07-1.23.107-2.463.229-3.688a4.5,4.5,0,0,1,3.434-4.089,4.234,4.234,0,0,1,1.261-.068,1.515,1.515,0,0,1,1.29,1.5c0,.083,0,.166,0,.249,0,5.361-.009,10.721.011,16.081a5.666,5.666,0,0,1-.432,1.974q-.462,1.277-.956,2.542-1.63,4.167-3.643,8.164c-1.3,2.6-2.714,5.142-4.212,7.635a.7.7,0,0,0-.082.422c.205,1.571.424,3.141.637,4.711a.8.8,0,0,1-.69.934c-.342.053-.754-.338-.8-.743-.131-1.056-.268-2.111-.406-3.165-.086-.658-.177-1.316-.266-1.974a1.08,1.08,0,0,1,.2-.725,101.861,101.861,0,0,0,5.934-11.15q1.607-3.523,2.91-7.171c.1-.284.207-.566.3-.852a.773.773,0,0,0,.036-.243q0-8.29,0-16.581Z" transform="translate(-144.339 -34.625)" fill="#12263f"/>
        <path id="Trazado_833026" data-name="Trazado 833026" d="M127.607,117.116c0-.46,0-.883,0-1.305a.8.8,0,0,1,.866-.908c.763-.017,1.527-.009,2.291,0a.824.824,0,0,1,.871.909c-.016.21,0,.423,0,.635s0,.422,0,.673c.126,0,.25,0,.375,0,.407.011.817,0,1.22.046a.686.686,0,0,1,.611.725c.007.786-.015,1.573.013,2.358a.814.814,0,0,1-.882.864c-.438,0-.876,0-1.329,0a1.3,1.3,0,0,0-.02.158c0,.4,0,.8.006,1.2a.771.771,0,0,1-.771.854q-1.246.035-2.494,0a.754.754,0,0,1-.755-.777c-.015-.407,0-.816.007-1.224,0-.059,0-.118,0-.211-.247,0-.478,0-.709,0a8.034,8.034,0,0,1-.926-.043.65.65,0,0,1-.591-.668q-.017-1.292.011-2.584a.761.761,0,0,1,.834-.694c.37-.01.741,0,1.112,0h.259m1.519-.719c0,.479.007.924,0,1.368a.754.754,0,0,1-.843.843c-.363.007-.726-.006-1.089-.007-.094,0-.188.011-.273.016v1.014c.48,0,.941-.014,1.4,0a.743.743,0,0,1,.806.828c.012.378.024.757.005,1.133-.01.2.06.248.241.234a3.486,3.486,0,0,1,.521,0c.167.013.2-.057.2-.21,0-.431,0-.862.024-1.292a.679.679,0,0,1,.71-.694c.287-.014.575,0,.862-.005h.629v-1.011c-.469,0-.921.006-1.373,0a.745.745,0,0,1-.843-.815c-.017-.408,0-.816-.021-1.224,0-.061-.082-.167-.131-.17-.262-.017-.526-.008-.826-.008" transform="translate(-102.571 -93.987)" fill="#12263f"/>
      </g>
    </g>
  </g>
</svg>
