<svg xmlns="http://www.w3.org/2000/svg" xmlns:xlink="http://www.w3.org/1999/xlink" width="62" height="62" viewBox="0 0 62 62">
  <defs>
    <clipPath id="clip-path">
      <rect id="Rect치ngulo_379563" data-name="Rect치ngulo 379563" width="37.888" height="33.06" fill="#12263f"/>
    </clipPath>
  </defs>
  <g id="Grupo_1080952" data-name="Grupo 1080952" transform="translate(-356 -10941)">
    <g id="Grupo_1080536" data-name="Grupo 1080536" transform="translate(83 -1965)">
      <g id="Grupo_1014856" data-name="Grupo 1014856" transform="translate(-111.999 10848)">
        <path id="Uni칩n_12" data-name="Uni칩n 12" d="M31,0A31,31,0,1,1,0,31,31,31,0,0,1,31,0Z" transform="translate(384.999 2058)" fill="#cadeb4"/>
      </g>
    </g>
    <g id="Grupo_1080946" data-name="Grupo 1080946" transform="translate(368 10955)">
      <g id="Grupo_1080946-2" data-name="Grupo 1080946" clip-path="url(#clip-path)">
        <path id="Trazado_832306" data-name="Trazado 832306" d="M11.746,19.518V22.15q0,4.671,0,9.343c0,1.206-.365,1.565-1.584,1.566q-3.1,0-6.208,0c-1.173,0-1.584-.416-1.585-1.592,0-1.721-.01-3.442.007-5.163a.73.73,0,0,0-.47-.79A3.129,3.129,0,0,1,.061,22.8,35.6,35.6,0,0,1,.088,18.2,6.648,6.648,0,0,1,3.263,13a1.936,1.936,0,0,0,.2-.145.409.409,0,0,0,.066-.1,5.273,5.273,0,1,1,7.4-.291l3.348,1.663v-.756q0-4.764,0-9.527A3.559,3.559,0,0,1,18.1,0Q26.093,0,34.084,0a3.544,3.544,0,0,1,3.8,3.79q0,6.239,0,12.478a3.542,3.542,0,0,1-3.719,3.757c-1.739.019-3.479,0-5.319,0,.295.828.557,1.59.836,2.345q1.623,4.392,3.254,8.782c.32.866.2,1.421-.375,1.73-.68.368-1.341.058-1.665-.806-.623-1.662-1.233-3.328-1.846-4.993-.811-2.2-1.624-4.4-2.423-6.605-.11-.3-.247-.557-.595-.436a.9.9,0,0,0-.519.436c-1.423,3.846-2.823,7.7-4.229,11.553-.278.762-.762,1.1-1.343.963a1.089,1.089,0,0,1-.774-1.616q1.747-4.836,3.509-9.666l.611-1.683c-1.308,0-2.549-.01-3.788.014-.139,0-.3.179-.407.312a2.972,2.972,0,0,1-3.618.97c-1.228-.543-2.418-1.171-3.73-1.813m7.827-1.738c.2.017.293.033.391.033q7.1,0,14.2,0c1.024,0,1.511-.526,1.512-1.583q0-6.177,0-12.353c0-1.189-.477-1.658-1.683-1.658q-6.238,0-12.476,0c-1.188,0-2.377-.01-3.565,0A1.314,1.314,0,0,0,16.5,3.549q-.019,5.654,0,11.308a.656.656,0,0,0,.248.483c.376.232.791.4,1.224.611.123-.228.232-.419.331-.615.671-1.332,1.305-2.684,2.034-3.983a1.45,1.45,0,0,1,1-.622,1.132,1.132,0,0,1,.909.544,1.624,1.624,0,0,1-.048,1.2c-.826,1.754-1.719,3.477-2.635,5.3M9.515,30.814v-.78c0-3.912.038-7.826-.021-11.737-.02-1.317.683-2.172,2.19-1.328,1.425.8,2.917,1.478,4.383,2.2.618.305,1.1.2,1.313-.276.276-.621-.187-.841-.617-1.055-1.847-.919-3.73-1.77-5.534-2.765a8.029,8.029,0,0,0-4.6-.951,4.669,4.669,0,0,0-4.25,3.86,40.56,40.56,0,0,0-.118,4.534,1.244,1.244,0,0,0,1.188,1.2c.863.119,1.143.415,1.147,1.266.008,1.721,0,3.441,0,5.162,0,.217.019.434.03.671ZM4.046,8.83a3.032,3.032,0,0,0,6.064.025A3.032,3.032,0,1,0,4.046,8.83" transform="translate(0 0)" fill="#12263f"/>
        <path id="Trazado_832307" data-name="Trazado 832307" d="M162.436,38.752q2.826,0,5.652,0c.9,0,1.374.4,1.36,1.12-.013.686-.505,1.1-1.349,1.1q-5.714.006-11.427,0c-.51,0-.991-.134-1.158-.627a1.325,1.325,0,0,1,.067-1.074,1.58,1.58,0,0,1,1.081-.5c1.924-.048,3.85-.022,5.775-.023" transform="translate(-136.326 -33.982)" fill="#12263f"/>
        <path id="Trazado_832308" data-name="Trazado 832308" d="M207.252,108.231c-.962,0-1.924.007-2.885,0a1.1,1.1,0,0,1-1.174-1.065,1.116,1.116,0,0,1,1.173-1.145q2.885-.02,5.77,0a1.113,1.113,0,0,1,1.2,1.118,1.076,1.076,0,0,1-1.2,1.094c-.962.007-1.923,0-2.885,0" transform="translate(-178.213 -92.977)" fill="#12263f"/>
        <path id="Trazado_832309" data-name="Trazado 832309" d="M207.231,74.523c-.92,0-1.84.015-2.759,0-.82-.018-1.272-.424-1.277-1.095s.444-1.107,1.26-1.117q2.82-.034,5.641,0c.8.01,1.255.464,1.243,1.13s-.458,1.064-1.288,1.081c-.94.019-1.88,0-2.821,0" transform="translate(-178.215 -63.403)" fill="#12263f"/>
      </g>
    </g>
  </g>
</svg>
