<svg xmlns="http://www.w3.org/2000/svg" xmlns:xlink="http://www.w3.org/1999/xlink" width="85" height="85" viewBox="0 0 85 85">
  <defs>
    <clipPath id="clip-path">
      <rect id="Rect치ngulo_380196" data-name="Rect치ngulo 380196" width="52.732" height="52.891" fill="#12263f"/>
    </clipPath>
  </defs>
  <g id="Grupo_1081214" data-name="Grupo 1081214" transform="translate(-285 -9259)">
    <g id="Grupo_1081162" data-name="Grupo 1081162" transform="translate(-0.332 2808)">
      <circle id="Elipse_4872" data-name="Elipse 4872" cx="42.5" cy="42.5" r="42.5" transform="translate(285.332 6451)" fill="#eaf2e1"/>
      <g id="Grupo_156261" data-name="Grupo 156261" transform="translate(302.332 6467)">
        <rect id="Rect치ngulo_47312" data-name="Rect치ngulo 47312" width="7.049" height="3.525" transform="translate(4.424 16.762)" fill="#eaf2e1"/>
        <path id="Trazado_198297" data-name="Trazado 198297" d="M10.008,59.838h7.045l-3.525,4.405Z" transform="translate(-5.582 -33.378)" fill="#eaf2e1"/>
      </g>
    </g>
    <g id="Grupo_1081211" data-name="Grupo 1081211" transform="translate(301 9275)">
      <g id="Grupo_1081210" data-name="Grupo 1081210" clip-path="url(#clip-path)">
        <path id="Trazado_833038" data-name="Trazado 833038" d="M184.291,0a1.532,1.532,0,0,1,.65,1.448c-.033,1.408-.013,2.817-.016,4.226a.871.871,0,0,1-.641.945,1.531,1.531,0,0,1-1.043-.163,1.138,1.138,0,0,1-.378-.834c-.036-1.511-.009-3.023-.021-4.535A1.194,1.194,0,0,1,183.568,0Z" transform="translate(-157.618)" fill="#12263f"/>
        <path id="Trazado_833039" data-name="Trazado 833039" d="M10.212,82.652a3.7,3.7,0,0,1,1.178-6.159A3.735,3.735,0,0,1,13.646,70.9c-.151-2.586.532-3.724,2.649-4.486a11.189,11.189,0,0,1,.114-1.895,3.543,3.543,0,0,1,4.258-2.639.905.905,0,0,0,.826-.18,2.926,2.926,0,0,1,2.328-.385c2.415.43,4.823.9,7.236,1.337.453.082.931.03,1.379.126a3.561,3.561,0,0,1,2.819,4.28,2.16,2.16,0,0,0-.014.244,3.746,3.746,0,0,1,2.3,1.677,3.869,3.869,0,0,1,.405,2.857,3.7,3.7,0,0,1,2.316,1.681,3.757,3.757,0,0,1,.409,2.852,3.668,3.668,0,0,1,1.632,6.28c.889.888,1.787,1.736,2.624,2.641a1.345,1.345,0,0,0,1.677.5,3.1,3.1,0,0,1,3.223.86c.6.567,1.176,1.16,1.758,1.746a3.458,3.458,0,0,1,0,5.139q-4.315,4.336-8.654,8.648c-.767.766-1.528,1.538-2.3,2.3a3.462,3.462,0,0,1-5.1-.019c-.452-.448-.886-.917-1.356-1.345a3.594,3.594,0,0,1-.991-4.526q-2.03-2.027-4.059-4.044a.581.581,0,0,0-.356-.156c-1.375-.042-2.75-.061-4.125-.107a2.149,2.149,0,0,0-1.732.732c-1.126,1.183-2.3,2.321-3.471,3.494a3.7,3.7,0,0,1,.434,2.527,3.565,3.565,0,0,1-.957,1.791c-.593.6-1.185,1.2-1.789,1.788a3.461,3.461,0,0,1-4.992,0c-.727-.709-1.441-1.43-2.154-2.153a1.043,1.043,0,0,1-.1-1.591,1.087,1.087,0,0,1,1.6.123c.687.675,1.36,1.366,2.047,2.041a1.4,1.4,0,0,0,2.207-.008c.5-.494,1-1,1.5-1.5a1.37,1.37,0,0,0-.01-2.28c-1.839-1.857-3.665-3.727-5.506-5.582q-2.491-2.509-5.011-4.991a3.361,3.361,0,0,0-1.123-.765,1.19,1.19,0,0,0-1.268.374c-.556.563-1.124,1.115-1.68,1.678a1.392,1.392,0,0,0,.011,2.2c.711.724,1.453,1.42,2.145,2.162a1.013,1.013,0,0,1-.545,1.742,1.274,1.274,0,0,1-.924-.289C2.479,95.012,1.658,94.2.88,93.35a3.419,3.419,0,0,1,.06-4.643c.65-.688,1.311-1.367,2.01-2a3.287,3.287,0,0,1,3.438-.762.624.624,0,0,0,.756-.185c1-1.039,2.028-2.056,3.068-3.1M31.473,93.733l3.162,3.186L44.01,87.5l-3.28-3.285a9.367,9.367,0,0,1-.713.671,1.006,1.006,0,0,1-1.652-.625,1.538,1.538,0,0,1,.361-1c.712-.793,1.508-1.509,2.242-2.283a1.5,1.5,0,0,0,.005-2.1,1.477,1.477,0,0,0-2.089-.066c-.3.258-.565.554-.85.828a1.073,1.073,0,0,1-1.6.119,1.053,1.053,0,0,1,.1-1.593c.565-.578,1.156-1.132,1.7-1.726a1.506,1.506,0,0,0-2.12-2.139c-.322.284-.614.6-.921.9-.562.551-1.173.6-1.632.146a1.094,1.094,0,0,1,.146-1.634c.6-.613,1.23-1.2,1.817-1.833a1.474,1.474,0,0,0-.042-2.128,1.513,1.513,0,0,0-2.1.014c-.315.292-.608.609-.916.909a1.081,1.081,0,0,1-1.636.126c-.459-.473-.4-1.061.166-1.632.606-.611,1.232-1.2,1.821-1.829a1.513,1.513,0,0,0-.031-2.1,1.454,1.454,0,0,0-2.05-.063c-1.029.987-2.014,2.019-3.031,3.046a3.564,3.564,0,0,1,.023,3.63,3.6,3.6,0,0,1-3.1,1.856c-.024.1-.038.152-.047.2a3.557,3.557,0,0,1-3.306,3.38c-.342.063-.344.264-.377.5a3.5,3.5,0,0,1-2.4,2.956,8.514,8.514,0,0,1-1.181.266,3.651,3.651,0,0,1-5.46,3.085L8.626,87.363l9.482,9.527c1.175-1.183,2.394-2.4,3.6-3.626a3.183,3.183,0,0,1,1.93-1,15.971,15.971,0,0,1,2.056-.06c.722.012,1.443.072,2.164.111a3.874,3.874,0,0,0,3.324-1.533,1.042,1.042,0,0,1,1.587-.123,1.1,1.1,0,0,1-.1,1.6c-.433.491-.827,1.017-1.191,1.469m3.3,6.541a5.638,5.638,0,0,0,.578,1.011c.54.6,1.128,1.158,1.709,1.72a1.343,1.343,0,0,0,2.054.019q5.527-5.494,11.03-11.012a1.357,1.357,0,0,0-.015-2.094c-.541-.554-1.09-1.1-1.644-1.641a1.376,1.376,0,0,0-2.137-.024q-5.5,5.479-10.985,10.984a4.706,4.706,0,0,0-.589,1.036m-12.228-26.6a3.331,3.331,0,0,0-.451-.942q-1.934-2-3.937-3.933A1.494,1.494,0,0,0,16.036,70.9q1.949,2.021,3.972,3.969a1.355,1.355,0,0,0,1.588.2,1.646,1.646,0,0,0,.947-1.393M26.081,69.9c0-.337-.184-.616-.686-.839a8.484,8.484,0,0,1-4.584-4.65A.815.815,0,0,0,20.423,64a1.477,1.477,0,0,0-1.9.792,1.441,1.441,0,0,0,.3,1.67c1.56,1.579,3.137,3.14,4.709,4.707a1.145,1.145,0,0,0,.162.127,1.436,1.436,0,0,0,1.6.11,1.494,1.494,0,0,0,.78-1.5m-8.806,9.027a1.672,1.672,0,0,0,1.43-.992,1.421,1.421,0,0,0-.314-1.662q-1.4-1.439-2.844-2.843a1.511,1.511,0,0,0-2.135-.034,1.473,1.473,0,0,0,0,2.162c.932.963,1.878,1.915,2.854,2.832a4.31,4.31,0,0,0,1.007.537m-3.584,3.531a1.419,1.419,0,0,0,1.337-.8,1.312,1.312,0,0,0-.112-1.545A11.109,11.109,0,0,0,13.494,78.7a1.325,1.325,0,0,0-1.548-.1,1.407,1.407,0,0,0-.788,1.344,3.427,3.427,0,0,0,2.533,2.513m9.037-19.19c.055.266.063.332.083.394a5.7,5.7,0,0,0,1.992,2.62c1,.834,1.008.824,1.909-.076L28.6,64.322l-5.872-1.054" transform="translate(0 -52.792)" fill="#12263f"/>
        <path id="Trazado_833040" data-name="Trazado 833040" d="M60.68,3.223a1.045,1.045,0,0,1,.585-1.106,1.029,1.029,0,0,1,1.23.229q1.556,1.546,3.107,3.1c.219.219.448.429.652.662a1.038,1.038,0,0,1-.021,1.482,1.019,1.019,0,0,1-1.443.007Q62.851,5.7,60.957,3.763a1.665,1.665,0,0,1-.276-.54" transform="translate(-52.309 -1.729)" fill="#12263f"/>
        <path id="Trazado_833041" data-name="Trazado 833041" d="M283.616,2.9a4.588,4.588,0,0,1-.5.847q-1.822,1.862-3.682,3.687a1.031,1.031,0,0,1-1.518.053,1.045,1.045,0,0,1,.027-1.523c1.231-1.25,2.477-2.485,3.721-3.721a.946.946,0,0,1,1.222-.2,3.847,3.847,0,0,1,.731.86" transform="translate(-239.303 -1.633)" fill="#12263f"/>
        <path id="Trazado_833042" data-name="Trazado 833042" d="M46.437,322.957a1.035,1.035,0,1,1-2.069.038,1.035,1.035,0,1,1,2.069-.038" transform="translate(-38.247 -277.514)" fill="#12263f"/>
        <path id="Trazado_833043" data-name="Trazado 833043" d="M249.273,250.633a1.058,1.058,0,0,1-1.033-1.066,1.06,1.06,0,0,1,2.119.052,1.056,1.056,0,0,1-1.086,1.014" transform="translate(-213.995 -214.259)" fill="#12263f"/>
      </g>
    </g>
  </g>
</svg>
