<svg xmlns="http://www.w3.org/2000/svg" xmlns:xlink="http://www.w3.org/1999/xlink" width="85" height="85" viewBox="0 0 85 85">
  <defs>
    <clipPath id="clip-path">
      <rect id="Rect치ngulo_380197" data-name="Rect치ngulo 380197" width="55.618" height="52.874" fill="#12263f"/>
    </clipPath>
  </defs>
  <g id="Grupo_1081220" data-name="Grupo 1081220" transform="translate(-285 -9371)">
    <g id="Grupo_1081213" data-name="Grupo 1081213">
      <g id="Grupo_1081163" data-name="Grupo 1081163" transform="translate(-0.332 2920)">
        <circle id="Elipse_4872" data-name="Elipse 4872" cx="42.5" cy="42.5" r="42.5" transform="translate(285.332 6451)" fill="#eaf2e1"/>
        <g id="Grupo_156261" data-name="Grupo 156261" transform="translate(302.332 6467)">
          <rect id="Rect치ngulo_47312" data-name="Rect치ngulo 47312" width="7.049" height="3.525" transform="translate(4.424 16.762)" fill="#eaf2e1"/>
          <path id="Trazado_198297" data-name="Trazado 198297" d="M10.008,59.838h7.045l-3.525,4.405Z" transform="translate(-5.582 -33.378)" fill="#eaf2e1"/>
        </g>
      </g>
      <g id="Grupo_1081212" data-name="Grupo 1081212" transform="translate(300 9387)">
        <g id="Grupo_1081212-2" data-name="Grupo 1081212" clip-path="url(#clip-path)">
          <path id="Trazado_833044" data-name="Trazado 833044" d="M170.265,119.681h4.748a.852.852,0,0,1,.98.923c.01.949.009,1.9-.034,2.847a2.878,2.878,0,0,1-.648,1.635.75.75,0,0,0-.171.494q.006,3.211,0,6.422a8.014,8.014,0,0,1-2.525,6.054.475.475,0,0,0-.129.308c-.01.867-.01,1.733,0,2.6a.955.955,0,0,0,.623.956c1.359.55,2.722,1.093,4.082,1.641.663.267,1.333.518,1.983.813a3.236,3.236,0,0,1,2.027,2.957c.044.9.016,1.808.012,2.713a.794.794,0,0,1-1.577.142,2.6,2.6,0,0,1-.042-.494c0-.686-.011-1.372.013-2.057a1.851,1.851,0,0,0-1.265-1.905c-.682-.278-1.362-.561-2.049-.829a.3.3,0,0,0-.235.088c-.559.537-1.076,1.124-1.671,1.616a10.136,10.136,0,0,1-4.179,2.1,16.29,16.29,0,0,1-2.492.392,9.49,9.49,0,0,1-1.888-.12,11.088,11.088,0,0,1-6.634-3.368c-.2-.2-.379-.409-.559-.622a.216.216,0,0,0-.292-.068c-.612.251-1.226.5-1.844.734a2,2,0,0,0-1.454,2.161c.011.768.006,1.537-.019,2.3a.749.749,0,0,1-.687.718.778.778,0,0,1-.848-.646,8.826,8.826,0,0,1-.05-1.217,15.781,15.781,0,0,1,.106-2.162,3.091,3.091,0,0,1,1.961-2.443c1.365-.576,2.748-1.109,4.123-1.662.635-.255,1.268-.515,1.9-.768a.856.856,0,0,0,.6-.821q.029-1.423.028-2.847a.465.465,0,0,0-.158-.277,7.78,7.78,0,0,1-2.443-5.85q-.006-3.03,0-6.06a3.916,3.916,0,0,1,.472-2.087,3.691,3.691,0,0,1,2.082-1.6.374.374,0,0,0,.215-.214,3.293,3.293,0,0,1,1.986-2.225,3.44,3.44,0,0,1,1.451-.279c1.5.013,3,0,4.5,0m3.143,13.5a3.664,3.664,0,0,1-2.328,1.141,3.256,3.256,0,0,1-2.461-.827,3.319,3.319,0,0,1-.922-3.912,3.209,3.209,0,0,1,1.665-1.711,3.414,3.414,0,0,1,4.147.927V126.43c-.312.025-.6.068-.879.068q-3.821.01-7.643.005a2.515,2.515,0,0,1-.36-.028.69.69,0,0,1-.651-.612.75.75,0,0,1,.433-.879,1.5,1.5,0,0,1,.551-.091c1.7-.006,3.407,0,5.11,0,.867,0,1.734.017,2.6-.01a1.748,1.748,0,0,0,1.711-1.8c0-.5-.014-1.01,0-1.515.006-.208-.052-.266-.262-.266q-4.319.01-8.637.006a1.4,1.4,0,0,0-.313.029,1.858,1.858,0,0,0-1.411,1.729.761.761,0,0,1-.7.807c-.117.027-.237.041-.357.058a1.748,1.748,0,0,0-.915.4,1.886,1.886,0,0,0-.619,1.559c0,.9,0,1.794,0,2.69a1.55,1.55,0,0,0,.031.2,3.438,3.438,0,0,1,2.553-1.252,3.3,3.3,0,0,1,2.6,1.1,3.407,3.407,0,0,1-2.254,5.681,3.526,3.526,0,0,1-2.834-1.14,5.65,5.65,0,0,0,1.9,3.71,5.953,5.953,0,0,0,6.523,1.142,5.792,5.792,0,0,0,3.717-4.855m1.176,11.066c-.113-.054-.2-.1-.3-.142-.552-.219-1.106-.434-1.658-.652a2.549,2.549,0,0,1-1.355-1.106,2.983,2.983,0,0,1-.417-1.528c.007-.494,0-.988,0-1.523a7.89,7.89,0,0,1-7.065-.028c0,.112,0,.186,0,.26,0,.482.018.965,0,1.446a2.586,2.586,0,0,1-1.64,2.436c-.35.156-.712.284-1.068.426l-.985.393a9.678,9.678,0,0,0,14.485.017m-10.7-15.113a1.789,1.789,0,1,0,1.785,1.843,1.807,1.807,0,0,0-1.785-1.843m6.966,3.571a1.735,1.735,0,0,0,1.8-1.775,1.782,1.782,0,0,0-1.783-1.811,1.8,1.8,0,0,0-1.838,1.772,1.76,1.76,0,0,0,1.824,1.813" transform="translate(-125.607 -97.969)" fill="#12263f"/>
          <path id="Trazado_833045" data-name="Trazado 833045" d="M21.654,144.741c.191.1.321.164.453.228a3.442,3.442,0,0,1,2.1,3.278c0,.543.008,1.085,0,1.628a.794.794,0,0,1-.821.833.806.806,0,0,1-.756-.681c-.018-.179-.016-.361-.019-.542-.008-.467-.01-.934-.02-1.4a1.783,1.783,0,0,0-1.14-1.671c-1.242-.575-2.489-1.142-3.732-1.714-.164-.075-.323-.16-.494-.246-.606.569-1.216,1.138-1.822,1.712a5.435,5.435,0,0,1-1.711,1.2,4.218,4.218,0,0,1-2.414.248,4.723,4.723,0,0,1-2.316-1.24c-.656-.611-1.311-1.224-1.97-1.831a.212.212,0,0,0-.183-.043q-1.722.792-3.437,1.6c-.245.114-.493.225-.735.346A1.9,1.9,0,0,0,1.524,148.3c0,.558.007,1.116-.012,1.673a.785.785,0,0,1-1.18.628.58.58,0,0,1-.311-.517c0-.867-.027-1.735.009-2.6a2.611,2.611,0,0,1,.728-1.571,3.717,3.717,0,0,1,1.38-1c.1-.043.19-.1.326-.176-.174-.1-.3-.177-.431-.243-.484-.244-.961-.5-1.457-.719-.656-.286-.673-.782-.44-1.37.2-.509.479-.99.667-1.5.2-.534.335-1.09.483-1.641a16.719,16.719,0,0,0,.361-4.376c0-1.605-.022-3.211.01-4.816a10.466,10.466,0,0,1,7.8-10.171,8.728,8.728,0,0,1,3.757-.3A10.451,10.451,0,0,1,21.3,125.19a9.328,9.328,0,0,1,1.056,3.36,13.84,13.84,0,0,1,.107,1.529c.011,1.861-.015,3.723,0,5.585a14.372,14.372,0,0,0,.627,4.568c.251.73.593,1.428.894,2.14.026.062.065.119.093.18a.77.77,0,0,1-.356,1.126c-.476.258-.968.487-1.451.731-.187.095-.371.2-.622.33m-.78-11.658h-.033c0-.95-.026-1.9.008-2.849a7.857,7.857,0,0,0-.242-2.373,8.549,8.549,0,0,0-6.583-6.466,8.4,8.4,0,0,0-5.337.434,8.749,8.749,0,0,0-5.411,8.162c0,1.914.008,3.829,0,5.744,0,.669-.03,1.341-.094,2.007A14.483,14.483,0,0,1,1.916,142.4c-.08.174-.052.245.113.326.731.355,1.454.726,2.187,1.077a.439.439,0,0,0,.328,0c.858-.385,1.707-.79,2.565-1.174A1.083,1.083,0,0,0,7.8,141.55c0-.769-.005-1.538,0-2.306a.422.422,0,0,0-.2-.391,7.591,7.591,0,0,1-3.247-5.461,25.3,25.3,0,0,1-.045-2.957,1.851,1.851,0,0,1,.439-1.211c.507-.584,1.051-1.14,1.606-1.68a.729.729,0,0,1,.975.022.78.78,0,0,1,.056,1.164c-.359.387-.738.754-1.112,1.126a1.2,1.2,0,0,0-.386.927c.019.663.016,1.326.013,1.99a5.248,5.248,0,0,0,.323,1.747,6.12,6.12,0,0,0,5.618,4.154,5.992,5.992,0,0,0,3.915-1.209,5.914,5.914,0,0,0,2.407-4.016,13.655,13.655,0,0,0,.046-2.076.906.906,0,0,0-.806-.978c-.669-.177-1.344-.339-2-.558a19.74,19.74,0,0,1-4.2-1.918,12.653,12.653,0,0,1-2.28-1.77.777.777,0,0,1,.994-1.19,3.459,3.459,0,0,1,.286.22c.318.266.619.553.953.8a16.927,16.927,0,0,0,5.383,2.535c.6.173,1.212.316,1.789.545a2.287,2.287,0,0,1,1.452,1.8,8.32,8.32,0,0,1-.027,2.815,7.675,7.675,0,0,1-3.215,5.171.435.435,0,0,0-.2.4c.006.754,0,1.507,0,2.261a1.143,1.143,0,0,0,.729,1.159c.82.359,1.633.734,2.441,1.119a.521.521,0,0,0,.521-.013c.628-.325,1.263-.636,1.9-.951.391-.194.384-.189.214-.581a14.844,14.844,0,0,1-1.262-5.511c-.035-1.212-.007-2.426-.007-3.639M9.428,139.839c0,.465,0,.9,0,1.338a3.094,3.094,0,0,1-.884,2.4c-.09.086-.087.153.009.241.566.519,1.119,1.054,1.692,1.565a2.642,2.642,0,0,0,1.989.706,2.879,2.879,0,0,0,1.841-.862q.732-.705,1.49-1.384c.137-.123.122-.191,0-.3a2.3,2.3,0,0,1-.756-1.5c-.052-.568-.054-1.141-.075-1.712-.006-.162,0-.324,0-.529a8.085,8.085,0,0,1-5.309.033" transform="translate(0 -97.836)" fill="#12263f"/>
          <path id="Trazado_833046" data-name="Trazado 833046" d="M94.33,4.344h.98c.844,0,1.69.036,2.532-.008a3.441,3.441,0,0,1,3.316,2.508,4.113,4.113,0,0,1,.134,1.026q.016,4.217,0,8.435a3.463,3.463,0,0,1-2.856,3.483,4.541,4.541,0,0,1-.81.062c-1.606.006-3.211,0-4.817,0h-.221c-.006.1-.015.179-.015.259,0,1.048-.013,2.1,0,3.143a.813.813,0,0,1-.478.845.829.829,0,0,1-.969-.227q-1.951-1.95-3.909-3.893a.557.557,0,0,0-.356-.129c-.9-.009-1.794,0-2.691,0a3.725,3.725,0,0,1-1.85-.424,3.471,3.471,0,0,1-1.789-2.5c-.01-.052-.019-.1-.03-.155a.72.72,0,0,0-.036-.089c-.12.115-.234.221-.344.33q-1.654,1.64-3.309,3.279a1.476,1.476,0,0,1-.449.332.8.8,0,0,1-1.118-.805c-.012-.414,0-.829,0-1.244q0-1.4,0-2.8v-.26c-.21-.024-.406-.031-.6-.07a3.392,3.392,0,0,1-2.668-2.243,3.269,3.269,0,0,1-.193-1.17c0-2.54-.005-5.08-.008-7.62q0-.588.014-1.176A3.4,3.4,0,0,1,74.491.073,5.949,5.949,0,0,1,75.527.005Q83.136,0,90.746,0a3.382,3.382,0,0,1,3.24,1.97,4.031,4.031,0,0,1,.342,1.692c.01.217,0,.434,0,.683M76.883,17.954c.1-.1.169-.156.232-.218,1.138-1.132,2.282-2.257,3.409-3.4a1.532,1.532,0,0,1,1.189-.469c3.037.015,6.074,0,9.112.013a1.825,1.825,0,0,0,1.446-.612,2.122,2.122,0,0,0,.448-1.521q0-3.708,0-7.416c0-.354.009-.709-.013-1.062a1.692,1.692,0,0,0-1.637-1.637q-8.038,0-16.075.005a1.34,1.34,0,0,0-.606.141,1.709,1.709,0,0,0-.995,1.574q-.008,3.674,0,7.348c0,.527-.009,1.055.007,1.582a1.749,1.749,0,0,0,1.5,1.567c.375.026.753.026,1.129.031a.827.827,0,0,1,.582.258.976.976,0,0,1,.278.759c-.007,1,0,2,0,3.057M94.335,5.973v.249c0,1.824.007,3.647,0,5.471a3.817,3.817,0,0,1-.644,2.333,3.513,3.513,0,0,1-2.974,1.481c-2.781.007-5.562,0-8.343,0-.079,0-.158.007-.249.011,0,.351,0,.674,0,1a1.6,1.6,0,0,0,.409,1.074,1.791,1.791,0,0,0,1.462.632c1.048,0,2.1.013,3.143,0a1.327,1.327,0,0,1,1.021.436c.864.873,1.738,1.737,2.609,2.6.056.056.121.1.207.178v-.149c0-.716,0-1.431,0-2.147a.819.819,0,0,1,.443-.783,1.434,1.434,0,0,1,.628-.129c1.839-.009,3.678,0,5.516-.01a2.79,2.79,0,0,0,1.035-.16,1.68,1.68,0,0,0,1.073-1.676q0-4.363,0-8.727c0-.038,0-.075,0-.113a1.741,1.741,0,0,0-1.651-1.579c-.955.04-1.914.01-2.871.01h-.809" transform="translate(-58.763 0)" fill="#12263f"/>
          <path id="Trazado_833047" data-name="Trazado 833047" d="M218.461,203.608a3.652,3.652,0,0,1-2.046-.81.766.766,0,0,1,.773-1.317,2.954,2.954,0,0,1,.4.212,1.917,1.917,0,0,0,2.185-.057,1.462,1.462,0,0,1,.342-.168.771.771,0,0,1,.916.287.738.738,0,0,1-.135,1,3.373,3.373,0,0,1-.613.415,3.969,3.969,0,0,1-1.817.437" transform="translate(-176.897 -164.882)" fill="#12263f"/>
          <path id="Trazado_833048" data-name="Trazado 833048" d="M206.355,173.63a4.941,4.941,0,0,1,.083-.58.776.776,0,0,1,.75-.568.723.723,0,0,1,.709.577,5.409,5.409,0,0,1,.035,1.206.738.738,0,0,1-.778.664.747.747,0,0,1-.756-.693c-.027-.193-.029-.389-.044-.606" transform="translate(-168.927 -141.197)" fill="#12263f"/>
          <path id="Trazado_833049" data-name="Trazado 833049" d="M246.436,173.7a1.254,1.254,0,0,1-.165.885.8.8,0,0,1-.824.291.68.68,0,0,1-.6-.622,5.415,5.415,0,0,1,.01-1.145.825.825,0,0,1,.914-.654.938.938,0,0,1,.659.725c.014.172,0,.346,0,.519" transform="translate(-200.42 -141.168)" fill="#12263f"/>
          <path id="Trazado_833050" data-name="Trazado 833050" d="M55.114,203.492a3.923,3.923,0,0,1-2.1-.617.764.764,0,0,1-.33-1.061.741.741,0,0,1,.9-.374c.186.058.363.142.544.215a2.546,2.546,0,0,0,2.033-.018,2.813,2.813,0,0,1,.814-.217.631.631,0,0,1,.645.47.68.68,0,0,1-.168.788,2.8,2.8,0,0,1-1.354.679,9.353,9.353,0,0,1-.981.135" transform="translate(-43.047 -164.874)" fill="#12263f"/>
          <path id="Trazado_833051" data-name="Trazado 833051" d="M42.986,178.6c0-.12,0-.241,0-.361a.792.792,0,0,1,1.546-.271,3.79,3.79,0,0,1,.025,1.268A.8.8,0,0,1,42.986,179c0-.135,0-.271,0-.407Z" transform="translate(-35.188 -145.229)" fill="#12263f"/>
          <path id="Trazado_833052" data-name="Trazado 833052" d="M82.8,178.7c-.019.189-.026.385-.06.577a.742.742,0,0,1-.677.623.757.757,0,0,1-.778-.5,2.128,2.128,0,0,1,0-1.46.736.736,0,0,1,.842-.454.649.649,0,0,1,.606.6c.033.2.043.4.064.613" transform="translate(-66.441 -145.29)" fill="#12263f"/>
          <path id="Trazado_833053" data-name="Trazado 833053" d="M106.7,47.879q2.555,0,5.109,0a.773.773,0,0,1,.869.9.887.887,0,0,1-.924.728c-.558,0-1.115,0-1.673,0-2.811,0-5.622,0-8.433-.009a1.305,1.305,0,0,1-.629-.2.719.719,0,0,1-.33-.858.8.8,0,0,1,.743-.562c.286-.012.573,0,.859,0H106.7" transform="translate(-82.395 -39.193)" fill="#12263f"/>
          <path id="Trazado_833054" data-name="Trazado 833054" d="M106.7,28.587q2.486,0,4.973,0a1.693,1.693,0,0,1,.469.049.775.775,0,0,1,.542.84.762.762,0,0,1-.653.706,3.272,3.272,0,0,1-.517.039q-4.883,0-9.765,0a1.092,1.092,0,0,1-.786-.216.759.759,0,0,1-.274-.807.856.856,0,0,1,.7-.592c.195-.017.391-.019.587-.019q2.362,0,4.724,0Z" transform="translate(-82.403 -23.402)" fill="#12263f"/>
        </g>
      </g>
    </g>
  </g>
</svg>
