<svg xmlns="http://www.w3.org/2000/svg" xmlns:xlink="http://www.w3.org/1999/xlink" width="85" height="85" viewBox="0 0 85 85">
  <defs>
    <clipPath id="clip-path">
      <rect id="Rect치ngulo_380198" data-name="Rect치ngulo 380198" width="52.439" height="52.26" fill="#12263f"/>
    </clipPath>
  </defs>
  <g id="Grupo_1081219" data-name="Grupo 1081219" transform="translate(-285 -9491)">
    <g id="Grupo_1081164" data-name="Grupo 1081164" transform="translate(-0.332 3040)">
      <circle id="Elipse_4872" data-name="Elipse 4872" cx="42.5" cy="42.5" r="42.5" transform="translate(285.332 6451)" fill="#eaf2e1"/>
      <g id="Grupo_156261" data-name="Grupo 156261" transform="translate(302.332 6467)">
        <rect id="Rect치ngulo_47312" data-name="Rect치ngulo 47312" width="7.049" height="3.525" transform="translate(4.424 16.762)" fill="#eaf2e1"/>
        <path id="Trazado_198297" data-name="Trazado 198297" d="M10.008,59.838h7.045l-3.525,4.405Z" transform="translate(-5.582 -33.378)" fill="#eaf2e1"/>
      </g>
    </g>
    <g id="Grupo_1081216" data-name="Grupo 1081216" transform="translate(301 9507)">
      <g id="Grupo_1081215" data-name="Grupo 1081215" clip-path="url(#clip-path)">
        <path id="Trazado_833055" data-name="Trazado 833055" d="M49.255,29.215c-.069.8-.137,1.7-.229,2.594-.052.506-.151,1.008-.213,1.513-.008.061.073.157.137.2a6.67,6.67,0,0,1,1.5,1.315,5.667,5.667,0,0,1,1.14,2.28,8.158,8.158,0,0,1,.036,3.768c-.172.787-.4,1.56-.613,2.338a.272.272,0,0,0,.08.317,4.04,4.04,0,0,1-1.373,6.825,3.956,3.956,0,0,1-4.17-.908.677.677,0,0,0-.792-.186,20.979,20.979,0,0,1-2.075.531,9.115,9.115,0,0,1-1.664.214,12.75,12.75,0,0,1-1.624-.154,4.545,4.545,0,0,1-1.692-.53.4.4,0,0,0-.328.02,24.061,24.061,0,0,1-3.465,1.556,23.666,23.666,0,0,1-3.5.946,21.63,21.63,0,0,1-4.483.4,23.208,23.208,0,0,1-3.51-.334,23.555,23.555,0,0,1-3.5-.868,20.112,20.112,0,0,1-3.78-1.677.412.412,0,0,0-.455-.032,6.617,6.617,0,0,1-2.008.581,7.829,7.829,0,0,1-2.578-.058,16.237,16.237,0,0,1-2.712-.681.228.228,0,0,0-.3.083,3.636,3.636,0,0,1-1.267.947,3.851,3.851,0,0,1-2.51.322,4,4,0,0,1-2.893-2.23,3.942,3.942,0,0,1-.259-2.855,3.873,3.873,0,0,1,1.171-1.891.3.3,0,0,0,.1-.364c-.178-.6-.357-1.208-.518-1.816A9.121,9.121,0,0,1,.657,38.24,5.877,5.877,0,0,1,2.733,34.1c.243-.206.507-.387.769-.569a.233.233,0,0,0,.118-.273c-.1-.68-.173-1.363-.258-2.045a13.238,13.238,0,0,1-.1-2.822A26.406,26.406,0,0,1,4.3,22.648a22.868,22.868,0,0,1,7.071-10.672,22.191,22.191,0,0,1,5.591-3.489,1.357,1.357,0,0,0,.582-.476,10.235,10.235,0,0,1,3.227-2.824c.39-.231.795-.437,1.2-.644a.259.259,0,0,0,.169-.277A4.109,4.109,0,0,1,24.667.314a4.064,4.064,0,0,1,5.319,2.2A4.576,4.576,0,0,1,30.3,4.17a.417.417,0,0,0,.277.428,12.414,12.414,0,0,1,3.356,2.3A11.7,11.7,0,0,1,34.894,8a1.691,1.691,0,0,0,.655.522,22.764,22.764,0,0,1,10.587,9.5,21.773,21.773,0,0,1,2.4,6.039,18.422,18.422,0,0,1,.52,3.2c.033.615.123,1.227.2,1.942M2.933,42.618a.162.162,0,0,0,.047.008c.056-.01.112-.02.166-.035a3.772,3.772,0,0,1,2.479.192,4.092,4.092,0,0,1,2.489,4.436c-.024.159-.119.36-.055.465s.287.106.438.16a9.939,9.939,0,0,0,3.731.494,4.1,4.1,0,0,0,3.524-2c.638-1.021,1.225-2.074,1.829-3.117.231-.4.466-.8.659-1.213a1.091,1.091,0,0,0-.207-1.21,1.193,1.193,0,0,0-1.181-.424,1.322,1.322,0,0,0-.932.738c-.563.976-1.13,1.95-1.691,2.927a.965.965,0,0,1-.605.5c-.391.1-.779.211-1.172.3a.8.8,0,0,1-.783-.365.822.822,0,0,1,.555-1.226c.158-.041.317-.074.476-.11a.537.537,0,0,0,.368-.287c.522-.917,1.039-1.838,1.591-2.738a2.841,2.841,0,0,1,4.911,2.856q-1.2,2.1-2.43,4.17a12.593,12.593,0,0,1-.8,1.078,20.751,20.751,0,0,0,8.53,2.372A21.132,21.132,0,0,0,36.121,48.21a9.715,9.715,0,0,1-.739-.957c-.86-1.443-1.694-2.9-2.54-4.352a2.544,2.544,0,0,1-.3-1.707,2.818,2.818,0,0,1,2.674-2.427,2.731,2.731,0,0,1,2.591,1.371c.513.841,1.009,1.693,1.481,2.557a.94.94,0,0,0,.7.5,1.725,1.725,0,0,1,.587.227.752.752,0,0,1,.247.962.792.792,0,0,1-.9.426c-.358-.087-.713-.184-1.071-.272a.966.966,0,0,1-.617-.486c-.26-.447-.516-.9-.778-1.343-.365-.624-.707-1.263-1.107-1.864a1.23,1.23,0,0,0-2.079.133,1.251,1.251,0,0,0,.074,1.328c.762,1.312,1.511,2.631,2.287,3.934a4.018,4.018,0,0,0,2.805,2,8.234,8.234,0,0,0,2.9-.014c.7-.123,1.389-.317,2.094-.482-.02-.109-.029-.171-.042-.231a4.173,4.173,0,0,1-.031-1.772,4.088,4.088,0,0,1,5.012-3.132c.12.035.153,0,.191-.114a15.687,15.687,0,0,0,.546-2.268,6.486,6.486,0,0,0-.1-2.844,4.068,4.068,0,0,0-1.964-2.541q-1.981-1.162-3.982-2.289a1.371,1.371,0,0,0-.7-.2,1.156,1.156,0,0,0-1.147.878,1.128,1.128,0,0,0,.432,1.333c.413.285.857.526,1.292.778.613.356,1.23.7,1.844,1.058a1.088,1.088,0,0,1,.569.631c.1.354.2.708.289,1.065a.825.825,0,0,1-.545,1,.8.8,0,0,1-.982-.535c-.083-.233-.138-.476-.219-.71a.44.44,0,0,0-.152-.209c-.146-.1-.309-.173-.462-.261-.822-.476-1.653-.938-2.462-1.434A2.834,2.834,0,0,1,44.8,31.134q.812.465,1.624.93c.293.167.588.33.9.5a21.166,21.166,0,0,0-4.264-16.242,20.6,20.6,0,0,0-7.085-5.84,2.082,2.082,0,0,0,.021.223,3.819,3.819,0,0,1-.041,1.812q-.333,1.328-.684,2.651c-.208.787-.408,1.577-.646,2.355a2.839,2.839,0,0,1-5.48-1.477q.4-1.531.816-3.057a.492.492,0,0,0-.058-.44c-.129-.194-.233-.405-.345-.611a.606.606,0,0,1,.005-.626.792.792,0,0,1,1.436-.05c.172.268.311.558.49.821a1.132,1.132,0,0,1,.106,1.03c-.305,1.061-.588,2.129-.867,3.2a1.264,1.264,0,0,0,.078,1.013,1.231,1.231,0,0,0,1.3.615,1.117,1.117,0,0,0,.977-.86Q33.6,15.2,34.1,13.31a10.963,10.963,0,0,0,.273-1.264,4.177,4.177,0,0,0-.991-3.422,9.584,9.584,0,0,0-2.364-1.961c-.39-.239-.8-.453-1.191-.677a.561.561,0,0,0-.061.066,4.066,4.066,0,0,1-6.9.305c-.248-.342-.245-.357-.626-.156a11.246,11.246,0,0,0-2.779,1.98,4.567,4.567,0,0,0-1.213,4.768c.11.388.208.779.315,1.169.278,1.017.541,2.039.841,3.05a1.228,1.228,0,0,0,2.372-.562,5.128,5.128,0,0,0-.131-.623c-.279-1.039-.564-2.077-.842-3.116a.583.583,0,0,1-.025-.333A4.737,4.737,0,0,1,21.695,11a.373.373,0,0,1,.069-.05.8.8,0,0,1,1.127,1c-.119.2-.217.416-.344.611a.484.484,0,0,0-.056.423c.215.785.435,1.569.638,2.357a4.423,4.423,0,0,1,.248,1.711,2.83,2.83,0,0,1-3.41,2.442,2.681,2.681,0,0,1-2.127-1.933C17.4,16.07,17,14.571,16.62,13.068a12.193,12.193,0,0,1-.269-1.76,3.891,3.891,0,0,1,.1-.815,20.25,20.25,0,0,0-4.246,2.86,21.171,21.171,0,0,0-6.337,9.657,22.555,22.555,0,0,0-.752,9.553c.135-.066.243-.113.346-.172.733-.417,1.467-.832,2.2-1.257a2.8,2.8,0,0,1,3.607.674,2.672,2.672,0,0,1,.6,2.346,3.01,3.01,0,0,1-1.551,2.008c-.85.47-1.686.963-2.532,1.44a.459.459,0,0,0-.247.32c-.048.206-.111.41-.178.611a.821.821,0,0,1-1,.571.8.8,0,0,1-.542-.989c.063-.268.173-.528.216-.8a1.258,1.258,0,0,1,.705-.947c.726-.4,1.443-.818,2.16-1.235a9.788,9.788,0,0,0,.94-.58,1.218,1.218,0,0,0,.136-1.806,1.309,1.309,0,0,0-1.635-.176q-1.869,1.1-3.758,2.167A4.6,4.6,0,0,0,2.24,39.4a10.273,10.273,0,0,0,.693,3.217m-1.313,3.9a2.422,2.422,0,0,0,2.474,2.5,2.472,2.472,0,0,0,.017-4.945,2.447,2.447,0,0,0-2.49,2.44m49.2-.026a2.468,2.468,0,0,0-4.936.106,2.468,2.468,0,0,0,2.533,2.423,2.413,2.413,0,0,0,2.4-2.53M26.273,1.614a2.49,2.49,0,0,0-2.519,2.307,2.475,2.475,0,0,0,4.943.268,2.426,2.426,0,0,0-2.424-2.575" transform="translate(0 0)" fill="#12263f"/>
        <path id="Trazado_833056" data-name="Trazado 833056" d="M100.6,134.087a.646.646,0,0,0-.672.188c-.893.913-1.8,1.811-2.7,2.714a.942.942,0,0,1-.73.375.93.93,0,0,1-.832-.9c0-.021,0-.043,0-.064,0-3.164-.029-6.329.014-9.493a2.5,2.5,0,0,1,1.953-2.527,3.306,3.306,0,0,1,.8-.062c3.087,0,6.174,0,9.261,0a2.715,2.715,0,0,1,1.864.575,2.675,2.675,0,0,1,.922,1.983c.014.226,0,.453,0,.714h.231c.7,0,1.405,0,2.108,0a2.411,2.411,0,0,1,2.232,1.267,2.834,2.834,0,0,1,.368,1.4q0,4.725,0,9.45a.881.881,0,0,1-.535.867.771.771,0,0,1-.924-.227c-.852-.844-1.711-1.681-2.538-2.548a1.314,1.314,0,0,0-1.081-.445c-2.306.033-4.613.009-6.919.02a2.589,2.589,0,0,1-2.821-2.6c-.011-.226,0-.453,0-.69m-3.237.5c.62-.621,1.207-1.2,1.779-1.787a.961.961,0,0,1,.74-.3q3.916.012,7.832.018a2.132,2.132,0,0,0,.423-.031.714.714,0,0,0,.64-.785c0-1.674,0-3.348,0-5.021a.691.691,0,0,0-.342-.617,1.356,1.356,0,0,0-.8-.163q-2.639,0-5.278,0c-1.341,0-2.681-.005-4.022,0-.671,0-.975.308-.975.967q0,3.745,0,7.489v.233m13.118-5.383v.245c0,.638.015,1.278-.006,1.915a4.444,4.444,0,0,1-.136.963,2.458,2.458,0,0,1-2.235,1.755c-1.852-.018-3.7,0-5.556,0H102.3c0,.331.01.642,0,.953a.561.561,0,0,0,.342.584,1.644,1.644,0,0,0,.628.145c2.64.009,5.28,0,7.92,0a.985.985,0,0,1,.742.307c.546.557,1.1,1.1,1.659,1.652a1.068,1.068,0,0,0,.127.089v-.158q0-3.767,0-7.535c0-.036,0-.071,0-.106a.76.76,0,0,0-.855-.812c-.475-.007-.951,0-1.426,0h-.954" transform="translate(-79.315 -103.091)" fill="#12263f"/>
        <path id="Trazado_833057" data-name="Trazado 833057" d="M135.35,149.919c-.5-.016-.768-.346-.745-.921a.712.712,0,0,1,.8-.641.782.782,0,1,1-.05,1.562" transform="translate(-111.62 -123.025)" fill="#12263f"/>
        <path id="Trazado_833058" data-name="Trazado 833058" d="M154.476,149.892a.777.777,0,0,1-.766-.8.8.8,0,0,1,1.607.045.808.808,0,0,1-.841.754" transform="translate(-127.463 -122.996)" fill="#12263f"/>
        <path id="Trazado_833059" data-name="Trazado 833059" d="M116.062,149.929a.781.781,0,1,1,.027-1.56.78.78,0,1,1-.027,1.56" transform="translate(-95.578 -123.035)" fill="#12263f"/>
      </g>
    </g>
  </g>
</svg>
