<svg xmlns="http://www.w3.org/2000/svg" xmlns:xlink="http://www.w3.org/1999/xlink" width="85" height="85" viewBox="0 0 85 85">
  <defs>
    <clipPath id="clip-path">
      <rect id="Rect치ngulo_380199" data-name="Rect치ngulo 380199" width="53.933" height="53.814" fill="#12263f"/>
    </clipPath>
  </defs>
  <g id="Grupo_1081218" data-name="Grupo 1081218" transform="translate(-285 -9611)">
    <g id="Grupo_1081165" data-name="Grupo 1081165" transform="translate(-0.332 3160)">
      <circle id="Elipse_4872" data-name="Elipse 4872" cx="42.5" cy="42.5" r="42.5" transform="translate(285.332 6451)" fill="#eaf2e1"/>
      <g id="Grupo_156261" data-name="Grupo 156261" transform="translate(302.332 6467)">
        <rect id="Rect치ngulo_47312" data-name="Rect치ngulo 47312" width="7.049" height="3.525" transform="translate(4.424 16.762)" fill="#eaf2e1"/>
        <path id="Trazado_198297" data-name="Trazado 198297" d="M10.008,59.838h7.045l-3.525,4.405Z" transform="translate(-5.582 -33.378)" fill="#eaf2e1"/>
      </g>
    </g>
    <g id="Grupo_1081217" data-name="Grupo 1081217" transform="translate(301 9626)">
      <g id="Grupo_1081217-2" data-name="Grupo 1081217" clip-path="url(#clip-path)">
        <path id="Trazado_833060" data-name="Trazado 833060" d="M11.063,179.181a8.137,8.137,0,0,1,4.72,6.9c.821,0,1.664.065,2.493-.015a1.808,1.808,0,0,1,2.214,1.46,3.339,3.339,0,0,0,.3.567l2.778-4.21c.161-.243.3-.5.482-.73a1.056,1.056,0,0,1,1.858.148,18.541,18.541,0,0,1,.961,2.054.942.942,0,0,0,1.055.653c2.884.01,2.17-.365,3.66,2.061.088.144.2.272.337.448a22.666,22.666,0,0,1,1.738-1.9,2.52,2.52,0,0,1,1.352-.6c1.01-.089,2.033-.027,3.1-.027a8.157,8.157,0,0,1,4.756-6.809A6.1,6.1,0,0,1,40,173.923a5.785,5.785,0,0,1,1.941-4.342A6.055,6.055,0,1,1,49.4,179.07a33.269,33.269,0,0,1,2.661,2.286,6.16,6.16,0,0,1,1.739,3.829,41.5,41.5,0,0,1,.1,4.719,2.607,2.607,0,0,1-2.711,2.438q-5.17.026-10.34,0a2.64,2.64,0,0,1-2.689-2.729c-.006-.462,0-.923,0-1.494-.991,0-1.915-.027-2.835.02-.212.011-.442.247-.609.429-.671.731-1.319,1.483-1.978,2.225-.812.915-1.489.851-2.139-.2a9.031,9.031,0,0,1-.8-1.356A1.64,1.64,0,0,0,27.77,188.1c-.255.045-.526-.013-.787.01a1.471,1.471,0,0,1-1.673-1.086,11.63,11.63,0,0,0-.542-1.108c-1.035,1.575-1.98,3.08-3,4.528a2.233,2.233,0,0,1-1.236.941c-.66.1-.946-.548-1.146-1.12-.01-.027-.02-.055-.032-.081-.976-2.222-.976-2.222-3.618-1.9,0,.431.005.885,0,1.338a2.628,2.628,0,0,1-2.611,2.717c-3.5.032-7.01.026-10.515,0a2.461,2.461,0,0,1-2.555-2.185,26.436,26.436,0,0,1,.233-5.736c.433-2.436,2.1-4.087,4.377-5.234a6.165,6.165,0,0,1-2.829-5.261A5.8,5.8,0,0,1,3.7,169.638a6.071,6.071,0,0,1,8.635.3,6.121,6.121,0,0,1-1.27,9.24m-3.212,11.06c1.576,0,3.153-.022,4.729.01.729.015,1.085-.207,1.049-1-.046-1.02,0-2.043-.017-3.064a5.764,5.764,0,0,0-5.4-5.534,5.684,5.684,0,0,0-5.986,4.751c-.173,1.263-.1,2.558-.163,3.837-.038.772.322,1.023,1.058,1.008,1.576-.032,3.152-.01,4.729-.01m38.119,0c1.635,0,3.27-.014,4.9.007.665.009.97-.258.958-.93-.019-1.021.031-2.045-.019-3.064a5.769,5.769,0,0,0-11.534.3c0,.9.028,1.811-.01,2.714-.03.718.253,1,.971.984,1.576-.029,3.153-.009,4.729-.009M11.755,173.965a3.9,3.9,0,1,0-7.793.089,3.9,3.9,0,1,0,7.793-.089m30.388-.048a3.9,3.9,0,1,0,7.79.184,3.9,3.9,0,1,0-7.79-.184" transform="translate(0 -138.545)" fill="#12263f"/>
        <path id="Trazado_833061" data-name="Trazado 833061" d="M113.412,11.238c-3.286-3.424-3.624-6.988-.939-9.541a6.093,6.093,0,0,1,8.638.2,6.156,6.156,0,0,1-1.185,9.3c.244.14.464.26.678.39a7.727,7.727,0,0,1,3.964,6.768c.025,1.109.023,2.219,0,3.328a2.7,2.7,0,0,1-3.35,2.623,1.5,1.5,0,0,1-.827-1.026.855.855,0,0,1,.952-1c1.016.055,1.175-.459,1.128-1.293-.065-1.163.049-2.348-.124-3.492a5.677,5.677,0,0,0-5.94-4.811,5.756,5.756,0,0,0-5.485,5.63c-.026.992.012,1.985-.014,2.977-.017.647.2.989.9.967s1.213.306,1.2,1.07-.519,1.024-1.236,1.035a2.692,2.692,0,0,1-2.967-2.9,32.5,32.5,0,0,1,.152-4.451,7.379,7.379,0,0,1,3.779-5.4c.217-.13.441-.249.673-.379m-.617-5.2A3.891,3.891,0,1,0,120.577,6a3.891,3.891,0,1,0-7.781.038" transform="translate(-89.738 0)" fill="#12263f"/>
        <path id="Trazado_833062" data-name="Trazado 833062" d="M115.812,157.467c0-1.4-.007-2.682,0-3.962.009-1.179.345-1.51,1.507-1.513q2.1,0,4.206,0c1.219,0,1.532.318,1.54,1.569s0,2.507,0,3.905a18.148,18.148,0,0,1,2.37.028c.462.062,1.117.3,1.265.639a1.678,1.678,0,0,1-.356,1.385c-1.911,2.357-3.884,4.664-5.835,6.989-.782.932-1.352.94-2.123.022-1.972-2.346-3.964-4.674-5.892-7.055a1.681,1.681,0,0,1-.3-1.4c.122-.313.771-.53,1.212-.586a20.18,20.18,0,0,1,2.4-.026m7.686,2.175c-.275-.032-.38-.051-.486-.056-2.088-.087-2.09-.088-2.09-2.235,0-1.064,0-2.127,0-3.177h-2.963c0,.739,0,1.408,0,2.076s.016,1.343-.006,2.013c-.032.985-.355,1.294-1.335,1.318-.36.009-.721,0-1.287,0l4.112,4.9,4.055-4.838" transform="translate(-92.492 -125.356)" fill="#12263f"/>
        <path id="Trazado_833063" data-name="Trazado 833063" d="M257.526,110.4c-1.187,1.348-.492,2.6-.34,3.918.1.824-.582,1.782-1.053,2.6a1.2,1.2,0,0,1-1.142.2c-.3-.142-.452-.656-.607-1.032-.05-.122.062-.344.153-.487a2.358,2.358,0,0,0,.037-2.6,1.772,1.772,0,0,1-.03-1.232,5.971,5.971,0,0,1,.832-1.812,1.422,1.422,0,0,1,1.148-.49c.34.056.608.543,1,.934" transform="translate(-209.797 -90.273)" fill="#12263f"/>
        <path id="Trazado_833064" data-name="Trazado 833064" d="M39.86,110.448c-1.037,1.3-.539,2.531-.271,3.881.157.793-.623,1.815-1.106,2.663a1.126,1.126,0,0,1-1.079.186c-.3-.16-.683-.774-.586-.994a5.723,5.723,0,0,0,.06-3.707c-.167-.819.6-1.869,1.077-2.75.111-.207.764-.289,1.077-.177s.516.54.827.9" transform="translate(-30.354 -90.312)" fill="#12263f"/>
        <path id="Trazado_833065" data-name="Trazado 833065" d="M60.278,40.215c-.29.022-.64.157-.858.042-.4-.209-.942-.528-1-.872a1.3,1.3,0,0,1,.7-1.079,7.169,7.169,0,0,1,2.416-.154c.274.024.674.528.705.844a1.231,1.231,0,0,1-.531.974,4.8,4.8,0,0,1-1.415.321l-.015-.077" transform="translate(-48.18 -31.437)" fill="#12263f"/>
        <path id="Trazado_833066" data-name="Trazado 833066" d="M229.307,40.084c-.378-.021-.839.086-1.114-.093a1.916,1.916,0,0,1-.9-1.1c-.062-.585.4-.992,1.09-.951.523.032,1.052,0,1.572.065.823.1,1.348.6,1.227,1.191a1.1,1.1,0,0,1-1.436.909c-.143-.023-.29-.023-.436-.034,0,0,0,.008,0,.012" transform="translate(-187.457 -31.291)" fill="#12263f"/>
        <path id="Trazado_833067" data-name="Trazado 833067" d="M218.991,12.919c-.27-.292-.774-.593-.8-.932a1.5,1.5,0,0,1,.593-1.18,3.7,3.7,0,0,1,1.817-.527,1.459,1.459,0,0,1,1.118.7,1.247,1.247,0,0,1-.42,1.154,12.85,12.85,0,0,1-2.307.781" transform="translate(-179.954 -8.478)" fill="#12263f"/>
        <path id="Trazado_833068" data-name="Trazado 833068" d="M74.451,64.187c-.34-.34-.8-.6-.9-.958a1.27,1.27,0,0,1,.377-1.105,5.391,5.391,0,0,1,1.88-.881,1.251,1.251,0,0,1,1.065.492,1.2,1.2,0,0,1-.079,1.15,17.971,17.971,0,0,1-2.348,1.3" transform="translate(-60.647 -50.501)" fill="#12263f"/>
        <path id="Trazado_833069" data-name="Trazado 833069" d="M216.886,64.2a18.9,18.9,0,0,1-2.376-1.315,1.2,1.2,0,0,1-.061-1.15,1.256,1.256,0,0,1,1.075-.472,5.392,5.392,0,0,1,1.878.886,1.3,1.3,0,0,1,.357,1.113c-.079.336-.525.587-.873.938" transform="translate(-176.775 -50.515)" fill="#12263f"/>
        <path id="Trazado_833070" data-name="Trazado 833070" d="M69.893,9.445a23.131,23.131,0,0,1,2.218.683.884.884,0,0,1,.492,1.3,1.6,1.6,0,0,1-1.18.622,3.476,3.476,0,0,1-1.735-.5,1.48,1.48,0,0,1-.613-1.168c.045-.364.566-.668.819-.936" transform="translate(-56.966 -7.79)" fill="#12263f"/>
        <path id="Trazado_833071" data-name="Trazado 833071" d="M148.851,126.79a1,1,0,0,1,1.09,1.013,1.037,1.037,0,0,1-2.073.066,1,1,0,0,1,.983-1.079" transform="translate(-121.956 -104.572)" fill="#12263f"/>
      </g>
    </g>
  </g>
</svg>
