<svg xmlns="http://www.w3.org/2000/svg" xmlns:xlink="http://www.w3.org/1999/xlink" width="250.718" height="167.095" viewBox="0 0 250.718 167.095">
  <defs>
    <clipPath id="clip-path">
      <rect id="Rectángulo_379781" data-name="Rectángulo 379781" width="250.718" height="167.094" transform="translate(0 0)" fill="none"/>
    </clipPath>
  </defs>
  <g id="Grupo_1081161" data-name="Grupo 1081161" transform="translate(0 0.001)">
    <g id="Grupo_1081160" data-name="Grupo 1081160" transform="translate(0 -0.001)" clip-path="url(#clip-path)">
      <path id="Trazado_832837" data-name="Trazado 832837" d="M1477.4,959.272a.549.549,0,0,0,.575.071,7.877,7.877,0,0,1,3.688-.183l1.755,4.545a7.874,7.874,0,0,1-2.854,2.344.55.55,0,0,0-.379.439l-.591,3.784a.551.551,0,0,0,.226.534,7.873,7.873,0,0,1,2,3.1l-3.059,3.793a7.874,7.874,0,0,1-3.456-1.3.55.55,0,0,0-.57-.108l-3.573,1.38a.55.55,0,0,0-.349.463,7.875,7.875,0,0,1-1.685,3.286l-4.814-.752a7.874,7.874,0,0,1-.6-3.643.55.55,0,0,0-.191-.547l-2.981-2.4a.551.551,0,0,0-.576-.071,7.872,7.872,0,0,1-3.688.183l-1.755-4.545a7.877,7.877,0,0,1,2.854-2.343.549.549,0,0,0,.378-.439l.592-3.784a.549.549,0,0,0-.227-.534,7.876,7.876,0,0,1-2-3.1l3.058-3.793a7.874,7.874,0,0,1,3.457,1.3.55.55,0,0,0,.57.108l3.573-1.38a.55.55,0,0,0,.349-.463,7.876,7.876,0,0,1,1.686-3.286l4.814.753a7.877,7.877,0,0,1,.6,3.643.549.549,0,0,0,.191.547Zm-10.157,2.925a4.8,4.8,0,1,0,6.2,2.747,4.8,4.8,0,0,0-6.2-2.747m-1.109-2.871a7.876,7.876,0,1,0,10.184,4.509,7.876,7.876,0,0,0-10.184-4.509" transform="translate(-1253.325 -820.251)" fill="#9bc1f9"/>
      <path id="Trazado_832838" data-name="Trazado 832838" d="M1623.58,794.769a.56.56,0,0,0,.416.418,8.019,8.019,0,0,1,3.069,2.171l-1.45,4.743a8.018,8.018,0,0,1-3.759.084.56.56,0,0,0-.579.114l-2.851,2.659a.56.56,0,0,0-.154.57,8.018,8.018,0,0,1-.346,3.744l-4.833,1.116a8.02,8.02,0,0,1-1.952-3.213.56.56,0,0,0-.388-.445l-3.729-1.14a.56.56,0,0,0-.571.151,8.016,8.016,0,0,1-3.415,1.573l-3.383-3.628a8.021,8.021,0,0,1,1.807-3.3.56.56,0,0,0,.191-.559l-.877-3.8a.56.56,0,0,0-.417-.418,8.019,8.019,0,0,1-3.069-2.171l1.45-4.743a8.02,8.02,0,0,1,3.759-.084.56.56,0,0,0,.579-.114l2.852-2.659a.559.559,0,0,0,.154-.57,8.018,8.018,0,0,1,.346-3.744l4.833-1.116a8.016,8.016,0,0,1,1.952,3.213.559.559,0,0,0,.388.445l3.729,1.14a.56.56,0,0,0,.571-.152,8.016,8.016,0,0,1,3.415-1.572l3.383,3.628a8.018,8.018,0,0,1-1.807,3.3.56.56,0,0,0-.191.559Zm-9.973-4.04a4.885,4.885,0,1,0,3.243,6.1,4.885,4.885,0,0,0-3.243-6.1m.916-3a8.018,8.018,0,1,0,5.323,10.012,8.018,8.018,0,0,0-5.323-10.012" transform="translate(-1376.347 -672.463)" fill="#f9bcab"/>
      <path id="Trazado_832839" data-name="Trazado 832839" d="M1260.637,590.244a1.05,1.05,0,0,0,.917-.622c.8-1.788,3.546-3.96,5.072-4.9l8.236,4.328c.092,1.789-.137,5.287-1.157,6.956a1.05,1.05,0,0,0,.008,1.107l3.906,6.183a1.051,1.051,0,0,0,1,.483c1.946-.2,5.2,1.091,6.778,1.943l.37,9.3c-1.5.975-4.647,2.525-6.6,2.476a1.05,1.05,0,0,0-.955.56l-3.4,6.474a1.051,1.051,0,0,0,.08,1.1c1.15,1.583,1.656,5.051,1.706,6.842l-7.866,4.969c-1.6-.814-4.51-2.762-5.446-4.48a1.049,1.049,0,0,0-.963-.547l-7.308.291a1.05,1.05,0,0,0-.916.622c-.8,1.788-3.546,3.96-5.072,4.9l-8.236-4.328c-.093-1.789.137-5.287,1.157-6.956a1.05,1.05,0,0,0-.008-1.107l-3.905-6.183a1.05,1.05,0,0,0-1-.483c-1.946.2-5.2-1.091-6.778-1.944l-.37-9.3c1.5-.975,4.647-2.525,6.6-2.476a1.05,1.05,0,0,0,.955-.56l3.4-6.474a1.05,1.05,0,0,0-.08-1.1c-1.15-1.583-1.656-5.051-1.706-6.842l7.866-4.968c1.6.815,4.51,2.762,5.446,4.48a1.05,1.05,0,0,0,.963.547Zm-10.926,16.971a9.163,9.163,0,1,0,12.374-3.849,9.163,9.163,0,0,0-12.374,3.849m-5.2-2.734a15.039,15.039,0,1,0,20.309-6.317,15.039,15.039,0,0,0-20.309,6.317" transform="translate(-1059.759 -503.842)" fill="#cadeb4"/>
      <path id="Trazado_832840" data-name="Trazado 832840" d="M67.145,1133.135s-.323,3.425-1.155,4.054-1.94,2.955-1.386,4.213a1.406,1.406,0,0,0,.914.747,2.4,2.4,0,0,0,2.908-1.421,7.466,7.466,0,0,0,.57-2.612,9.757,9.757,0,0,1,.956-4.2Z" transform="translate(-55.54 -976.395)" fill="#f7a491"/>
      <path id="Trazado_832841" data-name="Trazado 832841" d="M173.24,1143.268a30.115,30.115,0,0,1,.049,4.579c-.114.6-.748,1.839-.457,2.406a1.491,1.491,0,0,0,.624.707l7.541.127c.411.007.14-.268-.192-.522a15.063,15.063,0,0,0-2.711-1.561c-.113-.057-.524-.329-.673-.423a5.291,5.291,0,0,1-1.079-.992c-.541-.628-.589-3.671-.589-3.671Z" transform="translate(-148.86 -985.126)" fill="#f7a491"/>
      <path id="Trazado_832842" data-name="Trazado 832842" d="M173.992,805.762s.95,5.611.326,9.29S170.7,852.83,170.7,852.83l-3.326.2s-.7-14.244-.572-16.225a31.773,31.773,0,0,1,1.112-5.3l-.331-11.5,4.2-15.108Z" transform="translate(-143.718 -693.559)" fill="#355389"/>
      <path id="Trazado_832843" data-name="Trazado 832843" d="M90.209,794.693a26.135,26.135,0,0,0-3.242,7.5c-.623,3.4.458,13.832-.742,18.281-.649,2.409-3.11,6.129-3.484,9.242S80.9,840.982,80.9,840.982l3.324.686L91.949,821.3l6.06-18.405,1.552-9.479Z" transform="translate(-69.71 -683.671)" fill="#466eb6"/>
      <path id="Trazado_832844" data-name="Trazado 832844" d="M68.654,1173.724a3.658,3.658,0,0,1-3.644-1.585,3.777,3.777,0,0,0-.4,2.872,2.137,2.137,0,0,0,3.561-.137,6.412,6.412,0,0,0,.487-1.15" transform="translate(-55.54 -1010.004)" fill="#3c8f7c"/>
      <path id="Trazado_832845" data-name="Trazado 832845" d="M177.315,1180.573a6.573,6.573,0,0,1-4.293-.176,3.736,3.736,0,0,0-.345,1.869c.183.556.444.727.674.734,1.822.05,6.673.072,8.062.091a.237.237,0,0,0,.176-.388,35.887,35.887,0,0,0-4.274-2.129" transform="translate(-148.755 -1017.12)" fill="#3c8f7c"/>
      <path id="Trazado_832846" data-name="Trazado 832846" d="M73.26,556.191c-.589-3.84-4.063-6.6-7.7-4.738a8.623,8.623,0,0,0-2.488,1.994c-1.552,1.992-1.928,4.461-3.574,6.377-1.419,1.652-5.205,1.34-6.974,2.61a7.65,7.65,0,0,0-3.008,6.273c0,3.047.688,6.282,3.049,8.208a9.732,9.732,0,0,0,8.652,1.59,13.923,13.923,0,0,0,7.267-5.266,26.569,26.569,0,0,0,4-8.044,20.793,20.793,0,0,0,.774-9" transform="translate(-42.67 -474.66)" fill="#184655"/>
      <path id="Trazado_832847" data-name="Trazado 832847" d="M32.373,472.97s-4.461-7.962-5.546-9.654-3.912-8.418-4.013-8.683,1.947-3.448,1.49-3.557-.963,1.678-1.451,1.465-1.912-4.515-2.19-4.3c-.52.4.768,2.669.491,2.812s-1.117-2.5-1.662-2.419,1.035,2.419.883,2.626-1.792-2-2.089-1.529c-.161.255,1.508,1.926,1.187,2.082s-1.805-.922-1.963-.611,1.373.737,1.831,1.575,1.237,1.2,1.561,2.753.807,7.17,2.465,9.973,5.3,9.006,5.3,9.006Z" transform="translate(-15.078 -386.23)" fill="#f79c8d"/>
      <path id="Trazado_832848" data-name="Trazado 832848" d="M193.536,695.43l-3.576,2.055s6.786,8.933,7.177,9.341l2.856-2.526Z" transform="translate(-163.684 -599.235)" fill="#f48c7f"/>
      <path id="Trazado_832849" data-name="Trazado 832849" d="M182.442,656.827s2.775.529,6.234,9.1l-4.755,2.545-3.389-5.263Z" transform="translate(-155.559 -565.972)" fill="#f47458"/>
      <path id="Trazado_832850" data-name="Trazado 832850" d="M241.024,660.817s-.627-.18-1.663.711c-1.279,1.1-1.352,9.551-1.015,12.505l.336,2.954a5.437,5.437,0,0,0,3.22-4.088,110.907,110.907,0,0,0,.848-11.422Z" transform="translate(-205.229 -569.398)" fill="#f48c7f"/>
      <path id="Trazado_832851" data-name="Trazado 832851" d="M130.173,650.429s-3.5-.222-4.878,1.282,3.068,13.4,3.319,15.318-2.063,5.732-2.063,5.732,9.62,4.5,11.967,2.948c0,0-.376-15.343-.628-16.71a40.4,40.4,0,0,0-2.85-7.476c-.5-.547-4.867-1.094-4.867-1.094" transform="translate(-107.734 -560.449)" fill="#f7cc7f"/>
      <path id="Trazado_832852" data-name="Trazado 832852" d="M162.644,616.319s-.018.1-.051.278a26.43,26.43,0,0,1-1.161,4.386c-.49.924,1.677,3.872,3.763,3.512.621-.107-.525-2.709-.47-2.984.105-.527.248-1.247.395-1.985l.245-1.235c.223-1.127.405-2.049.405-2.049Z" transform="translate(-139.041 -531)" fill="#f7a491"/>
      <path id="Trazado_832853" data-name="Trazado 832853" d="M169.673,616.6c.032-.175.051-.278.051-.278l3.126-.078s-.182.922-.405,2.049l-.243,1.228a2.931,2.931,0,0,1-1.492-.747,3.938,3.938,0,0,1-1.131-1.678c.039-.2.071-.367.095-.5" transform="translate(-146.121 -531)" fill="#f47458"/>
      <path id="Trazado_832854" data-name="Trazado 832854" d="M164.493,565.489a2.821,2.821,0,0,0-2.4,1.022c-.923,1.192-1.919,4.878.375,6.883s4.561-.264,4.9-2.67.467-5.322-2.875-5.235" transform="translate(-138.787 -487.261)" fill="#f7a491"/>
      <path id="Trazado_832855" data-name="Trazado 832855" d="M203.7,594.943c-.274.531-.734.826-1.027.657s-.309-.736-.035-1.267.733-.826,1.027-.657.309.735.035,1.267" transform="translate(-174.442 -511.515)" fill="#f7a491"/>
      <path id="Trazado_832856" data-name="Trazado 832856" d="M156.074,562.459s-1.968,3.506-3.377,3.668-1.593,2.025-1.593,2.025.5-4.292,1.9-5.12a5.186,5.186,0,0,1,3.072-.572" transform="translate(-130.204 -484.625)" fill="#184655"/>
      <path id="Trazado_832857" data-name="Trazado 832857" d="M156.115,589.412c.115.622-.116,1.194-.514,1.275s-.815-.357-.929-.979.116-1.193.514-1.275.815.357.929.979" transform="translate(-133.252 -507.03)" fill="#f7a491"/>
      <path id="Trazado_832858" data-name="Trazado 832858" d="M94.294,608.426s4.934,5.3,5.668,7.429-.715,5.187-2.716,5.32-6.453-9.4-6.453-9.4Z" transform="translate(-78.234 -524.266)" fill="#fae0b2"/>
      <path id="Trazado_832859" data-name="Trazado 832859" d="M249.137,666.052h-3.413a3.544,3.544,0,0,0-3.461,3.621v51.284H252.6V669.673a3.544,3.544,0,0,0-3.461-3.621" transform="translate(-208.752 -573.921)" fill="#466eb6"/>
      <rect id="Rectángulo_379737" data-name="Rectángulo 379737" width="4.011" height="54.904" transform="translate(36.673 92.131)" fill="#86b1f2"/>
      <path id="Trazado_832860" data-name="Trazado 832860" d="M262.863,1159.454h0a1.506,1.506,0,0,0,1.453-1.216l1.168-5.431h-5.166l1.087,5.41a1.507,1.507,0,0,0,1.458,1.238" transform="translate(-224.31 -993.345)" fill="#b75742"/>
      <path id="Trazado_832861" data-name="Trazado 832861" d="M244.76,1075.4h5.166l2.672-12.426H242.262Z" transform="translate(-208.752 -915.943)" fill="#fae0b2"/>
      <path id="Trazado_832862" data-name="Trazado 832862" d="M250.579,666.052h-6.3a2.066,2.066,0,0,0-2.018,2.111v7.516H252.6v-7.516a2.066,2.066,0,0,0-2.018-2.111" transform="translate(-208.751 -573.921)" fill="#f47458"/>
      <path id="Trazado_832863" data-name="Trazado 832863" d="M237.847,737.921h11.4a.093.093,0,0,0,.093-.093v-2.081a.093.093,0,0,0-.093-.093h-11.4a.093.093,0,0,0-.093.093v2.081a.093.093,0,0,0,.093.093" transform="translate(-204.867 -633.895)" fill="#86b1f2"/>
      <path id="Trazado_832864" data-name="Trazado 832864" d="M721.548,53.267l-1.645.4-1.1-2.021-2.5.349-1.139-1.405-.9.456,1.524,1.879,2.365-.331,1.149,2.1,2.475-.6Z" transform="translate(-615.464 -43.591)" fill="#50bfa5"/>
      <path id="Trazado_832865" data-name="Trazado 832865" d="M894.154,20.271l-1.015-2.4-2.552-.525a.358.358,0,0,1-.163-.621l1.969-1.707-.29-2.589a.358.358,0,0,1,.541-.346l2.232,1.345,2.373-1.076a.358.358,0,0,1,.5.407l-.59,2.538,1.757,1.925a.358.358,0,0,1-.234.6l-2.6.224L894.8,20.309a.358.358,0,0,1-.641-.037" transform="translate(-767.151 -10.366)" fill="#f7cc7f"/>
      <path id="Trazado_832866" data-name="Trazado 832866" d="M236.952,1194.3H.938a.928.928,0,0,0-.936.847.908.908,0,0,0,.905.968H236.952a.907.907,0,1,0,0-1.815" transform="translate(0 -1029.101)" fill="#184655"/>
      <path id="Trazado_832867" data-name="Trazado 832867" d="M494.961,482.331H364.9a11.285,11.285,0,0,1-11.285-11.285V377.127A11.285,11.285,0,0,1,364.9,365.842h130.06a11.285,11.285,0,0,1,11.285,11.285v93.919a11.285,11.285,0,0,1-11.285,11.285" transform="translate(-304.702 -315.237)" fill="#466eb6"/>
      <path id="Trazado_832868" data-name="Trazado 832868" d="M518.665,495.863H383.736a5.948,5.948,0,0,1-5.948-5.948V391.566a5.948,5.948,0,0,1,5.948-5.948H518.665a5.948,5.948,0,0,1,5.948,5.948v98.349a5.948,5.948,0,0,1-5.948,5.948" transform="translate(-325.531 -332.278)" fill="#184655"/>
      <path id="Trazado_832869" data-name="Trazado 832869" d="M353.615,1157.258v3.953c0,1.692,3.637,3.064,8.123,3.064H517.723c4.486,0,8.123-1.372,8.123-3.064v-3.953Z" transform="translate(-304.702 -997.181)" fill="#355389"/>
      <rect id="Rectángulo_379738" data-name="Rectángulo 379738" width="126.96" height="94.597" transform="translate(62.379 57.153)" fill="#96d9c9"/>
      <rect id="Rectángulo_379739" data-name="Rectángulo 379739" width="115.99" height="82.622" transform="translate(66.719 64.65)" fill="#f47458"/>
      <rect id="Rectángulo_379740" data-name="Rectángulo 379740" width="108.858" height="88.856" transform="translate(66.41 58.416)" fill="#86b1f2"/>
      <rect id="Rectángulo_379741" data-name="Rectángulo 379741" width="103.25" height="7.233" transform="translate(68.548 62.422)" fill="#9bc1f9"/>
      <rect id="Rectángulo_379742" data-name="Rectángulo 379742" width="90.288" height="139.225" transform="translate(66.719 0)" fill="#fff"/>
      <rect id="Rectángulo_379743" data-name="Rectángulo 379743" width="83.32" height="7.299" transform="translate(69.1 60.568)" fill="#f9bcab"/>
      <rect id="Rectángulo_379744" data-name="Rectángulo 379744" width="35.545" height="1.557" transform="translate(73.369 74.662)" fill="#96d9c9"/>
      <rect id="Rectángulo_379745" data-name="Rectángulo 379745" width="33.081" height="1.557" transform="translate(116.633 74.662)" fill="#96d9c9"/>
      <rect id="Rectángulo_379746" data-name="Rectángulo 379746" width="35.545" height="1.557" transform="translate(73.369 78.598)" fill="#96d9c9"/>
      <rect id="Rectángulo_379747" data-name="Rectángulo 379747" width="33.081" height="1.557" transform="translate(116.633 78.598)" fill="#96d9c9"/>
      <rect id="Rectángulo_379748" data-name="Rectángulo 379748" width="35.545" height="1.557" transform="translate(73.369 82.534)" fill="#96d9c9"/>
      <rect id="Rectángulo_379749" data-name="Rectángulo 379749" width="33.081" height="1.557" transform="translate(116.633 82.534)" fill="#96d9c9"/>
      <rect id="Rectángulo_379750" data-name="Rectángulo 379750" width="35.545" height="1.557" transform="translate(73.369 86.47)" fill="#96d9c9"/>
      <rect id="Rectángulo_379751" data-name="Rectángulo 379751" width="33.081" height="1.557" transform="translate(116.633 86.47)" fill="#96d9c9"/>
      <rect id="Rectángulo_379752" data-name="Rectángulo 379752" width="33.081" height="1.556" transform="translate(116.633 90.406)" fill="#96d9c9"/>
      <rect id="Rectángulo_379753" data-name="Rectángulo 379753" width="35.545" height="1.556" transform="translate(73.369 90.406)" fill="#96d9c9"/>
      <rect id="Rectángulo_379754" data-name="Rectángulo 379754" width="35.545" height="1.557" transform="translate(73.369 94.342)" fill="#96d9c9"/>
      <rect id="Rectángulo_379755" data-name="Rectángulo 379755" width="33.081" height="1.557" transform="translate(116.633 94.342)" fill="#96d9c9"/>
      <rect id="Rectángulo_379756" data-name="Rectángulo 379756" width="35.545" height="1.557" transform="translate(73.369 98.278)" fill="#96d9c9"/>
      <rect id="Rectángulo_379757" data-name="Rectángulo 379757" width="33.081" height="1.557" transform="translate(116.633 98.278)" fill="#96d9c9"/>
      <rect id="Rectángulo_379758" data-name="Rectángulo 379758" width="35.545" height="1.557" transform="translate(73.369 102.214)" fill="#96d9c9"/>
      <rect id="Rectángulo_379759" data-name="Rectángulo 379759" width="33.081" height="1.557" transform="translate(116.633 102.214)" fill="#96d9c9"/>
      <rect id="Rectángulo_379760" data-name="Rectángulo 379760" width="35.545" height="1.557" transform="translate(73.369 106.15)" fill="#96d9c9"/>
      <rect id="Rectángulo_379761" data-name="Rectángulo 379761" width="33.081" height="1.557" transform="translate(116.633 106.15)" fill="#96d9c9"/>
      <rect id="Rectángulo_379762" data-name="Rectángulo 379762" width="35.545" height="1.556" transform="translate(73.369 110.086)" fill="#96d9c9"/>
      <rect id="Rectángulo_379763" data-name="Rectángulo 379763" width="33.081" height="1.556" transform="translate(116.633 110.086)" fill="#96d9c9"/>
      <rect id="Rectángulo_379764" data-name="Rectángulo 379764" width="33.081" height="1.556" transform="translate(116.633 114.022)" fill="#96d9c9"/>
      <rect id="Rectángulo_379765" data-name="Rectángulo 379765" width="35.545" height="1.556" transform="translate(73.369 114.022)" fill="#96d9c9"/>
      <rect id="Rectángulo_379766" data-name="Rectángulo 379766" width="35.545" height="1.556" transform="translate(73.369 117.958)" fill="#96d9c9"/>
      <rect id="Rectángulo_379767" data-name="Rectángulo 379767" width="33.081" height="1.556" transform="translate(116.633 117.958)" fill="#96d9c9"/>
      <rect id="Rectángulo_379768" data-name="Rectángulo 379768" width="33.081" height="1.556" transform="translate(116.633 121.894)" fill="#96d9c9"/>
      <rect id="Rectángulo_379769" data-name="Rectángulo 379769" width="35.545" height="1.556" transform="translate(73.369 121.894)" fill="#96d9c9"/>
      <rect id="Rectángulo_379770" data-name="Rectángulo 379770" width="28.054" height="1.557" transform="translate(120.878 7.713)" fill="#96d9c9"/>
      <rect id="Rectángulo_379771" data-name="Rectángulo 379771" width="28.054" height="1.556" transform="translate(120.878 11.649)" fill="#96d9c9"/>
      <rect id="Rectángulo_379772" data-name="Rectángulo 379772" width="28.054" height="1.556" transform="translate(120.878 15.585)" fill="#96d9c9"/>
      <rect id="Rectángulo_379773" data-name="Rectángulo 379773" width="28.054" height="1.556" transform="translate(120.878 19.521)" fill="#96d9c9"/>
      <rect id="Rectángulo_379774" data-name="Rectángulo 379774" width="28.054" height="1.556" transform="translate(120.878 23.457)" fill="#96d9c9"/>
      <rect id="Rectángulo_379775" data-name="Rectángulo 379775" width="28.054" height="1.557" transform="translate(121.002 30.176)" fill="#96d9c9"/>
      <rect id="Rectángulo_379776" data-name="Rectángulo 379776" width="28.054" height="1.556" transform="translate(121.002 34.112)" fill="#96d9c9"/>
      <rect id="Rectángulo_379777" data-name="Rectángulo 379777" width="28.054" height="1.557" transform="translate(121.002 38.048)" fill="#96d9c9"/>
      <rect id="Rectángulo_379778" data-name="Rectángulo 379778" width="28.054" height="1.557" transform="translate(121.002 41.984)" fill="#96d9c9"/>
      <rect id="Rectángulo_379779" data-name="Rectángulo 379779" width="28.054" height="1.556" transform="translate(121.002 45.92)" fill="#96d9c9"/>
      <rect id="Rectángulo_379780" data-name="Rectángulo 379780" width="38.336" height="47.495" transform="translate(75.121 8.088)" fill="#96d9c9"/>
      <path id="Trazado_832870" data-name="Trazado 832870" d="M1075.932,715.955a3.139,3.139,0,0,1,1.539-.2,23.625,23.625,0,0,0,1.814-2.2s4.8-6.273,5.049-6.621l1.515-8.116,4.55-.035s-1.9,8.765-2.087,9.2-7.8,8.1-8.442,8.793c0,0-.417,1.132-.7,1.833a5.741,5.741,0,0,1-1.016,1.4,6.1,6.1,0,0,1-1.17,1.177c-.631.489-.3-.272-.3-.272s.977-1.123.863-1.19c-.088-.052-.581.6-1.273,1.144-.178.141-.354.28-.517.406-.428.331-.791.155-.408-.265a4.866,4.866,0,0,1,.559-.535,4.009,4.009,0,0,0,.49-.534,5.257,5.257,0,0,0,.5-.554c-.028-.008-.02-.115-.215.029a12.4,12.4,0,0,1-1,.879c-.208.129-.623.424-.623.424a4.735,4.735,0,0,1-.766.291c-.209-.195.207-.558.517-.7a3.316,3.316,0,0,1,.588-.487s.741-.81.611-.923a11.53,11.53,0,0,0-1.17.738c-.55.322-1.17.557-1.264.457-.16-.17.4-.594.4-.594s.414-.275.543-.377c.151-.12.572-.514.572-.514s1.389-1.443,1.257-1.54a1.143,1.143,0,0,0-.684-.172c-.122.058-.274.281-.4.339a.387.387,0,0,1-.445-.115c-.1-.144.351-.65.351-.65a2.014,2.014,0,0,1,.757-.516" transform="translate(-925.049 -602.125)" fill="#f48c7f"/>
      <path id="Trazado_832871" data-name="Trazado 832871" d="M1119.587,1119.228s-.042,2.8-.041,2.806c.06.355.5,1.234.5,1.557,0,1.214-5.518-1.031-4.281-1.569.112-.049.7-.417.735-.83.057-.637.2-1.925.2-1.925Z" transform="translate(-961.27 -964.412)" fill="#f7a491"/>
      <path id="Trazado_832872" data-name="Trazado 832872" d="M1088.4,1139.036s1.3.371,1.959.464,1.538-.689,2.008-.478c.516.232.464,2.521.464,2.521s-6.624.095-8.868-.033c-.81-.046,1.789-1.61,4.438-2.475" transform="translate(-933.898 -981.437)" fill="#b75742"/>
      <path id="Trazado_832873" data-name="Trazado 832873" d="M1208.347,1119.228s.162,2.8.163,2.806c.06.355.294,1.234.294,1.557,0,1.214-5.518-1.031-4.281-1.569.112-.049.872-.692.909-1.105.057-.637.027-1.65.027-1.65Z" transform="translate(-1037.753 -964.412)" fill="#f7a491"/>
      <path id="Trazado_832874" data-name="Trazado 832874" d="M1175.4,1139.036s1.3.371,1.959.464,1.538-.689,2.007-.478c.516.232.5,2.489.5,2.489s-7.4.079-9.2,0c-.811-.036,2.084-1.61,4.733-2.475" transform="translate(-1008.615 -981.437)" fill="#b75742"/>
      <path id="Trazado_832875" data-name="Trazado 832875" d="M1124.984,826.985l-2.333.985-4.907,22.944.2,17.2,3.934.089s1.83-15.046,1.83-16.212,8.475-20.405,8.475-20.405Z" transform="translate(-963.133 -712.593)" fill="#355389"/>
      <path id="Trazado_832876" data-name="Trazado 832876" d="M1183.1,831.324s1.719,17.678,1.719,20.658,1.393,19.658,1.393,19.658l3.943-.022s.285-5.084.707-12.562c.066-1.171-.085-3.535,0-4.747.613-8.721,1.826-16.931,1.247-20.186a6.316,6.316,0,0,0-.61-2.239c-2.582-2.616-8.4-.559-8.4-.559" transform="translate(-1019.449 -715.67)" fill="#466eb6"/>
      <path id="Trazado_832877" data-name="Trazado 832877" d="M1148.329,658.044l4.771-.313s.235-4.176.235-6.168c0-2.417.752-5.979.458-5.913a5.826,5.826,0,0,0-2.912,1.835c-2.29,3.122-2.553,10.559-2.553,10.559" transform="translate(-989.487 -556.341)" fill="#f47458"/>
      <path id="Trazado_832878" data-name="Trazado 832878" d="M1159.018,644.19a12.791,12.791,0,0,1,3.437.885,9.472,9.472,0,0,1,1.7,1.878s-3.34,15.461-3.346,18.062c0,2.013.723,6.955.723,6.955s-10.095.624-13.918-.854a74.319,74.319,0,0,0,1.208-7.421c0-1.543,1.444-15.578,1.773-16.558a3.747,3.747,0,0,1,2.688-2.881,27.767,27.767,0,0,1,5.735-.066" transform="translate(-988.872 -554.972)" fill="#f7cc7f"/>
      <path id="Trazado_832879" data-name="Trazado 832879" d="M1200.018,613.3l.673,4.317s-2.46,5.141-3.928,4.695c-1.232-.374-.474-4.923-.474-4.923a12.148,12.148,0,0,0,.47-3.665c-.2-1.222,3.258-.424,3.258-.424" transform="translate(-1030.615 -528.247)" fill="#f7a491"/>
      <path id="Trazado_832880" data-name="Trazado 832880" d="M1200.589,613.728c-.2-1.222,3.258-.424,3.258-.424l.056.358a1.983,1.983,0,0,1-.375.6,4.614,4.614,0,0,1-3.025,1.331,6.479,6.479,0,0,0,.086-1.867" transform="translate(-1034.445 -528.248)" fill="#f47458"/>
      <path id="Trazado_832881" data-name="Trazado 832881" d="M1191.983,562.339c.1-.035.784,4.917-.518,6.28s-3.838,1.808-4.748.735c-1.006-1.187-.956-6.509,1.068-7.91s4.2.9,4.2.9" transform="translate(-1022.013 -483.392)" fill="#f7a491"/>
      <path id="Trazado_832882" data-name="Trazado 832882" d="M1193.058,544.926a5.651,5.651,0,0,1,2.95,1.636c.71.082,1.676.463,2.673,2.069a3.946,3.946,0,0,1-1.107,5.234,3.1,3.1,0,0,0-1.408,2.307l-.225-.636a3.494,3.494,0,0,1-.179-1.51,2.887,2.887,0,0,1,.231-.908c.343-.716-.737-1.193-1.04-1.789-.233-.459-.245-1.509-.612-2.268l-.439-.579a2.843,2.843,0,0,0-2-.55c-.99.216-.848-3.4,1.159-3.006" transform="translate(-1026.515 -469.523)" fill="#13375b"/>
      <path id="Trazado_832883" data-name="Trazado 832883" d="M1218.19,591.037c-.01.6.272,1.1.631,1.1s.658-.479.668-1.083-.272-1.1-.631-1.1-.658.479-.668,1.083" transform="translate(-1049.685 -508.349)" fill="#f7a491"/>
      <path id="Trazado_832884" data-name="Trazado 832884" d="M1126.475,747.9l-.065.368a.355.355,0,0,1-.411.284l-7.8-1.323a.349.349,0,0,1-.29-.4l.065-.369a.355.355,0,0,1,.411-.284l7.8,1.323a.349.349,0,0,1,.29.4" transform="translate(-963.268 -642.954)" fill="#13375b"/>
      <path id="Trazado_832885" data-name="Trazado 832885" d="M1152.854,659.382c-.915-.026-1.725,5.886-1.145,6.47s.691,7.865.691,7.865l-8.636-.21v0c-.168-.111-1.978-1.3-2.236-1.56a2.12,2.12,0,0,0-1.939.239c-.349.375.776.068,1.086.273s-.233.716-.233.716-2.189.311-2.615-.132-1.567-1.194-1.722-.75c-.08.229.508.922.839,1.213-.413-.3-.908-.625-1.078-.569-.31.1-.181.489-.013.6s1.905,1.412,2.177,1.5,4.306.186,5,.338c0,0,11.389,2.539,12.036,2.381.568-.139,1.136-3.708,1.136-6.442s-.491-11.857-3.352-11.938" transform="translate(-978.585 -568.173)" fill="#f7a491"/>
      <path id="Trazado_832886" data-name="Trazado 832886" d="M1243.282,649.631a6.982,6.982,0,0,1,3.239,2.17c1.5,1.647,2.439,10.868,2.439,10.868l-5.168.818-.413-4.461-1.381-2.04Z" transform="translate(-1070.201 -559.771)" fill="#f7cc7f"/>
      <path id="Trazado_832887" data-name="Trazado 832887" d="M592.059,146.981l-3.272,9.909H584.58l10.7-31.5h4.908l10.75,31.5H606.6l-3.366-9.909Zm10.33-3.178-3.085-9.068c-.7-2.057-1.169-3.926-1.636-5.749h-.093c-.467,1.87-.982,3.786-1.589,5.7L592.9,143.8Z" transform="translate(-503.719 -108.043)" fill="#f9bcab"/>
      <path id="Trazado_832888" data-name="Trazado 832888" d="M1270.052,100.988c5.176,2.13,6.843-2.524,6.713-2.4a13.711,13.711,0,0,1,1.375-.69c2.075-1.017,2.013-4.605,1.966-6.985,2.976-1.812,3.723-5.284,1.681-7.4.628-2.358.761-3.842-1.345-5.037-1.595-2.78-6.063-1.837-8.231.344a6.156,6.156,0,0,0-1.719,4.34,5.855,5.855,0,0,0-3.307,6.707c-3.443,2.834-2.416,8.952,2.867,11.126" transform="translate(-1090.178 -66.135)" fill="#13375b"/>
      <path id="Trazado_832889" data-name="Trazado 832889" d="M1347.049,211.452c-.416-.41-1.147-.774-1.1-.834.173-.244,1.981,1.626,1.863,1.1-.066-.293-1.36-1.82-1.819-1.878s-3.329-.51-3.329-.51L1336,204.9s-.33-5.238,1.084-8.766a6.843,6.843,0,0,0-3.437-.45c-.907,3.579-1.882,9.608-.7,11.365.5.739,9.155,3.6,9.155,3.6a20.534,20.534,0,0,0,2.223.727c.265.017.994-.044,1.35.011.809.126,1.812,1.329,1.88,1.19a1.578,1.578,0,0,0-.5-1.123" transform="translate(-1148.096 -168.576)" fill="#f48c7f"/>
      <path id="Trazado_832890" data-name="Trazado 832890" d="M1311.883,172.416a23.461,23.461,0,0,0-1.27-2.076,4.851,4.851,0,0,0-2.326-1.743s-.561.011-1.2.043a.513.513,0,0,1-.121.215c-.242.182-1.629-.053-2.525.557-3,2.583-2.172,15.1-1.936,19.055l7.5.032s.5-8.453,2.354-10.638c1.294-1.522.461-3.728-.467-5.445" transform="translate(-1122.086 -145.276)" fill="#f7cc7f"/>
      <path id="Trazado_832891" data-name="Trazado 832891" d="M1374.912,348.352a24.793,24.793,0,0,1,1.973-3.78c1.236-1.625,11.923-16.342,11.483-19.924-.192-1.564-4.823-2.891-5.373-2.985-2.947.4.149,2.932-2.065,5.018,1.439.492,2.288,1.107,1.977,1.512-1.245,1.62-7.861,14.677-8.149,14.846-1.281.751-1.783.4-1.783.4s.295,7.344.906,7.112.123-.532,1.03-2.2" transform="translate(-1183.061 -277.169)" fill="#f48c7f"/>
      <path id="Trazado_832892" data-name="Trazado 832892" d="M1369.067,476.639l1.236,7.4c.278.958.745.947.865.819a11.82,11.82,0,0,0,.389-3.363c-.557-1.714-.5-4.94-.161-5.3a5.818,5.818,0,0,0-2.329.45" transform="translate(-1179.692 -410.32)" fill="#355389"/>
      <path id="Trazado_832893" data-name="Trazado 832893" d="M1401.006,325.683c1.659-2.749,1.57-2.4,4.456-3.644a41.776,41.776,0,0,1,5.517,3.339l-6.155,4.464c.2-.5-1.943-2.978-3.818-4.159" transform="translate(-1207.213 -277.493)" fill="#f7a491"/>
      <path id="Trazado_832894" data-name="Trazado 832894" d="M1336.934,135.224a21.875,21.875,0,0,1-.854,4.478c-.168.291,1.931,2.747,3.829,3.316s-.58-1.934-.5-2.869.424-5.366.424-5.366Z" transform="translate(-1151.26 -116.137)" fill="#f7a491"/>
      <path id="Trazado_832895" data-name="Trazado 832895" d="M1344.155,136.052c.056-.733.1-1.271.1-1.271l-2.9.443s-.073.423-.154,1.022a2.375,2.375,0,0,0,2.955-.193" transform="translate(-1155.68 -116.137)" fill="#f47458"/>
      <path id="Trazado_832896" data-name="Trazado 832896" d="M1333.747,90.212a3.29,3.29,0,0,0-1.847,1.338c-.705,1.08-1.189,4.258,1.134,5.742s4.129-.615,4.159-2.662-.407-4.779-3.445-4.418" transform="translate(-1147.164 -77.706)" fill="#f7a491"/>
      <path id="Trazado_832897" data-name="Trazado 832897" d="M1370.461,110.691c-.2.494-.591.8-.878.685s-.359-.61-.16-1.1.591-.8.878-.685.359.61.161,1.1" transform="translate(-1179.902 -94.408)" fill="#f7a491"/>
      <path id="Trazado_832898" data-name="Trazado 832898" d="M1326.746,115.8c.168.532.014,1.056-.344,1.17s-.786-.225-.954-.757-.014-1.056.344-1.17.786.225.954.757" transform="translate(-1142.048 -99.115)" fill="#f7a491"/>
      <path id="Trazado_832899" data-name="Trazado 832899" d="M1308.613,304.282c-1.282-.118-5.526-.549-5.526-.549l-7.528-1.012a19.156,19.156,0,0,0-1.382,5.173c-.091,3.489,2.539,4.8,5.285,4.634,1.634-.1,11.259-.371,13.274.653.373-2.842.8-5.922,2.718-7.967-3.067-.421-5.1-.772-6.84-.932" transform="translate(-1115.158 -260.847)" fill="#184655"/>
      <path id="Trazado_832900" data-name="Trazado 832900" d="M1388.063,368.038c.206-.214,1.858-11.511,2.854-16.253a3.986,3.986,0,0,1,1.99-2.68l5.37-2.931c1.86,1.7-6.821,20.811-7.615,22.814a26.156,26.156,0,0,0-.931,4.4c-.447,1.954.135,2.12-.42,2.529s-3.046-6.723-3.046-6.723.707-.03,1.8-1.158" transform="translate(-1194.512 -298.29)" fill="#f7a491"/>
      <path id="Trazado_832901" data-name="Trazado 832901" d="M1387.56,314.356h0a.553.553,0,0,0,.584.516l9.121.022a.861.861,0,0,0,.753-.625l-.166.111a.554.554,0,0,0-.584-.516l-9.121-.022a.553.553,0,0,0-.586.514" transform="translate(-1195.627 -270.43)" fill="#355389"/>
      <path id="Trazado_832902" data-name="Trazado 832902" d="M1451.63,237.892a1.3,1.3,0,0,1-.165-.01c-.472-.06-.782-.361-.691-.673l3.481-12.046a.919.919,0,0,1,1.018-.457c.472.06.782.361.692.673l-3.481,12.046a.855.855,0,0,1-.854.468" transform="translate(-1250.083 -193.614)" fill="#355389"/>
      <path id="Trazado_832903" data-name="Trazado 832903" d="M1327.808,235.132c-.522-.261-1.331-.38-1.309-.451.089-.286,2.409,1.193,2.133.729-.154-.258-1.879-1.57-2.333-1.482s-3.323.546-3.323.546l-7.418-2.681a28.035,28.035,0,0,1-1.163-8.406,10.533,10.533,0,0,0-4.218.908c.247,3.684,1.188,9.718,2.852,11.023.7.549,9.819.583,9.819.583a20.559,20.559,0,0,0,2.339,0c.257-.066.931-.35,1.287-.408.808-.131,2.135.7,2.157.549a1.58,1.58,0,0,0-.823-.913" transform="translate(-1128.948 -192.487)" fill="#f7a491"/>
      <path id="Trazado_832904" data-name="Trazado 832904" d="M1312.07,175.175c-.1-1.166-.246-2.34-1.435-2.844a2.486,2.486,0,0,0-2.285.106,3.313,3.313,0,0,0-1.209,2.466,35.378,35.378,0,0,0-.2,6.249c1.473-.609,3.476-.287,5.092-.318a21.683,21.683,0,0,0,.037-5.66" transform="translate(-1126.107 -148.298)" fill="#fae0b2"/>
      <path id="Trazado_832905" data-name="Trazado 832905" d="M1427.545,300.291a8.49,8.49,0,0,1,1.248.333c.9.564.824.809-.55.22a.271.271,0,0,0-.11-.022l-.652.007a.273.273,0,1,1,.065-.538" transform="translate(-1229.787 -258.746)" fill="#f7a491"/>
      <path id="Trazado_832906" data-name="Trazado 832906" d="M1388.638,509.256s.121.846.247,1.614a4.3,4.3,0,0,1-.345,2.381c-.278.371-3.557-7.316-3.557-7.316a.581.581,0,0,1,.147-.677,4.73,4.73,0,0,1,1.77-.924s-.139,3.948,1.738,4.921" transform="translate(-1193.362 -434.573)" fill="#466eb6"/>
    </g>
  </g>
</svg>
