<svg xmlns="http://www.w3.org/2000/svg" xmlns:xlink="http://www.w3.org/1999/xlink" width="62" height="62" viewBox="0 0 62 62">
  <defs>
    <clipPath id="clip-path">
      <rect id="Rect치ngulo_379564" data-name="Rect치ngulo 379564" width="34.046" height="33.434" fill="#12263f"/>
    </clipPath>
  </defs>
  <g id="Grupo_1080953" data-name="Grupo 1080953" transform="translate(-769 -10941)">
    <g id="Grupo_1080532" data-name="Grupo 1080532" transform="translate(248 -1965)">
      <g id="Grupo_1014855" data-name="Grupo 1014855" transform="translate(136.001 10848)">
        <path id="Uni칩n_12" data-name="Uni칩n 12" d="M31,0A31,31,0,1,1,0,31,31,31,0,0,1,31,0Z" transform="translate(384.999 2058)" fill="#cadeb4"/>
      </g>
    </g>
    <g id="Grupo_1080949" data-name="Grupo 1080949" transform="translate(783 10955)">
      <g id="Grupo_1080948" data-name="Grupo 1080948" clip-path="url(#clip-path)">
        <path id="Trazado_832310" data-name="Trazado 832310" d="M19.2,0c.475.043,1.061.07,1.638.156a18.528,18.528,0,0,1,2,.392,13.271,13.271,0,0,1,2.856,1.127,14.484,14.484,0,0,1,6.02,5.96,14,14,0,0,1,1.423,3.957,13.707,13.707,0,0,1,.272,2.688,13.887,13.887,0,0,1-.236,2.651,14.891,14.891,0,0,1-.564,2.146c-.175.5-.406.976-.6,1.466a.384.384,0,0,0-.017.246c.3.9.62,1.79.929,2.685.182.526.357,1.054.538,1.58.148.43.3.859.451,1.288a2.22,2.22,0,0,1-2.85,2.852c-1.1-.385-2.21-.757-3.315-1.134-.749-.255-1.5-.511-2.248-.758a.419.419,0,0,0-.262.007c-.476.185-.942.4-1.421.57a13.726,13.726,0,0,1-2.564.645,12.747,12.747,0,0,1-1.717.167.286.286,0,0,0-.2.093,10.445,10.445,0,0,1-4.467,3.437,12.055,12.055,0,0,1-2.185.619,12.208,12.208,0,0,1-2.877.1,1.678,1.678,0,0,1-.243-.049c-.366-.07-.734-.128-1.1-.211a10,10,0,0,1-1.875-.646.389.389,0,0,0-.325,0c-.392.146-.79.274-1.186.41q-1.18.406-2.36.812a2.146,2.146,0,0,1-1.39.1A1.849,1.849,0,0,1,.06,31.144c.107-.417.263-.822.4-1.231.208-.609.42-1.216.631-1.824.093-.269.184-.54.285-.806a.647.647,0,0,0-.011-.507c-.14-.335-.281-.671-.4-1.014a11.469,11.469,0,0,1-.538-3.479,9.436,9.436,0,0,1,.107-1.015A9.024,9.024,0,0,1,1.075,19,10.4,10.4,0,0,1,4.5,14.313a.33.33,0,0,0,.137-.276c.021-.4.048-.8.092-1.2A14.015,14.015,0,0,1,8.1,5.06,14.213,14.213,0,0,1,13.9.975,13.025,13.025,0,0,1,16.358.29C16.9.2,17.45.129,18,.069,18.36.03,18.725.026,19.2,0M6.671,14.382c.019.365.018.939.086,1.5a11.692,11.692,0,0,0,.632,2.634A12.446,12.446,0,0,0,11.332,24a12.156,12.156,0,0,0,2.622,1.6,11.2,11.2,0,0,0,3.124.92c.442.057.878.136,1.327.154a12.613,12.613,0,0,0,4.015-.447,13.289,13.289,0,0,0,2.357-.931.95.95,0,0,1,.642-.1,7.35,7.35,0,0,1,.79.236q2.52.859,5.038,1.724c.17.058.336.127.509.175s.284-.037.264-.22a1.184,1.184,0,0,0-.06-.254q-.445-1.3-.895-2.595-.58-1.682-1.159-3.364a.834.834,0,0,1,.024-.645c.054-.117.1-.236.16-.352a12.209,12.209,0,0,0,1.231-4.255,13.661,13.661,0,0,0-.033-2.812,11.905,11.905,0,0,0-.32-1.621,11.478,11.478,0,0,0-1.3-3.091,12.41,12.41,0,0,0-3.92-4.077,11.43,11.43,0,0,0-1.885-1.007,12.254,12.254,0,0,0-2.543-.764,13.815,13.815,0,0,0-2.5-.211c-.156,0-.313.017-.469.026a11.993,11.993,0,0,0-1.726.194,12.5,12.5,0,0,0-2.155.625,12.281,12.281,0,0,0-2.857,1.6A12.62,12.62,0,0,0,8.471,7.942a12.337,12.337,0,0,0-1.536,3.807,15.2,15.2,0,0,0-.264,2.633M4.838,16.695a.4.4,0,0,0-.044.033,8.676,8.676,0,0,0-1.232,1.661A8.322,8.322,0,0,0,2.54,23.551a11.76,11.76,0,0,0,.246,1.285,9.152,9.152,0,0,0,.667,1.691,1.006,1.006,0,0,1,.038.778q-.165.483-.331.965-.51,1.473-1.019,2.946a.373.373,0,0,0,0,.114.4.4,0,0,0,.091-.01c.5-.175.995-.356,1.495-.528.791-.272,1.586-.532,2.374-.812a1.133,1.133,0,0,1,.908.048c.058.027.118.052.177.077.287.124.568.264.862.369a9.506,9.506,0,0,0,1.617.4,7.972,7.972,0,0,0,2.147.061,8.194,8.194,0,0,0,1.855-.405,8.654,8.654,0,0,0,3.087-1.859,1.462,1.462,0,0,0,.115-.138A14.437,14.437,0,0,1,4.838,16.695" transform="translate(0)" fill="#12263f"/>
        <path id="Trazado_832311" data-name="Trazado 832311" d="M115.1,120.664h-5.849a1.237,1.237,0,0,1-.75-.193.944.944,0,0,1-.432-.966.974.974,0,0,1,.8-.831,2.266,2.266,0,0,1,.48-.048q5.766,0,11.532,0a2.142,2.142,0,0,1,.609.1.994.994,0,0,1,.666.969,1.015,1.015,0,0,1-.865.932,3.142,3.142,0,0,1-.55.035q-2.821,0-5.642,0Z" transform="translate(-96.073 -105.47)" fill="#12263f"/>
        <path id="Trazado_832312" data-name="Trazado 832312" d="M115.075,81.221c1.964,0,3.927,0,5.891,0a1.763,1.763,0,0,1,.553.1.973.973,0,0,1,0,1.837,1.608,1.608,0,0,1-.526.094q-5.877.008-11.754,0a1.089,1.089,0,0,1-1.05-.562.986.986,0,0,1,.671-1.423,2.714,2.714,0,0,1,.549-.047q2.835,0,5.67,0" transform="translate(-96.084 -72.215)" fill="#12263f"/>
        <path id="Trazado_832313" data-name="Trazado 832313" d="M112.772,158.334c-1.208,0-2.415,0-3.623,0a1.03,1.03,0,0,1-.963-.558.985.985,0,0,1,.868-1.44q1.279-.013,2.558-.013,2.275,0,4.549,0a4.877,4.877,0,0,1,.523.033,1,1,0,0,1,.835.937.943.943,0,0,1-.37.786,1.039,1.039,0,0,1-.685.254h-3.692" transform="translate(-96.085 -138.988)" fill="#12263f"/>
      </g>
    </g>
  </g>
</svg>
