<svg xmlns="http://www.w3.org/2000/svg" xmlns:xlink="http://www.w3.org/1999/xlink" width="62" height="62" viewBox="0 0 62 62">
  <defs>
    <clipPath id="clip-path">
      <rect id="Rect치ngulo_379565" data-name="Rect치ngulo 379565" width="28.614" height="36.306" fill="#12263f"/>
    </clipPath>
  </defs>
  <g id="Grupo_1080957" data-name="Grupo 1080957" transform="translate(-1183 -10941)">
    <g id="Grupo_1080533" data-name="Grupo 1080533" transform="translate(414 -1965)">
      <g id="Grupo_1014857" data-name="Grupo 1014857" transform="translate(384.001 10848)">
        <path id="Uni칩n_12" data-name="Uni칩n 12" d="M31,0A31,31,0,1,1,0,31,31,31,0,0,1,31,0Z" transform="translate(384.999 2058)" fill="#cadeb4"/>
      </g>
    </g>
    <g id="Grupo_1080956" data-name="Grupo 1080956" transform="translate(422.184 -8.309)">
      <g id="Grupo_1080955" data-name="Grupo 1080955" transform="translate(777.816 10961.309)">
        <g id="Grupo_1080954" data-name="Grupo 1080954" clip-path="url(#clip-path)">
          <path id="Trazado_832314" data-name="Trazado 832314" d="M0,20.084Q0,12.729,0,5.375A1.4,1.4,0,0,1,.635,4.122a1.542,1.542,0,0,1,.873-.207q2.716,0,5.432,0a.325.325,0,0,0,.311-.17c.66-1,1.335-1.986,1.989-2.988A1.6,1.6,0,0,1,10.687,0q3.636,0,7.271,0a1.543,1.543,0,0,1,1.384.717c.671,1.018,1.357,2.026,2.031,3.042a.315.315,0,0,0,.3.158q2.733-.006,5.466,0a1.409,1.409,0,0,1,.987.317,1.526,1.526,0,0,1,.484,1.06c0,.05,0,.1,0,.152q0,14.667,0,29.334A1.414,1.414,0,0,1,28.057,36a1.535,1.535,0,0,1-.88.3c-.332.009-.663,0-1,0H1.535A1.438,1.438,0,0,1,0,34.776Q0,27.43,0,20.084M2.593,6.49v.754q0,13.022,0,26.044c0,.413,0,.413.407.413H25.862c.043,0,.087,0,.144-.008V6.49ZM10.228,3.9h8.137a.247.247,0,0,0-.016-.061c-.26-.394-.518-.788-.786-1.177a.242.242,0,0,0-.174-.066c-.275-.005-.551,0-.826,0q-2.58-.007-5.161-.019c-.207,0-.369.033-.459.247a1.8,1.8,0,0,1-.185.281l-.53.793" transform="translate(0 0)" fill="#12263f"/>
          <path id="Trazado_832315" data-name="Trazado 832315" d="M47.42,149.019c-.1.11-.2.226-.3.331a1.274,1.274,0,0,1-2.13-.381,1.16,1.16,0,0,1,.244-1.341c.363-.384.745-.75,1.119-1.123.493-.492.983-.989,1.483-1.475a1.227,1.227,0,0,1,1.829-.011c.87.847,1.734,1.7,2.581,2.57a1.268,1.268,0,0,1-.63,2.144,1.233,1.233,0,0,1-1.2-.363c-.111-.11-.216-.227-.359-.377V155h.592c.669,0,1.338.008,2.007-.011a1.313,1.313,0,0,1,1.265,1.052,1.25,1.25,0,0,1-.83,1.412,2.053,2.053,0,0,1-.655.121q-1.762.017-3.525,0a1.441,1.441,0,0,1-1.19-.565,1.329,1.329,0,0,1-.244-.842q0-3.466,0-6.931v-.194l-.051-.03" transform="translate(-39.643 -127.757)" fill="#12263f"/>
          <path id="Trazado_832316" data-name="Trazado 832316" d="M52.607,70.85a3.893,3.893,0,0,1-3.87,3.865,3.873,3.873,0,1,1,3.87-3.865m-3.877,1.272a1.238,1.238,0,0,0,1.291-1.269,1.281,1.281,0,0,0-1.286-1.308,1.3,1.3,0,0,0-1.3,1.352,1.274,1.274,0,0,0,1.291,1.225" transform="translate(-39.625 -59.162)" fill="#12263f"/>
          <path id="Trazado_832317" data-name="Trazado 832317" d="M141.752,215.183a3.852,3.852,0,0,1-3.781,3.884,3.875,3.875,0,1,1,3.781-3.884m-5.152,0a1.266,1.266,0,0,0,1.3,1.329,1.289,1.289,0,0,0,1.277-1.344,1.325,1.325,0,0,0-1.274-1.269,1.276,1.276,0,0,0-1.3,1.284" transform="translate(-118.379 -186.684)" fill="#12263f"/>
          <path id="Trazado_832318" data-name="Trazado 832318" d="M146.665,114.814c-.314-.329-.615-.631-.9-.949a2.315,2.315,0,0,1-.377-.53,1.26,1.26,0,0,1,.966-1.746,1.209,1.209,0,0,1,1.046.3c.335.308.651.637.973.958a.938.938,0,0,1,.089.132c.189-.183.35-.338.509-.495.18-.178.353-.363.537-.535a1.283,1.283,0,0,1,2.126.472,1.124,1.124,0,0,1-.2,1.2c-.319.354-.665.685-1,1.024a.8.8,0,0,1-.145.094c.356.359.678.68.995,1.006a1.372,1.372,0,0,1,.427.888,1.328,1.328,0,0,1-.782,1.249,1.268,1.268,0,0,1-1.388-.266q-.457-.437-.894-.894c-.1-.109-.174-.12-.285-.007q-.466.476-.949.934a1.2,1.2,0,0,1-1.126.295,1.263,1.263,0,0,1-.746-2c.313-.387.692-.721,1.043-1.077a.393.393,0,0,1,.084-.058" transform="translate(-128.342 -98.564)" fill="#12263f"/>
        </g>
      </g>
    </g>
  </g>
</svg>
