<svg xmlns="http://www.w3.org/2000/svg" xmlns:xlink="http://www.w3.org/1999/xlink" width="190" height="226.889" viewBox="0 0 190 226.889">
  <defs>
    <clipPath id="clip-path">
      <rect id="Rectángulo_379360" data-name="Rectángulo 379360" width="187.609" height="195.844" fill="none"/>
    </clipPath>
  </defs>
  <g id="Grupo_1080561" data-name="Grupo 1080561" transform="translate(-285 -2061.111)">
    <ellipse id="Elipse_5953" data-name="Elipse 5953" cx="95" cy="27" rx="95" ry="27" transform="translate(285 2234)" fill="#c1cdf5"/>
    <g id="Grupo_1080560" data-name="Grupo 1080560" transform="translate(287.391 2061.111)">
      <g id="Grupo_1080559" data-name="Grupo 1080559" transform="translate(0 0)" clip-path="url(#clip-path)">
        <path id="Trazado_831910" data-name="Trazado 831910" d="M90.562,24.41a22.6,22.6,0,0,0-2.943,2.176,33.118,33.118,0,0,1-4.267,3.371,42.141,42.141,0,0,1-6.22,3.6,36.155,36.155,0,0,0-6.407,3.705l-4.254,3.161c-1.22.907-2.752,1.862-4.159,1.282a2.779,2.779,0,0,1-1.544-1.953,5.158,5.158,0,0,1,.14-2.555,2.289,2.289,0,0,0,.14-1.025,1.885,1.885,0,0,0-.386-.737c-.89-1.195-2.117-2.282-2.415-3.784a11.973,11.973,0,0,1-.337-4.324,7.663,7.663,0,0,0,.239-1.65c-.068-1.589-1.559-2.663-2.638-3.83C53.778,19.969,53,17.2,52.672,14.726a17.371,17.371,0,0,1,.856-7.553,10.739,10.739,0,0,1,7.688-6.8,13.026,13.026,0,0,1,8.29.722,11.327,11.327,0,0,1,3.184,1.943A11.208,11.208,0,0,0,76.17,5.272c1.627.559,3.519.443,4.917,1.449,1.523,1.1,1.958,3.165,3.133,4.629a10.859,10.859,0,0,0,4.142,2.744,11.472,11.472,0,0,1,4.18,2.691c2.258,2.663.47,5.9-1.981,7.625" transform="translate(58.787 0.002)" fill="#101729"/>
        <path id="Trazado_831911" data-name="Trazado 831911" d="M69.258,21.723c-.121.2-.237.4-.352.6-.735,1.311-1.345,2.689-1.955,4.061-5.023,11.309-9.108,23.243-15.718,33.765C49.818,62.4,48.324,64.6,46.839,66.8a8.422,8.422,0,0,0-1.322,2.557c-.547,2.178,1,4.932,3.335,5.189,1.515.169,2.525-.824,3.655-1.7,1.263-.975,2.481-2,3.761-2.958,1.953-1.458,3.362-3.593,5-5.381.939-1.025,1.877-2.055,2.718-3.161a78.324,78.324,0,0,0,9.932-18.332c2.392-5.968,4.621-13.521,3.411-19.987C77,21.3,76.218,19.41,74.557,18.84a3.8,3.8,0,0,0-3.4.689,7.645,7.645,0,0,0-1.894,2.195" transform="translate(50.794 20.896)" fill="#ffa87d"/>
        <path id="Trazado_831912" data-name="Trazado 831912" d="M58.392,28.55c-.566,2.072-1.195,4.125-1.928,6.144a52.682,52.682,0,0,1-2.4,5.629c-.508,1.008-2.32,3.057-1.5,4.237.525.761,2.555,1.273,3.394,1.6a30.387,30.387,0,0,0,3.89,1.21,30.142,30.142,0,0,0,8.091.8.94.94,0,0,0,.534-.129c.426-.311.845-1.786,1.064-2.3.375-.89.678-1.805,1.047-2.7a49.088,49.088,0,0,0,2.165-6.337c1.106-4.288.691-8.313.75-12.644a11.694,11.694,0,0,0-.258-2.915A7.533,7.533,0,0,0,69,16.105c-5.741-2.513-8.059,1.909-9.186,6.754-.445,1.9-.909,3.805-1.424,5.691" transform="translate(58.558 17.203)" fill="#00be9c"/>
        <path id="Trazado_831913" data-name="Trazado 831913" d="M124.086,78.688a14.665,14.665,0,0,1-4.964.748q-16.5.559-33,.85a1.225,1.225,0,0,1-1.544-1.273c-.047-.284-.093-.572-.142-.858a53.483,53.483,0,0,0-6.949-18.741c-3.4-5.691-7.534-10.892-11.43-16.241-3.4-4.667-6.633-9.422-8.733-14.76a5.253,5.253,0,0,1-.428-3.693,5.456,5.456,0,0,1,1.837-2.146c1.924-1.561,3.962-3.023,6.036-4.43,1.919-1.309,3.871-2.568,5.792-3.824A40.838,40.838,0,0,1,77.6,10.4a13.734,13.734,0,0,1,6.53-1.064c4.381.456,7.9,3,11.241,5.65a51.9,51.9,0,0,1,9.756,9.64,53.667,53.667,0,0,1,3.114,4.856,122.78,122.78,0,0,1,10.684,23.527,142.368,142.368,0,0,1,4.409,17.572,46.454,46.454,0,0,1,.822,5.449,13.931,13.931,0,0,1-.068,2.657" transform="translate(63.426 10.378)" fill="#00be9c"/>
        <path id="Trazado_831914" data-name="Trazado 831914" d="M72.218,20.924c-.869,3.4-1.833,6.767-2.752,10.148-3.631-3.316-7.271-7.362-8.722-12.159a5.5,5.5,0,0,1-.214-1,2.734,2.734,0,0,1-.023-.369c1.919-1.309,3.873-2.57,5.792-3.824a40.765,40.765,0,0,1,7.04-3.915,4.746,4.746,0,0,1,.362,1.479c.352,3.328-.672,6.468-1.483,9.638" transform="translate(67.684 10.972)" fill="#ffa87d"/>
        <path id="Trazado_831915" data-name="Trazado 831915" d="M69.539,15.4a57.007,57.007,0,0,1-5.176,2.864,18.242,18.242,0,0,1-2.394.9,40.125,40.125,0,0,0,5.86,6.458c.917-3.381,1.883-6.756,2.75-10.148.068-.265.138-.53.208-.792-.419.235-.835.472-1.248.716" transform="translate(69.32 16.425)" fill="#fff"/>
        <path id="Trazado_831916" data-name="Trazado 831916" d="M60.275,17.711c.538.638,1.074,1.275,1.614,1.913l.053.061c.182.214.379.424.568.64a5.476,5.476,0,0,1,.451.574c.2.3.254.525.593.718a3.158,3.158,0,0,0,2.32.136,6.872,6.872,0,0,0,2.208-1.074,9.648,9.648,0,0,0,1.138-.958A21.982,21.982,0,0,0,71.7,16.648q.445-.626.883-1.258a1.556,1.556,0,0,0,.28-.534,1.538,1.538,0,0,0-.4-1.153A55.142,55.142,0,0,0,67.377,7.7a2.271,2.271,0,0,0-.748-.585c-.564-.22-1.184.3-1.53.714-.47.566-.614,1.343-1.091,1.9-.525.612-1.263,1.218-1.856,1.788a8.563,8.563,0,0,1-1.547.894,3.1,3.1,0,0,0-.964,1.153,2.9,2.9,0,0,0-.339.807,2.984,2.984,0,0,0-.081.811,3.468,3.468,0,0,0,.144.888,4.657,4.657,0,0,0,.909,1.646" transform="translate(66.245 7.898)" fill="#ffa87d"/>
        <path id="Trazado_831917" data-name="Trazado 831917" d="M60.275,15.67c.538.638,1.074,1.275,1.614,1.913l.053.061a3.21,3.21,0,0,0,.35-.008A5.88,5.88,0,0,0,66.921,13.6a4.774,4.774,0,0,0,.125-2.517c-.216-.886-1.03-2.422-2.161-2.178a10.242,10.242,0,0,0-2.288.881,9.671,9.671,0,0,0-1.83,1.11l-.023.017A9.042,9.042,0,0,0,59.3,12.325a2.984,2.984,0,0,0-.081.811,3.468,3.468,0,0,0,.144.888,4.657,4.657,0,0,0,.909,1.646" transform="translate(66.245 9.939)" fill="#e26e61"/>
        <path id="Trazado_831918" data-name="Trazado 831918" d="M53.779,9.073a4.625,4.625,0,0,1,.093-1.695,8.726,8.726,0,0,1,1.32-2.341,6.41,6.41,0,0,1,1-1.14A6.163,6.163,0,0,1,57.6,3a10.032,10.032,0,0,1,9.212.663,13.781,13.781,0,0,1,5.6,16.506,6.18,6.18,0,0,1-5.519,4.354c-4.273.049-7.57-3.822-9.7-7.064-1.534-2.335-2.943-4.646-3.309-7.477-.038-.286-.081-.6-.108-.913" transform="translate(60.121 2.434)" fill="#ffa87d"/>
        <path id="Trazado_831919" data-name="Trazado 831919" d="M86.479,25.955a3.244,3.244,0,0,1-.534.1c-1.074.106-2.294-.252-3.155.4-.246.189-.434.447-.686.629-.659.479-1.964.184-2.65-.074a3.112,3.112,0,0,1-1.742-1.583,13.2,13.2,0,0,0-.576-1.519c-.358-.589-1-.943-1.428-1.485a2.96,2.96,0,0,1-.466-2.517c.146-.591.441-1.138.568-1.735a4.581,4.581,0,0,0-.506-2.913c-.417-.871-.85-1.684-1.248-2.564-.633-1.4-1.464-3.169-3.085-3.6a7.713,7.713,0,0,0-1.451-.013,10.767,10.767,0,0,1-1.909-.326,30.932,30.932,0,0,1-3.7-1.318c-2.072-.831-4.271-1.621-6.485-1.33-1.436.186-1.663,1.627-1.97,2.841a14.291,14.291,0,0,0-.415,4.386,5.84,5.84,0,0,1-.068,2.042c-.275-.108-.53-.786-.64-1.053-.157-.377-.237-.773-.409-1.142a5.685,5.685,0,0,1-.646-2.3c0-.112-.006-.227,0-.339a9.635,9.635,0,0,1,5-7.879,13.942,13.942,0,0,1,3.352-1.074,8.564,8.564,0,0,1,4.987.015c1.733.661,2.909,2.047,4.489,2.922,2.2,1.218,4.144,2.712,6.441,3.805,1.269.6,2.538,1.21,3.818,1.794,2.515,1.148,4.447,3.265,7.064,4.237a17.374,17.374,0,0,1,2.3.867c2.705,1.475,3.4,6.18-.032,7.282a4.329,4.329,0,0,0-1.047.371c-.534.339-.746,1-1.081,1.536a3.546,3.546,0,0,1-2.089,1.54" transform="translate(59.596 1.363)" fill="#101729"/>
        <path id="Trazado_831920" data-name="Trazado 831920" d="M60.766,6.8a.968.968,0,0,0-1.019-.536.791.791,0,0,0-.585.655,1.067,1.067,0,0,0,.076.43,1.106,1.106,0,0,0,.729.816.741.741,0,0,0,.689-.225.839.839,0,0,0,.11-1.14" transform="translate(66.178 6.984)" fill="#101729"/>
        <path id="Trazado_831921" data-name="Trazado 831921" d="M55.562,8.314a3.075,3.075,0,0,0-.549,1.127,2.416,2.416,0,0,0-.066.648,3.329,3.329,0,0,0,.03.352s.034.282.068.22A7.046,7.046,0,0,1,57,8.155c.227-.161,1.2-.581.655-1.042-.337-.284-.742-.011-.985.157a4.749,4.749,0,0,0-1.1,1.044" transform="translate(61.464 7.82)" fill="#101729"/>
        <path id="Trazado_831922" data-name="Trazado 831922" d="M60.432,5.266a3.782,3.782,0,0,1,1.424-.044,2.485,2.485,0,0,1,.665.212,3.638,3.638,0,0,1,.322.176s.25.153.172.161A9.361,9.361,0,0,0,59.4,6.58c-.3.15-1.3.909-1.409.184-.068-.443.447-.716.756-.881a6.783,6.783,0,0,1,1.686-.617" transform="translate(64.862 5.788)" fill="#101729"/>
        <path id="Trazado_831923" data-name="Trazado 831923" d="M56.006,9.548A.965.965,0,0,1,56.135,8.4.786.786,0,0,1,57,8.288a1.026,1.026,0,0,1,.314.305,1.1,1.1,0,0,1,.265,1.061.735.735,0,0,1-.572.441.836.836,0,0,1-1-.547" transform="translate(62.51 9.179)" fill="#101729"/>
        <path id="Trazado_831924" data-name="Trazado 831924" d="M62.83,10.286c0,.032-.006.064-.011.1a2.983,2.983,0,0,1-3.532,2.356,1.647,1.647,0,0,1-.733-.347.253.253,0,0,1-.091-.222.393.393,0,0,1,.189-.2q1.614-1.046,3.231-2.093c.57-.369.983-.15.947.411" transform="translate(65.394 10.844)" fill="#fff"/>
        <path id="Trazado_831925" data-name="Trazado 831925" d="M61.13,11.791c-.275.133-.549.267-.824.4a1.277,1.277,0,0,1-.659.182c-.6-.072-.678-.968-.8-1.422a25.122,25.122,0,0,0-1.2-3.475c-.061-.144-.483.133-.407.314a27.156,27.156,0,0,1,1.309,3.945c.131.506.377,1.053.987,1.011a2.04,2.04,0,0,0,.725-.229c.305-.146.61-.294.913-.441.078-.038.222-.165.195-.265s-.174-.051-.239-.019" transform="translate(64.02 8.318)" fill="#e26e61"/>
        <path id="Trazado_831926" data-name="Trazado 831926" d="M61.6,5.366a1.471,1.471,0,0,1,.1-.3,1.7,1.7,0,0,1,1.987-.833c1.792.517,2.174,3.051,1.718,4.572a2.43,2.43,0,0,1-.424.862,1.092,1.092,0,0,1-1.68.106A5.36,5.36,0,0,1,62.437,8.4a7.953,7.953,0,0,1-.71-1.657A2.83,2.83,0,0,1,61.6,5.366" transform="translate(68.862 4.667)" fill="#ffa87d"/>
        <path id="Trazado_831927" data-name="Trazado 831927" d="M55.3,2.8a.353.353,0,0,1,.286-.1c3.364.244,6.415,1.913,9.75,2.32a9.546,9.546,0,0,0,2.822-.044c.068-.011.182-.013.184.078s-.163.146-.225.157c-3.4.6-6.631-.894-9.849-1.748a15.85,15.85,0,0,0-2.919-.519c-.093-.006-.1-.085-.049-.146" transform="translate(61.823 3.022)" fill="#2b5a89"/>
        <path id="Trazado_831928" data-name="Trazado 831928" d="M59.5,2.935a5.266,5.266,0,0,0,3.519.606c.064-.011.191-.013.184.078s-.157.146-.225.157a5.666,5.666,0,0,1-3.792-.619c-.174-.1.193-.29.314-.222" transform="translate(66.158 3.269)" fill="#2b5a89"/>
        <path id="Trazado_831929" data-name="Trazado 831929" d="M59.775.781A.328.328,0,0,1,60.04.65a5.15,5.15,0,0,1,3.3,1.205c.117.1-.261.284-.373.189A4.815,4.815,0,0,0,59.9.9c-.072,0-.161-.03-.121-.117" transform="translate(66.855 0.728)" fill="#2b5a89"/>
        <path id="Trazado_831930" data-name="Trazado 831930" d="M64.706,14.387a4.544,4.544,0,0,1,.2-2.354,7.457,7.457,0,0,0,.629-2.356,3.5,3.5,0,0,0-1.011-2.441c-.114-.114.269-.292.373-.189a3.644,3.644,0,0,1,.989,1.9A4.037,4.037,0,0,1,65.63,11.1a7.62,7.62,0,0,0-.587,2.216,2.987,2.987,0,0,0,.629,2.121,2.02,2.02,0,0,0,1.951.752c.059-.017.208-.053.237.034s-.11.157-.167.172a2.478,2.478,0,0,1-2.987-2" transform="translate(72.153 7.851)" fill="#2b5a89"/>
        <path id="Trazado_831931" data-name="Trazado 831931" d="M65.548,9.984c0-.14.409-.25.409-.078A1.941,1.941,0,0,0,67.245,11.7c.093.032.025.131-.025.165a.335.335,0,0,1-.288.059,2.084,2.084,0,0,1-1.383-1.939" transform="translate(73.324 10.983)" fill="#2b5a89"/>
        <path id="Trazado_831932" data-name="Trazado 831932" d="M65.045,3.632a.353.353,0,0,1,.286-.1,3.074,3.074,0,0,1,2.591,2.214c.038.148-.369.28-.4.138a2.894,2.894,0,0,0-2.424-2.108c-.089-.011-.1-.085-.049-.146" transform="translate(72.726 3.953)" fill="#2b5a89"/>
        <path id="Trazado_831933" data-name="Trazado 831933" d="M70.218,8.123a3.764,3.764,0,0,1,2.072,3.661c-.013.144-.424.244-.409.078A3.631,3.631,0,0,0,69.9,8.346c-.176-.085.189-.284.314-.222" transform="translate(78.145 9.075)" fill="#2b5a89"/>
        <path id="Trazado_831934" data-name="Trazado 831934" d="M69.957,10.432a1.287,1.287,0,0,0-.064-1.053c-.015-.03.017-.074.034-.093a.306.306,0,0,1,.133-.078c.07-.023.195-.049.237.034a1.377,1.377,0,0,1,.068,1.112.28.28,0,0,1-.225.157.227.227,0,0,1-.136-.006c-.028-.011-.061-.04-.049-.072" transform="translate(78.18 10.275)" fill="#2b5a89"/>
        <path id="Trazado_831935" data-name="Trazado 831935" d="M56.09,16.731a6.194,6.194,0,0,1-.148-2.216,7.474,7.474,0,0,1,.227-1.1,2.723,2.723,0,0,0,.129-1.142c-.023-.157.383-.275.4-.138A6.052,6.052,0,0,1,56.4,14.11a6.078,6.078,0,0,0,.034,2.2c.246,1.216,1.011,3.072,2.525,2.981.076-.006.155.032.121.117s-.184.125-.265.131c-1.547.093-2.4-1.519-2.72-2.805" transform="translate(62.534 13.511)" fill="#2b5a89"/>
        <path id="Trazado_831936" data-name="Trazado 831936" d="M56.93,13.615c-.006-.138.4-.252.409-.078a2.025,2.025,0,0,0,1.447,1.8c.1.028.021.133-.025.165a.348.348,0,0,1-.29.057,2.164,2.164,0,0,1-1.54-1.945" transform="translate(63.683 15.045)" fill="#2b5a89"/>
        <path id="Trazado_831937" data-name="Trazado 831937" d="M53.219,5.514c.019-.144.43-.239.409-.078a9.769,9.769,0,0,0,1.328,6.294c.07.114-.32.275-.4.136a9.865,9.865,0,0,1-1.333-6.352" transform="translate(59.441 5.987)" fill="#2b5a89"/>
        <path id="Trazado_831938" data-name="Trazado 831938" d="M72.621,86.694a4.574,4.574,0,0,1,.123-1.782,3.1,3.1,0,0,1,1.807-1.78,7.134,7.134,0,0,1,2.561-.434,5.3,5.3,0,0,1,2.811.515c1.176.684,1.1,1.646,1.121,2.805q.1,4.869-.1,9.737-.051,1.217-.121,2.432c-.038.665.051,1.267-.464,1.748a3.162,3.162,0,0,1-2.847.585c-1.129-.3-2.72-.081-3.638-.913-.627-.568-.422-1.716-.485-2.487q-.137-1.707-.267-3.411-.267-3.473-.5-6.947l0-.068" transform="translate(81.202 92.505)" fill="#ffa87d"/>
        <path id="Trazado_831939" data-name="Trazado 831939" d="M87.277,95.851H67.994l0,0a1.012,1.012,0,0,1,.072-1.261,5.252,5.252,0,0,1,1.833-1.328,27.82,27.82,0,0,1,2.629-.994A22.388,22.388,0,0,0,75.555,90.9,11.509,11.509,0,0,1,78.2,89.43a1.3,1.3,0,0,1,.983.129,3.3,3.3,0,0,1,.691.65,4.535,4.535,0,0,0,1.767,1.248A4.3,4.3,0,0,0,85.047,91a1.21,1.21,0,0,1,.814-.267.943.943,0,0,1,.564.515,7.034,7.034,0,0,1,.915,3.36,9.053,9.053,0,0,1-.028.928c-.008.1-.021.21-.034.316" transform="translate(75.844 99.994)" fill="#4680d2"/>
        <path id="Trazado_831940" data-name="Trazado 831940" d="M87.277,93.107H67.994l0,0a1.012,1.012,0,0,1,.072-1.261l19.277.021a9.053,9.053,0,0,1-.028.928c-.008.1-.021.21-.034.316" transform="translate(75.844 102.738)" fill="#fff"/>
        <path id="Trazado_831941" data-name="Trazado 831941" d="M69.956,92.694c.089-.208.371-.273.568-.352a23.744,23.744,0,0,0,3.2-1.564q.871-.505,1.689-1.085a.354.354,0,0,1,.309-.04c.061.019.169.1.08.161a24.432,24.432,0,0,1-3.271,1.947c-.561.275-1.133.528-1.714.761a1.044,1.044,0,0,0-.39.18c-.1.117,0,.282.066.39.11.178.72.818.566,1.04-.239.35-.638-.32-.7-.46a3.156,3.156,0,0,0-.2-.371c-.11-.172-.29-.394-.2-.608" transform="translate(78.225 100.269)" fill="#101729"/>
        <path id="Trazado_831942" data-name="Trazado 831942" d="M71.84,89.727a.439.439,0,0,1,.174-.013.244.244,0,0,1,.136.057l.718.733c.07.072,0,.142-.081.163a.374.374,0,0,1-.174.013.25.25,0,0,1-.136-.055l-.718-.735c-.07-.072,0-.14.08-.163" transform="translate(80.241 100.353)" fill="#101729"/>
        <path id="Trazado_831943" data-name="Trazado 831943" d="M71.366,90.006a.348.348,0,0,1,.309.044,6.528,6.528,0,0,1,.642.684c.023.028.04.055.021.091a.173.173,0,0,1-.1.072.4.4,0,0,1-.174.011.239.239,0,0,1-.136-.053,6.546,6.546,0,0,0-.642-.686c-.072-.068.008-.142.083-.163" transform="translate(79.709 100.667)" fill="#101729"/>
        <path id="Trazado_831944" data-name="Trazado 831944" d="M70.745,90.329a.162.162,0,0,1,.1-.07.371.371,0,0,1,.174-.013.235.235,0,0,1,.136.055c.172.212.341.426.513.638.023.03.04.055.021.091a.174.174,0,0,1-.1.072.371.371,0,0,1-.174.011.222.222,0,0,1-.136-.055c-.169-.212-.341-.424-.513-.638-.021-.03-.04-.053-.021-.091" transform="translate(79.129 100.948)" fill="#101729"/>
        <path id="Trazado_831945" data-name="Trazado 831945" d="M70.247,90.485a.354.354,0,0,1,.309.042,3.563,3.563,0,0,1,.653.775.079.079,0,0,1-.023.091.267.267,0,0,1-.136.057c-.091.008-.225,0-.278-.085-.042-.068-.085-.133-.131-.2-.023-.034-.047-.064-.072-.1l-.013-.015-.015-.019-.036-.047a3.718,3.718,0,0,0-.339-.345c-.076-.066.008-.142.081-.163" transform="translate(78.457 101.201)" fill="#101729"/>
        <path id="Trazado_831946" data-name="Trazado 831946" d="M78.736,86.694a4.574,4.574,0,0,1,.123-1.782,3.106,3.106,0,0,1,1.807-1.78,7.134,7.134,0,0,1,2.561-.434,5.3,5.3,0,0,1,2.811.515c1.176.684,1.1,1.646,1.121,2.805q.1,4.869-.1,9.737-.051,1.217-.121,2.432c-.038.665.051,1.267-.464,1.748a3.162,3.162,0,0,1-2.847.585c-1.129-.3-2.72-.081-3.636-.913-.629-.568-.424-1.716-.487-2.487q-.137-1.707-.267-3.411-.267-3.473-.5-6.947l0-.068" transform="translate(88.043 92.505)" fill="#ffa87d"/>
        <path id="Trazado_831947" data-name="Trazado 831947" d="M93.392,95.851H74.109l0,0a1.012,1.012,0,0,1,.072-1.261,5.233,5.233,0,0,1,1.833-1.328,27.6,27.6,0,0,1,2.629-.994A22.387,22.387,0,0,0,81.67,90.9a11.553,11.553,0,0,1,2.644-1.47,1.307,1.307,0,0,1,.985.129,3.4,3.4,0,0,1,.689.65,4.535,4.535,0,0,0,1.767,1.248A4.3,4.3,0,0,0,91.162,91a1.214,1.214,0,0,1,.814-.267.943.943,0,0,1,.564.515,7.034,7.034,0,0,1,.915,3.36,9.053,9.053,0,0,1-.028.928c-.008.1-.021.21-.034.316" transform="translate(82.685 99.994)" fill="#4680d2"/>
        <path id="Trazado_831948" data-name="Trazado 831948" d="M93.392,93.107H74.109l0,0a1.012,1.012,0,0,1,.072-1.261l19.277.021a9.053,9.053,0,0,1-.028.928c-.008.1-.021.21-.034.316" transform="translate(82.685 102.738)" fill="#fff"/>
        <path id="Trazado_831949" data-name="Trazado 831949" d="M76.071,92.694c.089-.208.371-.273.568-.352a23.743,23.743,0,0,0,3.2-1.564q.871-.505,1.689-1.085a.354.354,0,0,1,.309-.04c.061.019.169.1.081.161a24.434,24.434,0,0,1-3.271,1.947c-.561.275-1.133.528-1.714.761a1.044,1.044,0,0,0-.39.18c-.1.117,0,.282.066.39.11.178.72.818.564,1.04-.237.35-.636-.32-.7-.46a3.152,3.152,0,0,0-.2-.371c-.11-.172-.29-.394-.2-.608" transform="translate(85.066 100.269)" fill="#101729"/>
        <path id="Trazado_831950" data-name="Trazado 831950" d="M77.955,89.727a.442.442,0,0,1,.174-.013.244.244,0,0,1,.136.057l.718.733c.07.072,0,.142-.081.163a.376.376,0,0,1-.174.013.25.25,0,0,1-.136-.055l-.718-.735c-.07-.072,0-.14.081-.163" transform="translate(87.082 100.353)" fill="#101729"/>
        <path id="Trazado_831951" data-name="Trazado 831951" d="M77.484,90.006a.344.344,0,0,1,.307.044,6.53,6.53,0,0,1,.642.684c.023.028.04.055.021.091a.168.168,0,0,1-.1.072.4.4,0,0,1-.174.011.227.227,0,0,1-.133-.053,6.8,6.8,0,0,0-.644-.686c-.072-.068.008-.142.085-.163" transform="translate(86.549 100.667)" fill="#101729"/>
        <path id="Trazado_831952" data-name="Trazado 831952" d="M76.861,90.329a.162.162,0,0,1,.1-.07.371.371,0,0,1,.174-.013.235.235,0,0,1,.136.055c.169.212.341.426.513.638.023.03.04.055.021.091a.174.174,0,0,1-.1.072.371.371,0,0,1-.174.011.222.222,0,0,1-.136-.055c-.169-.212-.341-.424-.513-.638-.021-.03-.04-.053-.021-.091" transform="translate(85.97 100.948)" fill="#101729"/>
        <path id="Trazado_831953" data-name="Trazado 831953" d="M76.362,90.485a.354.354,0,0,1,.309.042,3.564,3.564,0,0,1,.653.775.079.079,0,0,1-.023.091.267.267,0,0,1-.136.057c-.091.008-.225,0-.278-.085-.042-.068-.085-.133-.131-.2-.023-.034-.047-.064-.072-.1l-.011-.015-.017-.019-.036-.047a3.724,3.724,0,0,0-.339-.345c-.076-.066.008-.142.081-.163" transform="translate(85.297 101.201)" fill="#101729"/>
        <path id="Trazado_831954" data-name="Trazado 831954" d="M106.581,43.051c-.011-.356-.714-.458-1.125-.314a13.775,13.775,0,0,0-3.953-4.292c-2.112-1.358-4.716-1.053-7.011-.377A37.124,37.124,0,0,0,81.5,45.024c-.386-.049-.869.051-.934.35-2.778,12.945-5.578,25.909-7.97,38.934a53.1,53.1,0,0,0-1.057,9.835,50.589,50.589,0,0,0,1.121,9.407c1.258,6.475,2.625,12.928,3.941,19.39q2.247,11.037,4.5,22.072c.055.269.458.377.82.358l.03,0h9.523c1.409,0,2.824.036,4.233.078.684.019,2.225.4,2.839.053,1.506-.839.267-5.233.108-6.763q-.88-8.463-2.07-16.892-.839-5.943-1.833-11.864c-.589-3.511-1.672-7.176-1.689-10.746a14.045,14.045,0,0,1,.837-4.174c1.1-3.561,2.32-7.044,3.233-10.648q2.53-9.976,5.822-19.737a71.283,71.283,0,0,0,2.992-10.369,55,55,0,0,0,.64-11.258" transform="translate(80.025 41.943)" fill="#00be9c"/>
        <path id="Trazado_831955" data-name="Trazado 831955" d="M102.058,43.051c-.011-.356-.714-.458-1.127-.314a13.744,13.744,0,0,0-3.951-4.292c-2.112-1.358-4.716-1.053-7.011-.377a37.123,37.123,0,0,0-12.991,6.955c-.386-.049-.869.051-.934.35-2.778,12.945-5.578,25.909-7.97,38.934a53.1,53.1,0,0,0-1.057,9.835,50.591,50.591,0,0,0,1.121,9.407c1.258,6.475,2.625,12.928,3.941,19.39q2.247,11.037,4.5,22.072c.055.269.458.377.82.358l.03,0h9.523a46.7,46.7,0,0,0,8-.189c0-.411.112-.794.076-1.206q-.194-2.177-.4-4.352c-.455-6.833-1.4-13.648-2.256-20.43l-.14-1.1.032.35q-.772-6.168-1.614-12.326c-.568-4.153-1.155-7.839-.3-11.994.665-3.254,1.449-6.489,2.265-9.708q2.53-9.976,5.822-19.737a71.283,71.283,0,0,0,2.991-10.369,55,55,0,0,0,.64-11.258" transform="translate(74.966 41.943)" fill="#00be9c"/>
        <path id="Trazado_831956" data-name="Trazado 831956" d="M78.976,90.62a9.071,9.071,0,0,0-1.275.371q-.715.251-1.43.511a4.2,4.2,0,0,0-2.326,1.6c-.083.138.35.193.428.059a4.144,4.144,0,0,1,2.352-1.542l1.307-.462c.231-.083.93-.195.945-.532" transform="translate(82.705 101.366)" fill="#101729"/>
        <path id="Trazado_831957" data-name="Trazado 831957" d="M65.938,32.746Q62.82,28,60.177,22.966q-.75-1.43-1.46-2.879c-.081-.161-.6-.11-.513.072q2.5,5.1,5.485,9.938.849,1.373,1.735,2.72c.1.153.617.087.513-.072" transform="translate(65.097 22.363)" fill="#017f67"/>
        <path id="Trazado_831958" data-name="Trazado 831958" d="M107.4,49.258l-2.964-.006q-1.748-5.326-3.722-10.574-.559-1.484-1.138-2.964c-.059-.148-.494-.129-.519.021-.106.015-.2.059-.191.136q.372,5.466.244,10.951-.016.75-.044,1.5c-.019.506-.015,1.025-.068,1.528l-10.616.216c-3.627.072-7.256.138-10.883.242q-3.086.089-6.169.227c-.078,0-.267.023-.267.136s.193.14.267.138c3.642-.172,7.286-.267,10.932-.345q5.444-.118,10.89-.222,3.092-.06,6.184-.125c.078,0,.265-.023.265-.136a.11.11,0,0,0-.076-.1l.006-.021c.1-.886.081-1.8.106-2.689q.035-1.367.04-2.737.013-2.739-.106-5.477c-.03-.716-.07-1.432-.112-2.148q1.827,4.741,3.477,9.553.505,1.484,1,2.979a.078.078,0,0,0-.013.044c0,.11.191.136.265.136l3.218.006c.078,0,.267-.023.267-.136s-.193-.136-.267-.136" transform="translate(79.492 39.837)" fill="#017f67"/>
        <path id="Trazado_831959" data-name="Trazado 831959" d="M81.764,136.55a.433.433,0,0,0-.392-.03c-.015-.053-.087-.2-.1-.25-.04-.178-.074-.356-.11-.534-.078-.386-.159-.771-.237-1.157q-.229-1.112-.456-2.225l-.932-4.538q-.922-4.494-1.843-8.985c-1.233-6.013-2.483-12.021-3.7-18.036a79.032,79.032,0,0,1-1.39-8.758,54.681,54.681,0,0,1,.034-9.068,170.909,170.909,0,0,1,2.553-17.949c1.106-5.939,2.4-11.841,3.716-17.737q.245-1.1.487-2.189c.038-.163-.487-.2-.532,0-1.381,6.186-2.765,12.377-3.953,18.6a181.352,181.352,0,0,0-2.761,18.733,55.984,55.984,0,0,0-.085,9.517,81.839,81.839,0,0,0,1.485,9.282q1.919,9.426,3.866,18.845.969,4.716,1.936,9.432l.966,4.716.22,1.068a8.352,8.352,0,0,0,.242,1.174.728.728,0,0,0,.72.424c.225,0,.46-.121.261-.339" transform="translate(80.431 50.295)" fill="#017f67"/>
        <path id="Trazado_831960" data-name="Trazado 831960" d="M81.876,67.336q-.388,2.7-.623,5.428c-.017.18.515.195.532,0q.235-2.723.623-5.428c.025-.174-.5-.195-.532,0" transform="translate(90.892 75.17)" fill="#017f67"/>
        <path id="Trazado_831961" data-name="Trazado 831961" d="M86.574,38.6a36.907,36.907,0,0,1-10.9-1.983q-1.5-.515-2.958-1.161a.446.446,0,0,0-.375,0c-.089.051-.108.146,0,.193A37.806,37.806,0,0,0,83.318,38.64q1.624.184,3.256.231c.078,0,.267-.025.267-.136s-.193-.133-.267-.136" transform="translate(80.838 39.616)" fill="#017f67"/>
        <path id="Trazado_831962" data-name="Trazado 831962" d="M62.747,103.773h1.775V81.767h-4.97Z" transform="translate(66.617 91.468)" fill="#ffca60"/>
        <path id="Trazado_831963" data-name="Trazado 831963" d="M87.74,72.092v36.445a3.569,3.569,0,0,1-3.57,3.57H46.2a4.071,4.071,0,0,1-4.072-4.072V62.048A4.071,4.071,0,0,1,46.2,57.976H73.624A14.116,14.116,0,0,1,87.74,72.092" transform="translate(47.126 64.854)" fill="#4680d2"/>
        <path id="Trazado_831964" data-name="Trazado 831964" d="M111.058,75.058v29.553h-98.5V64.677h88.12a10.382,10.382,0,0,1,10.381,10.381" transform="translate(14.047 72.35)" fill="#4680d2"/>
        <path id="Trazado_831965" data-name="Trazado 831965" d="M95.346,75.222v29.553h-.621V75.222a10.081,10.081,0,0,0-10.07-10.07H27.514v-.621H84.656A10.7,10.7,0,0,1,95.346,75.222" transform="translate(30.778 72.187)" fill="#2b5a89"/>
        <path id="Trazado_831966" data-name="Trazado 831966" d="M97.645,94.415H13.953L8.891,51.777a8.788,8.788,0,0,1,6.335-9.39c.189-.053.381-.1.576-.14h0a8.628,8.628,0,0,1,1.811-.189H83.654a8.776,8.776,0,0,1,8.725,7.833Z" transform="translate(9.888 47.049)" fill="#4680d2"/>
        <path id="Trazado_831967" data-name="Trazado 831967" d="M60.757,76.922H42.128V76.3h17.93L57.889,57.975h.627Z" transform="translate(47.126 64.853)" fill="#2b5a89"/>
        <path id="Trazado_831968" data-name="Trazado 831968" d="M14.209,87.04c-.015.1-.025.206-.038.309H22.9l-.034-.309L18.838,49.76a9.041,9.041,0,0,0-6.068-7.612h0c-.195.04-.388.089-.578.142-.216.061-.428.131-.638.208.106.017.212.034.318.053a1.95,1.95,0,0,1,.379.08,8.425,8.425,0,0,1,5.972,7.2l3.985,36.9H14.243c-.013.106-.023.208-.034.311" transform="translate(12.922 47.149)" fill="#2b5a89"/>
        <path id="Trazado_831969" data-name="Trazado 831969" d="M25.588,86.965H12.711l-1.169-10.83-.07-.633L8.891,51.6a8.776,8.776,0,0,1,6.335-9.388,8.777,8.777,0,0,1,6.337,7.5L24.326,75.3l.068.621Z" transform="translate(9.888 47.224)" fill="#4680d2"/>
        <path id="Trazado_831970" data-name="Trazado 831970" d="M27.148,65.261a10.84,10.84,0,0,0-3.737-2.142,28.616,28.616,0,0,0,1.273,5.229c.153.436.3.867.466,1.284a11.159,11.159,0,0,0,1.417-.481c.756-.318,1.811-.75,1.85-1.708a3.184,3.184,0,0,0-1.269-2.182" transform="translate(26.188 70.608)" fill="#fff"/>
        <path id="Trazado_831971" data-name="Trazado 831971" d="M49.688,113.783a2.253,2.253,0,0,0-.822-1.2c-.485-.377-1.053-.631-1.572-.96-2.059-1.3-1.383-4.061-.646-5.985q5.46-14.25,10.922-28.5c.239-.621.477-1.244.665-1.883a1.614,1.614,0,0,0,.076-.888,1.465,1.465,0,0,0-.517-.689,7.458,7.458,0,0,0-4.14-1.557,41.209,41.209,0,0,0-4.489,0c-1.458.015-3.364-.578-4.767-.042-1.354.515-1.371,2.693-1.544,3.922q-1.446,10.287-2.61,20.618-.175,1.56-.345,3.119c-.263,2.428-.581,4.852-1.061,7.246-.464,2.3-1.466,4.422-1.5,6.805Z" transform="translate(41.771 80.373)" fill="#ffa87d"/>
        <path id="Trazado_831972" data-name="Trazado 831972" d="M51.139,92.185q1.192.543,2.422,1c.621.231,1.5.176,1.794.875a2.651,2.651,0,0,1,.144.956c.011.32.123.631-.2.75a4.551,4.551,0,0,1-1.072-.015c-.939.023-1.875.021-2.811.006-1.843-.032-3.686-.11-5.525-.21-1.489-.07-2.977-.14-4.466-.176-.744-.019-1.489-.028-2.233-.025a6.364,6.364,0,0,1-1.667-.042.549.549,0,0,1-.373-.216.559.559,0,0,1-.049-.29,17.3,17.3,0,0,1,.252-2.845c.114-.674.186-2.5,1.328-1.589.218.172.386.4.6.578a2.881,2.881,0,0,0,1.574.489,16.946,16.946,0,0,0,2.1.055,4.745,4.745,0,0,0,1.705-.3c.229-.1.57-.246.625-.508a4.425,4.425,0,0,0,.1-.987c-.008-.742.394-1.112.992-.553a14.491,14.491,0,0,0,1.411,1.286,19.508,19.508,0,0,0,3.35,1.765" transform="translate(41.5 99.407)" fill="#fff"/>
        <path id="Trazado_831973" data-name="Trazado 831973" d="M54.728,93.449H37.944a.957.957,0,1,1,0-1.913H54.728a.957.957,0,1,1,0,1.913" transform="translate(41.377 102.396)" fill="#101729"/>
        <path id="Trazado_831974" data-name="Trazado 831974" d="M58.481,113.922a2.265,2.265,0,0,0-.822-1.2c-1.034-.8-2.6-1.278-2.977-2.718-.343-1.294.481-3.18.792-4.441.873-3.536,1.9-7.03,2.97-10.511,2.114-6.873,4.4-13.705,6.021-20.718a2.273,2.273,0,0,0,.059-1.182c-.576-1.864-5.208-.913-6.568-.894-1.932.019-4.205-1.114-6.059-.121-1.712.919-1.4,3.625-1.6,5.3q-.953,8.453-1.746,16.924-.108,1.163-.212,2.322-.385,4.236-.725,8.477a25.3,25.3,0,0,1-.614,4.8,15.958,15.958,0,0,0-.873,3.962Z" transform="translate(51.607 80.235)" fill="#ffa87d"/>
        <path id="Trazado_831975" data-name="Trazado 831975" d="M60.186,92.185q1.192.543,2.422,1c.621.231,1.5.176,1.794.875a2.7,2.7,0,0,1,.146.956c.008.32.121.631-.206.75a4.551,4.551,0,0,1-1.072-.015c-.939.023-1.875.021-2.811.006-1.843-.032-3.686-.11-5.525-.21-1.489-.07-2.977-.14-4.466-.176-.744-.019-1.489-.028-2.233-.025a6.364,6.364,0,0,1-1.667-.042.549.549,0,0,1-.373-.216.559.559,0,0,1-.049-.29,17.534,17.534,0,0,1,.252-2.845c.114-.674.186-2.5,1.328-1.589.218.172.386.4.6.578a2.881,2.881,0,0,0,1.574.489,16.946,16.946,0,0,0,2.1.055,4.764,4.764,0,0,0,1.708-.3c.227-.1.568-.246.625-.508a4.55,4.55,0,0,0,.1-.987c-.008-.742.394-1.112.992-.553a14.491,14.491,0,0,0,1.411,1.286,19.509,19.509,0,0,0,3.35,1.765" transform="translate(51.62 99.407)" fill="#fff"/>
        <path id="Trazado_831976" data-name="Trazado 831976" d="M63.775,93.449H46.991a.957.957,0,0,1,0-1.913H63.775a.957.957,0,1,1,0,1.913" transform="translate(51.497 102.396)" fill="#101729"/>
        <path id="Trazado_831977" data-name="Trazado 831977" d="M23.275,65.988v.023c.021.767.074,1.536.159,2.3.038.35.081.7.133,1.044a28.294,28.294,0,0,0,1.273,5.231c.15.434.3.867.466,1.284a5.966,5.966,0,0,0,1.665,2.5,17.761,17.761,0,0,0,3.809,2.288A63.638,63.638,0,0,0,47.41,85.956c1.4.242,2.924.246,4.29.589.746.189.587.1.706.794.129.758.108,1.583.182,2.352q.118,1.268.271,2.528c.106.879.225,1.761.354,2.638s.275,1.778.428,2.665c.072.424-.006,1.339.358,1.617a1.571,1.571,0,0,0,.888.233c.964.057,1.928.074,2.888.057.208,0,.413-.008.619-.017,1.091-.032,2.178-.108,3.263-.214,1.869-.182,3.729-.462,5.587-.8l.61-.11c.282-.053.561-.106.843-.161,2.358-.455,4.714-.981,7.07-1.489.2-.044.4-.087.6-.129,2.949-.636,5.907-1.233,8.883-1.625q.305-.041.61-.076c.305-.038.608-.074.911-.108.536-.057,1.074-.106,1.612-.155,1.108-.1,3.7.307,4.3-.886.367-.737.121-2.189.144-3q.048-1.573.087-3.148c.1-4.269.138-8.544-.047-12.816a12.333,12.333,0,0,0-1.242-5.049,9.83,9.83,0,0,0-4.841-4.258,35.947,35.947,0,0,0-7.112-2.242l-.053-.013q-1.065-.254-2.133-.5-2.117-.505-4.235-1-1.376-.327-2.75-.653c-.68-.161-1.362-.322-2.042-.481L68.09,60.4a93.288,93.288,0,0,0-17.631-2.822c-.574-.023-1.148-.034-1.727-.034-.614,0-1.229.006-1.845.03-3.7.138-7.4.737-11.089.443-1.475-.121-2.962-.381-4.441-.46-.417-.021-.835-.03-1.254-.013a9.445,9.445,0,0,0-1.557.174,5.878,5.878,0,0,0-1.553.532c-2.739,1.392-3.794,4.729-3.718,7.735" transform="translate(26.032 64.365)" fill="#101729"/>
        <path id="Trazado_831978" data-name="Trazado 831978" d="M67.278,62.742a28.442,28.442,0,0,0-4.184-5.919c-2.142-2.458-4.561-4.655-6.864-6.96-1.278-1.282-2.521-2.6-3.763-3.909a53.94,53.94,0,0,0-4.941-5.182c-1.568-1.258-2.871-2.907-4.828-3.633a2,2,0,0,0-.864-.157,2.437,2.437,0,0,0-.53.138,3.53,3.53,0,0,0-1.767,1.544,7.215,7.215,0,0,0-.8,4.506,23.841,23.841,0,0,0,3.047,8.958c.771,1.426,1.625,2.805,2.5,4.169a46.239,46.239,0,0,0,2.858,4.085,30.825,30.825,0,0,0,4.591,4.229,36.369,36.369,0,0,0,5.672,4.08,16.117,16.117,0,0,0,4.568,1.729c1.407.284,3.242.566,4.553-.117a3.532,3.532,0,0,0,1.33-1.153,3.725,3.725,0,0,0,.553-2.083,9.972,9.972,0,0,0-1.129-4.326" transform="translate(43.274 41.364)" fill="#ffa87d"/>
        <path id="Trazado_831979" data-name="Trazado 831979" d="M58.626,52.913a8.306,8.306,0,0,1-1.318,1.57q-3.556,4.227-7.485,8.123c-.7.693-2.2-1.487-2.682-2.089a46.266,46.266,0,0,1-2.86-4.085c-.873-1.364-1.725-2.744-2.5-4.169a23.891,23.891,0,0,1-3.047-8.958,7.219,7.219,0,0,1,.8-4.508c.964-1.549,2.214-2.445,4-1.633a21.372,21.372,0,0,1,3.521,2.042,37.568,37.568,0,0,1,4.972,4.36,75.194,75.194,0,0,1,6.136,7.6c.034.051.068.1.1.148a2.708,2.708,0,0,1,.426.839,1.112,1.112,0,0,1-.074.763" transform="translate(43.274 41.231)" fill="#fff"/>
        <path id="Trazado_831980" data-name="Trazado 831980" d="M60.173,59.046a46.6,46.6,0,0,0-.8-10.034c-.46-2.106-.915-4.218-1.178-6.36a15.62,15.62,0,0,0-.805-4.32,2.68,2.68,0,0,0-.9-1.206,3.361,3.361,0,0,0-2.383-.248,7.432,7.432,0,0,0-2,.515,4.837,4.837,0,0,0-1.767,1.4,3.8,3.8,0,0,0-.288,2.356c.254,5.324.275,10.979-.943,16.184-.555,2.379-1.271,4.672-.748,7.119.642,2.992,3.309,7.663,6.987,6.22a6.264,6.264,0,0,0,2.653-2.178c2-2.691,2.157-6.22,2.167-9.445" transform="translate(53.9 41.145)" fill="#ffa87d"/>
        <path id="Trazado_831981" data-name="Trazado 831981" d="M58.323,46.5l-6.136,1a1.939,1.939,0,0,1-2.2-1.434L46.821,33.828l-.21-.816H59.136l.811,11.424A1.94,1.94,0,0,1,58.323,46.5" transform="translate(52.14 36.929)" fill="#fff"/>
        <path id="Trazado_831982" data-name="Trazado 831982" d="M60.17,46.388l-.811-11.422-.085-1.184L59.1,31.265,46.412,33.337l.422,1.629.212.816,3.165,12.237a1.935,1.935,0,0,0,2.2,1.432l6.133-1a1.937,1.937,0,0,0,1.627-2.061m-1.7,1.593-6.133,1A1.467,1.467,0,0,1,50.67,47.9L47.516,35.706l-.193-.739L47,33.723l11.655-1.9L58.8,33.86l.078,1.106L59.7,46.424a1.465,1.465,0,0,1-1.231,1.557" transform="translate(51.918 34.975)" fill="#4680d2"/>
        <path id="Trazado_831983" data-name="Trazado 831983" d="M53.78,32.773a1.837,1.837,0,0,0-.676-.261.828.828,0,0,0-.453.051.918.918,0,0,0-.54,1.017,2.961,2.961,0,0,0,.119.792,3.141,3.141,0,0,0,.2.5.927.927,0,0,0-.712.547,1.206,1.206,0,0,0,.074.956,3.61,3.61,0,0,0,.574.794l.769.877a.883.883,0,0,0-1.229.517,1.311,1.311,0,0,0,.119.85,5.364,5.364,0,0,0,1.485,1.729,1.045,1.045,0,0,0-.689.21c-.294.284-.157.786.083,1.121a2.505,2.505,0,0,0,1.311.928.818.818,0,0,0,.712-.049.741.741,0,0,0,.25-.4,1.752,1.752,0,0,0-.282-1.551.38.38,0,0,0,.352-.225.922.922,0,0,0,.078-.43,3.664,3.664,0,0,0-.754-2.2.949.949,0,0,0,.5-.968,3.965,3.965,0,0,0-.578-1.691.606.606,0,0,0,.544-.417,1.479,1.479,0,0,0,.042-.72,2.574,2.574,0,0,0-1.3-1.977" transform="translate(57.773 36.358)" fill="#ffa87d"/>
        <path id="Trazado_831984" data-name="Trazado 831984" d="M48.917,34.786a1.133,1.133,0,0,0-.2-.265c-.589-.574-1.222.047-1.57.549-.578.839-1.049,3.163.559,3.21,1.294.036,1.566-2.057,1.381-2.985a1.851,1.851,0,0,0-.174-.508" transform="translate(52.139 38.36)" fill="#ffa87d"/>
        <path id="Trazado_831985" data-name="Trazado 831985" d="M53.939,34.609A2.825,2.825,0,0,0,52.257,33.6a.256.256,0,0,0-.216.064c-.044.057.019.1.074.1a2.59,2.59,0,0,1,1.519.932.214.214,0,0,0,.208.03c.032-.011.148-.068.1-.119" transform="translate(58.198 37.584)" fill="#e26e61"/>
        <path id="Trazado_831986" data-name="Trazado 831986" d="M53.607,35.633a3.047,3.047,0,0,0-.936-.517.261.261,0,0,0-.227.034c-.055.038-.049.093.017.117a2.856,2.856,0,0,1,.879.492.2.2,0,0,0,.1.023.281.281,0,0,0,.123-.028c.051-.025.1-.074.04-.121" transform="translate(58.623 39.269)" fill="#e26e61"/>
        <path id="Trazado_831987" data-name="Trazado 831987" d="M53.734,36.936a2.738,2.738,0,0,0-.932-.379.244.244,0,0,0-.216.061c-.049.061.025.1.074.1l.028.006.008,0,.053.013.112.032c.074.023.146.049.216.078a2.3,2.3,0,0,1,.39.208.258.258,0,0,0,.227,0c.044-.023.1-.078.04-.121" transform="translate(58.806 40.889)" fill="#e26e61"/>
        <path id="Trazado_831988" data-name="Trazado 831988" d="M49.977,58.185c-2.123-2.888-1.123-6.678-.515-9.883a20.236,20.236,0,0,0,.386-3.212c0-.157-.441-.161-.443,0-.081,3.587-1.752,7.106-.941,10.71a6.514,6.514,0,0,0,1.083,2.445c.093.125.521.064.43-.059" transform="translate(53.965 50.306)" fill="#e87862"/>
        <path id="Trazado_831989" data-name="Trazado 831989" d="M54.589,51.274c-.131.053-.375.047-.443-.051q-1.1-1.608-2.284-3.159a74.443,74.443,0,0,0-8.911-9.733q-.273-.254-.553-.5c-.18-.163.333-.252.46-.14q1.478,1.328,2.89,2.733,1.112,1.112,2.176,2.267a74.9,74.9,0,0,1,6.136,7.6l.106.15c.167.235.331.472.5.712.036.055,0,.1-.072.125" transform="translate(47.385 42.105)" fill="#fff"/>
        <path id="Trazado_831990" data-name="Trazado 831990" d="M62.853,86.16c-.695.023-1.4,0-2.057.074l-4.161.451c-9.263,1.008-18.627,2.015-27.868.835-1.669-.214-3.54-.633-4.407-2.078a5.9,5.9,0,0,1-.6-2.811q-.311-6.991-.4-13.991c-.055-4.28-.341-8.472-.093-12.729A37.924,37.924,0,0,1,24.5,47.024c1.593-5.235,5.536-7.994,10.307-10.182a13.951,13.951,0,0,1,7.049-1.669,41.954,41.954,0,0,1,6.381.65,21.324,21.324,0,0,1,11.112,6.15c3.2,3.472,4.517,7.705,6.434,11.873,2.023,4.4,1.761,9.8,1.294,14.494-.239,2.4-.725,4.788-.811,7.2q-.149,4.061-.292,8.123a3.121,3.121,0,0,1-.237,1.305,2.082,2.082,0,0,1-1.318.987,6.476,6.476,0,0,1-1.564.208" transform="translate(25.92 39.317)" fill="#fff"/>
        <path id="Trazado_831991" data-name="Trazado 831991" d="M59.834,59.21c-1.574.54-1.6-1.032-1.216-2.121a13.665,13.665,0,0,0,1.03-4.534,29.389,29.389,0,0,0-.879-7.714,6.446,6.446,0,0,0-3.1-4.309,12.869,12.869,0,0,0-5.413-1.945,30.748,30.748,0,0,0-3.975-.375c-1.205,0-1.818-.659-2.939-1.064-2.216-.8-2.316,1.729-1.947,3.214a15.2,15.2,0,0,0,3.523,5.979,58.48,58.48,0,0,0,7.907,7.642A19.452,19.452,0,0,1,55.9,56.756a2.15,2.15,0,0,1,.536,1.053c.174,1.428-1.922,2.5-3.091,2.138a15.281,15.281,0,0,1-3.936-2.078c-2.784-1.862-5.5-3.833-8.186-5.83a22.9,22.9,0,0,0-3.333-2.108c-1.25-.636-2.235-1.549-3.657-1.843a9.118,9.118,0,0,0-6.256,1.142c-1.763.953-1.939,2.928-2.059,4.809q-.833,12.852-.453,25.743A42.793,42.793,0,0,1,25.5,84.5c-.1,1.2-.133,3.269-.972,4.21a1.223,1.223,0,0,1-1.748.163,1.762,1.762,0,0,1-.314-1.061,178.138,178.138,0,0,1-.057-25.029c.458-6.725,1.218-16.085,6.508-21a21.339,21.339,0,0,1,3.305-2.369,52.822,52.822,0,0,1,8.909-4.2,12.156,12.156,0,0,1,7.424-.566c3.449.568,6.97,1.161,10.044,2.824,1.383.746,2.875,1.439,4.195,2.3a5.961,5.961,0,0,1,2.693,4.892,17.764,17.764,0,0,1-1.121,8.3c-.841,2.167-2.148,5.434-4.53,6.252" transform="translate(24.604 38.399)" fill="#00be9c"/>
        <path id="Trazado_831992" data-name="Trazado 831992" d="M46.721,40.467c.316-.3.6-.672.913-.964a5.85,5.85,0,0,1,1.148-.7,18.838,18.838,0,0,0,2.559-1.612,5.6,5.6,0,0,0,2.278-3.64,5.313,5.313,0,0,0-.04-1.284,9.747,9.747,0,0,0-3.574-6.032A13.3,13.3,0,0,0,38.4,23.876a11.722,11.722,0,0,0-8.282,7.985,18.81,18.81,0,0,0-.208,7.422,3.82,3.82,0,0,0,.663,2.208,11.365,11.365,0,0,0,1.9,1.773c1.672,1.339,3.913,4.1,6.3,3.625,1.856-.367,3.218-1.9,4.557-3.235,1.1-1.093,2.265-2.114,3.383-3.186" transform="translate(33.16 26.208)" fill="#fff"/>
        <path id="Trazado_831993" data-name="Trazado 831993" d="M46.493,44.132a3.786,3.786,0,0,0,.091.621c.15.657.46,1.267.644,1.917.638,2.248-.33,5.064-2.735,5.737a3.852,3.852,0,0,1-1.078.136,6.764,6.764,0,0,1-3.328-.979,14.7,14.7,0,0,1-2.752-2.159,25.381,25.381,0,0,1-4.754-5.934A17.913,17.913,0,0,1,31.556,41.3a2.694,2.694,0,0,1-.25-1.284c.123-.956,1.11-1.479,1.653-2.176a24.5,24.5,0,0,0,1.9-2.689c.744-1.282,1.415-3.121,3.22-3.064a3.588,3.588,0,0,1,1.273.369q2.2.944,4.394,1.886a12.444,12.444,0,0,1,3.629,2.072,6.118,6.118,0,0,1,.441.456c.061.07.121.14.178.214.79,1,.725,1.78,0,2.939a7.176,7.176,0,0,0-1.5,4.106" transform="translate(35.007 35.898)" fill="#ffa87d"/>
        <path id="Trazado_831994" data-name="Trazado 831994" d="M44.168,38.034a12.27,12.27,0,0,0-1.2,2.364,8.514,8.514,0,0,1-1.324-.305,14.163,14.163,0,0,1-6.225-3.716l-.064-.066a1.818,1.818,0,0,1-.636-1.39,1.156,1.156,0,0,1,.695-.854,5.459,5.459,0,0,1,1.943-.195,21.52,21.52,0,0,1,6.631,1.008c.061.07.121.14.178.216.79,1,.725,1.78,0,2.936" transform="translate(38.831 37.89)" fill="#e26e61"/>
        <path id="Trazado_831995" data-name="Trazado 831995" d="M47.437,48.586c-.379.068-.771.091-1.193.131a13.755,13.755,0,0,1-4.953.011,15.592,15.592,0,0,1-3.642-1.547A9.791,9.791,0,0,1,32.8,41.1a43.577,43.577,0,0,1-1.011-7.792A7.451,7.451,0,0,1,33.9,27.548a10.844,10.844,0,0,1,7.841-3.025c.678.017,1.35.1,2.021.174a6.4,6.4,0,0,1,4.311,1.843,6.51,6.51,0,0,1,1.142,1.818,27.438,27.438,0,0,1,1.337,5.288,29.683,29.683,0,0,1,.911,9.5,7.657,7.657,0,0,1-1.305,3.608,5.208,5.208,0,0,1-1.644,1.455,3.317,3.317,0,0,1-1.076.375" transform="translate(35.552 27.429)" fill="#ffa87d"/>
        <path id="Trazado_831996" data-name="Trazado 831996" d="M47.573,30.334c.477-.025.953-.032,1.432-.011a6.987,6.987,0,0,1,1.758.182c.419.131,1.237.466.881-.39a9.138,9.138,0,0,0-.856-1.663,8.826,8.826,0,0,0-2.682-2.386,10.575,10.575,0,0,0-2.761-1.506,11.566,11.566,0,0,0-7.1.544c-2.678,1-4.343,3.114-5.659,5.589a12.732,12.732,0,0,0-1.517,4.3,12.813,12.813,0,0,0,.167,3.75,10.485,10.485,0,0,0,.985,3.22c.362.631.983.811,1.4,1.32a1.543,1.543,0,0,0,1.03-.936,5.034,5.034,0,0,0,.3-1.409,20.6,20.6,0,0,1,.97-4.439c.237-.669.523-1.322.765-1.992a11.954,11.954,0,0,0,.678-6.131,3.715,3.715,0,0,0,2.466,1.858,9.151,9.151,0,0,0,2.362.642,10.042,10.042,0,0,0,2.462-.2,28.05,28.05,0,0,1,2.915-.345" transform="translate(34.672 27.096)" fill="#fff"/>
        <path id="Trazado_831997" data-name="Trazado 831997" d="M33.175,30.692c-2.1.367-1.9,3.057-1.015,4.466a4.593,4.593,0,0,0,3.008,2.008c.564.108,1.278.038,1.519-.481a2.553,2.553,0,0,0-.176-1.617c-.176-.572-.356-1.161-.57-1.722-.43-1.138-1.265-2.917-2.767-2.655" transform="translate(35.268 34.304)" fill="#ffa87d"/>
        <path id="Trazado_831998" data-name="Trazado 831998" d="M36.347,36.053a3.8,3.8,0,0,1,.445-1.818,5.663,5.663,0,0,1,1.388-1.557.282.282,0,0,1,.231-.059c.064.017.083.07.03.117a5.552,5.552,0,0,0-1.324,1.472,3.629,3.629,0,0,0-.445,1.761c0,.127-.324.189-.324.085" transform="translate(40.659 36.483)" fill="#e87862"/>
        <path id="Trazado_831999" data-name="Trazado 831999" d="M36.92,29.724a9.3,9.3,0,0,0-1.521.871c-.144.1-1.059.742-.534.784a.66.66,0,0,0,.275-.055c.862-.311,1.684-.739,2.561-1a7.8,7.8,0,0,0,1.7-.553c.288-.163.354-.328.193-.568-.206-.3-.648-.212-.992-.133a6.242,6.242,0,0,0-1,.347c-.237.1-.468.2-.689.3" transform="translate(38.821 32.437)" fill="#fff"/>
        <path id="Trazado_832000" data-name="Trazado 832000" d="M40.843,28.28a4.054,4.054,0,0,1,.987.182c.093.032.282.172.15.29a.218.218,0,0,1-.1.042c-.449.1-.911.191-1.347.339-.22.074-.447.138-.672.193s-.449.028-.653.083c-.258-.013-.369-.129-.358-.415.013-.309.343-.449.566-.523a3.8,3.8,0,0,1,1.428-.191" transform="translate(43.457 31.629)" fill="#fff"/>
        <path id="Trazado_832001" data-name="Trazado 832001" d="M39.549,30.072a.955.955,0,0,1,.47-1,.6.6,0,0,1,.6.051.515.515,0,0,1,.117.119,1.153,1.153,0,0,1,.089.087.988.988,0,0,1,.233.735.731.731,0,0,1-.169.606.66.66,0,0,1-.633.222.592.592,0,0,1-.155-.068.692.692,0,0,1-.375-.216.865.865,0,0,1-.172-.534" transform="translate(44.239 32.458)" fill="#101729"/>
        <path id="Trazado_832002" data-name="Trazado 832002" d="M36.035,30.966a.957.957,0,0,1,.468-1,.605.605,0,0,1,.6.051.516.516,0,0,1,.117.119,1.153,1.153,0,0,1,.089.087.988.988,0,0,1,.233.735.738.738,0,0,1-.169.606.66.66,0,0,1-.633.222.592.592,0,0,1-.155-.068.7.7,0,0,1-.375-.218.854.854,0,0,1-.172-.532" transform="translate(40.308 33.458)" fill="#101729"/>
        <path id="Trazado_832003" data-name="Trazado 832003" d="M40.133,32.005a4.191,4.191,0,0,1,1.354,2.924c.021.121-.305.2-.324.085a4.109,4.109,0,0,0-1.288-2.852c-.127-.093.172-.22.258-.157" transform="translate(44.57 35.783)" fill="#e87862"/>
        <path id="Trazado_832004" data-name="Trazado 832004" d="M34.889,32.128a2.9,2.9,0,0,1,1.5-.818c.051-.008.163-.028.182.042s-.1.114-.14.123a2.471,2.471,0,0,0-1.288.71.262.262,0,0,1-.229.059c-.07-.017-.076-.068-.03-.117" transform="translate(38.994 35.016)" fill="#e87862"/>
        <path id="Trazado_832005" data-name="Trazado 832005" d="M35.547,31.768a1.7,1.7,0,0,1,.447-.314.294.294,0,0,1,.127-.023.126.126,0,0,1,.087.028c.047.064-.042.112-.087.133.049-.023.013-.006,0,0L36.1,31.6l-.053.03c-.028.017-.055.036-.083.055l-.006.006-.023.017-.042.034c-.03.025-.059.053-.087.081a.226.226,0,0,1-.108.053.233.233,0,0,1-.121.006c-.023-.006-.057-.017-.061-.047a.085.085,0,0,1,.032-.072" transform="translate(39.727 35.16)" fill="#e87862"/>
        <path id="Trazado_832006" data-name="Trazado 832006" d="M40.181,30.234a.127.127,0,0,1,.059-.07,1.87,1.87,0,0,1,.6-.212.19.19,0,0,1,.108.015.057.057,0,0,1,.034.059c-.021.068-.11.093-.174.106,0,0,0,0,0,0l-.034.006-.055.013-.061.017-.021.008c-.034.013-.07.028-.1.042l-.023.013h0l-.057.032a.323.323,0,0,1-.123.04.18.18,0,0,1-.106-.013c-.021-.013-.042-.032-.032-.059" transform="translate(44.945 33.504)" fill="#e87862"/>
        <path id="Trazado_832007" data-name="Trazado 832007" d="M42.344,33.2c.078-.273.078-.557-.148-.665-.165-.081-.485.068-.65.1l-3.606.782a.617.617,0,0,0-.341.153c-.381.436,1.019.949,1.278,1.021a3.425,3.425,0,0,0,1.964-.023,2.593,2.593,0,0,0,1.231-.807,1.786,1.786,0,0,0,.273-.564" transform="translate(41.986 36.371)" fill="#fff"/>
        <path id="Trazado_832008" data-name="Trazado 832008" d="M39.166,34.611a2.805,2.805,0,0,0,1.256-.638.655.655,0,0,0,.244-.309c.032-.148-.074-.284-.15-.4-.148-.231-.3-.46-.447-.691q-.9-1.4-1.8-2.8c-.1-.153.354-.273.441-.138l2.1,3.261c.131.2.39.483.328.748-.049.22-.29.4-.458.532a3.509,3.509,0,0,1-1.472.678c-.07.015-.239.015-.254-.081s.148-.144.214-.159" transform="translate(42.791 33.082)" fill="#e26e61"/>
        <path id="Trazado_832009" data-name="Trazado 832009" d="M32.392,33.806c2.021-1.716,2.186-4.591,1.663-7.011-.028-.133.36-.206.392-.066.538,2.5.322,5.4-1.756,7.172-.1.083-.47.051-.3-.1" transform="translate(36.184 29.817)" fill="#f9e4d7"/>
        <path id="Trazado_832010" data-name="Trazado 832010" d="M31.8,31.53a9.239,9.239,0,0,0,1.32-3.316c.023-.127.415-.165.386-.011a9.33,9.33,0,0,1-1.352,3.369c-.068.108-.453.112-.354-.042" transform="translate(35.558 31.437)" fill="#f9e4d7"/>
        <path id="Trazado_832011" data-name="Trazado 832011" d="M30.121,28.593c.038-.129.428-.157.386-.011a7.506,7.506,0,0,0,.057,4.39c.038.125-.345.206-.392.066a7.62,7.62,0,0,1-.051-4.445" transform="translate(33.351 31.863)" fill="#f9e4d7"/>
        <path id="Trazado_832012" data-name="Trazado 832012" d="M34.573,25.626c1.763,1.324,4.021,1.5,6.142,1.646.072,0,.136.053.093.123s-.182.087-.258.083c-2.174-.153-4.5-.339-6.3-1.695-.146-.11.218-.233.32-.157" transform="translate(38.278 28.64)" fill="#f9e4d7"/>
        <path id="Trazado_832013" data-name="Trazado 832013" d="M35.976,25.338a7.1,7.1,0,0,0,2.879.551c.059,0,.176.017.157.1s-.165.106-.229.108a7.608,7.608,0,0,1-3.059-.57c-.208-.087.131-.239.252-.191" transform="translate(39.888 28.334)" fill="#f9e4d7"/>
        <path id="Trazado_832014" data-name="Trazado 832014" d="M36.566,23.883a.327.327,0,0,1,.275-.047,9.872,9.872,0,0,1,2.576.985c.081.044,0,.121-.047.148a.31.31,0,0,1-.273.008,9.675,9.675,0,0,0-2.508-.956c-.083-.017-.078-.093-.023-.14" transform="translate(40.859 26.653)" fill="#f9e4d7"/>
        <path id="Trazado_832015" data-name="Trazado 832015" d="M26.065,48.308a8.927,8.927,0,0,0-.786,1.146c-1.5,2.608-.568,5.65-.206,8.489a56.719,56.719,0,0,0,4.515,16.489c1.419,3.106,3.712,5.544,7.333,5.7a7.192,7.192,0,0,0,2.15-.208,6.1,6.1,0,0,0,4.148-4.172,10.343,10.343,0,0,0,.093-4.381c-.068-.47-.15-.939-.231-1.4-.593-3.337-1.051-6.722-1.72-10.03q-.267-1.325-.536-2.648c-.258-1.292-.674-2.583-1.057-3.847-.167-.557-.337-1.117-.5-1.674A6.768,6.768,0,0,0,37.1,48.2a11.024,11.024,0,0,0-4.68-2.138,7.012,7.012,0,0,0-3.14.032,6.349,6.349,0,0,0-3.212,2.216" transform="translate(27.352 51.344)" fill="#ffa87d"/>
        <path id="Trazado_832016" data-name="Trazado 832016" d="M23.7,52.585c-.042,1.873.023,3.737.1,5.5.106,2.343.309,4.682.53,7.019a1.017,1.017,0,0,0,.131.483,1,1,0,0,0,.847.292,86.149,86.149,0,0,0,9.722-.5c1.619-.163,3.233-.352,4.845-.547.888-.106,2.593.125,2.424-1.227A99.085,99.085,0,0,0,38.949,49a16.112,16.112,0,0,0-1.612-4.265,7.69,7.69,0,0,0-2.809-2.492,9.912,9.912,0,0,0-4.341-1.379,5.609,5.609,0,0,0-4.21,1.487c-1.159,1.157-1.445,3.078-1.742,4.636a33.926,33.926,0,0,0-.534,5.6" transform="translate(26.498 45.708)" fill="#fff"/>
        <path id="Trazado_832017" data-name="Trazado 832017" d="M53.716,64.831a10.911,10.911,0,0,1,1.871,2.316,1.539,1.539,0,0,1,.28.771.6.6,0,0,1-.46.608A3.357,3.357,0,0,1,55.9,70.64a.666.666,0,0,1-.131.386.642.642,0,0,1-.3.165A1.885,1.885,0,0,1,54,71.011a.906.906,0,0,1-.256,1.03c-.735.593-1.7-.311-2.233-.763.169,1.263-1.544.841-2.1.373a17.309,17.309,0,0,0-2-1.835,14.138,14.138,0,0,0-2.661-1.176c-2.278-.839-4.822-2.43-4.4-5.275.343-2.3,3.044-3.114,5.021-2.786a16.259,16.259,0,0,1,8.347,4.252" transform="translate(45.082 67.688)" fill="#ffa87d"/>
        <path id="Trazado_832018" data-name="Trazado 832018" d="M50.644,61.343l-.729-.237c-1.909-.621-3.818-1.239-5.752-1.778-2.254-.629-4.538-1.144-6.839-1.574-2.28-.426-4.68-.763-6.881-.03A3.992,3.992,0,0,0,27.525,61a5.685,5.685,0,0,0,1.623,4.875c1.549,1.415,3.731,1.852,5.805,2.163a201.761,201.761,0,0,0,20.133,1.676c1.568.076,3.629.375,5.138-.178,1.254-.462,1.557-2.163,1.114-3.366-.771-2.106-3.6-2.519-5.46-3.125l-5.235-1.7" transform="translate(30.707 64.091)" fill="#ffa87d"/>
        <path id="Trazado_832019" data-name="Trazado 832019" d="M44.891,62.153a.313.313,0,0,1,.271.011A14.408,14.408,0,0,1,50.38,66.75c.074.106-.3.148-.373.038a14.141,14.141,0,0,0-5.121-4.5c-.076-.04-.057-.1,0-.14" transform="translate(50.155 69.497)" fill="#e26e61"/>
        <path id="Trazado_832020" data-name="Trazado 832020" d="M44.425,63.088a.313.313,0,0,1,.271.011,15.365,15.365,0,0,1,4.83,4.78c.076.1-.292.146-.373.038a15.08,15.08,0,0,0-4.733-4.689c-.074-.04-.057-.1,0-.14" transform="translate(49.636 70.543)" fill="#e26e61"/>
        <path id="Trazado_832021" data-name="Trazado 832021" d="M43.67,63.874a.313.313,0,0,1,.271.011A10.589,10.589,0,0,1,47.9,67.461c.074.11-.3.15-.373.038a10.377,10.377,0,0,0-3.866-3.487c-.076-.038-.057-.1,0-.138" transform="translate(48.789 71.422)" fill="#e26e61"/>
        <path id="Trazado_832022" data-name="Trazado 832022" d="M40.749,62.5a.245.245,0,0,1,.239-.059c.042.008.18.053.129.125a1.177,1.177,0,0,0-.218.674c0,.032-.034.055-.057.068a.31.31,0,0,1-.138.023.306.306,0,0,1-.136-.034c-.025-.017-.055-.038-.053-.072a1.287,1.287,0,0,1,.233-.725" transform="translate(45.322 69.844)" fill="#e26e61"/>
        <path id="Trazado_832023" data-name="Trazado 832023" d="M36.49,57.686a15.418,15.418,0,0,0-3.364.174,8.954,8.954,0,0,0-1.506.358,11.982,11.982,0,0,0-1.485.672c-.222.112.178.237.307.169a12.266,12.266,0,0,1,1.379-.631,8.073,8.073,0,0,1,1.5-.358,14.775,14.775,0,0,1,3.163-.157c.267.015.275-.212.008-.227" transform="translate(33.635 64.502)" fill="#e26e61"/>
        <path id="Trazado_832024" data-name="Trazado 832024" d="M37.753,49.076c-1.818,5.1-2.017,10.892-2.392,16.2a25.918,25.918,0,0,0,7.72.83,44.272,44.272,0,0,0,.468-4.6c.127-1.852.246-3.708.479-5.551.261-2.034.371-4.085.583-6.125a7.053,7.053,0,0,0-.229-3.5A2.561,2.561,0,0,0,41.416,44.7a4.433,4.433,0,0,0-3.049,2.828c-.225.508-.428,1.025-.614,1.549" transform="translate(39.556 49.937)" fill="#00be9c"/>
        <path id="Trazado_832025" data-name="Trazado 832025" d="M42.184,46.7a28.962,28.962,0,0,1,4.767,10.284q-2.549,1.913-5.208,3.6-1.783-5.368-3.237-10.877a8.165,8.165,0,0,1-.392-2.919c.108-.964.784-2.11,1.619-2.114.913-.006,1.864,1.242,2.451,2.032" transform="translate(42.608 49.973)" fill="#00be9c"/>
        <path id="Trazado_832026" data-name="Trazado 832026" d="M44.249,44.982a22.089,22.089,0,0,0-1.328-2.625c-.093-.157-.614-.1-.515.074a21.954,21.954,0,0,1,3.023,9.79,21.619,21.619,0,0,1-.011,2.941c-.013.182.517.195.532,0a22.173,22.173,0,0,0-1.7-10.18" transform="translate(47.422 47.281)" fill="#d9e8ff"/>
        <path id="Trazado_832027" data-name="Trazado 832027" d="M40.347,47.708a12.91,12.91,0,0,0-.32-2.627c-.044-.195-.57-.163-.532,0a16.272,16.272,0,0,1,.278,4.657c-.091,1.614-.231,3.227-.352,4.839q-.1,1.373-.206,2.748c-.013.182.519.195.534,0q.181-2.422.36-4.841a47.352,47.352,0,0,0,.237-4.775" transform="translate(43.868 50.279)" fill="#017f67"/>
        <path id="Trazado_832028" data-name="Trazado 832028" d="M39.631,44.754a.4.4,0,0,0-.364-.049,4.368,4.368,0,0,0-1.049.659,5.037,5.037,0,0,0-.858.814,4.1,4.1,0,0,0-.871,2.066c-.023.176.506.195.532,0a3.982,3.982,0,0,1,.784-1.907,4.3,4.3,0,0,1,.773-.758,3.994,3.994,0,0,1,.958-.638c.083-.032.18-.1.1-.186" transform="translate(40.817 49.985)" fill="#017f67"/>
        <path id="Trazado_832029" data-name="Trazado 832029" d="M35.717,44.07a33.1,33.1,0,0,1-2.941-2.828,14.643,14.643,0,0,1-2.4-3.153A4.105,4.105,0,0,1,29.891,36c.011-.182-.521-.193-.532,0a5.422,5.422,0,0,0,1.362,3.5A29.162,29.162,0,0,0,33.5,42.6q.852.836,1.761,1.608a.409.409,0,0,0,.364.049c.076-.025.191-.106.1-.186" transform="translate(32.835 40.114)" fill="#017f67"/>
        <path id="Trazado_832030" data-name="Trazado 832030" d="M39.578,36.791c-.11-.146-.623-.074-.513.072,1.871,2.492,1.83,5.733,1.763,8.7,0,.186.528.191.532,0,.07-2.987.1-6.265-1.782-8.773" transform="translate(43.682 41.067)" fill="#017f67"/>
        <path id="Trazado_832031" data-name="Trazado 832031" d="M24.19,49c0-.186-.528-.191-.532,0a36.29,36.29,0,0,0,.665,7.7c.038.195.566.167.532,0A36.29,36.29,0,0,1,24.19,49" transform="translate(26.456 54.661)" fill="#d9e8ff"/>
        <path id="Trazado_832032" data-name="Trazado 832032" d="M31.994,47.042q-.626-2.005-1.275-4.006c-.053-.165-.578-.131-.513.072,1.521,4.722,3.023,9.46,4.112,14.3.307,1.367.583,2.739.816,4.119.034.195.561.172.532,0a110.9,110.9,0,0,0-3.672-14.487" transform="translate(33.783 48.024)" fill="#d9e8ff"/>
        <path id="Trazado_832033" data-name="Trazado 832033" d="M28.405,103.773H26.63V81.767H31.6Z" transform="translate(29.789 91.468)" fill="#ffca60"/>
        <path id="Trazado_832034" data-name="Trazado 832034" d="M15.18,81.766l-.5,3.417L14.6,85.8l-2.61,17.968H10.212V81.766Z" transform="translate(11.423 91.467)" fill="#ffca60"/>
        <path id="Trazado_832035" data-name="Trazado 832035" d="M54.71,72.257A14.444,14.444,0,0,0,40.283,57.829H12.859a4.433,4.433,0,0,0-1.328.206l.07.636a3.706,3.706,0,0,1,1.258-.218h3.748a10.19,10.19,0,0,0-7.82,9.9v42.663a1.26,1.26,0,0,0,1.261,1.261H54.4v-2.119a3.813,3.813,0,0,0,.311-1.451Z" transform="translate(9.829 64.69)" fill="#4680d2"/>
        <path id="Trazado_832036" data-name="Trazado 832036" d="M38.834,57.829H11.41a4.368,4.368,0,0,0-1.328.206l.07.633a3.706,3.706,0,0,1,1.258-.218H38.834A13.824,13.824,0,0,1,52.641,72.257V108.7a6.678,6.678,0,0,1-1.044,3.182,3.869,3.869,0,0,0,1.665-3.182V72.257A14.444,14.444,0,0,0,38.834,57.829" transform="translate(11.278 64.69)" fill="#2b5a89"/>
        <path id="Trazado_832037" data-name="Trazado 832037" d="M49.577,47.534a58.473,58.473,0,0,0-.036-7.561c-.011-.161-.453-.153-.443,0a58.527,58.527,0,0,1,.019,7.854.064.064,0,0,0,.019.053,32.386,32.386,0,0,1-.364,3.477c-.023.144.417.165.443,0a32.125,32.125,0,0,0,.381-3.769.077.077,0,0,0-.019-.053" transform="translate(54.556 44.584)" fill="#e26e61"/>
        <path id="Trazado_832038" data-name="Trazado 832038" d="M54.578,40.132a4.484,4.484,0,0,0-.2-.83,3.914,3.914,0,0,0-.182-.434,1.159,1.159,0,0,1-.108-.21c-.006-.072.034-.1.07-.159a2.2,2.2,0,0,0-.144-2.53c.553-.347.447-1.153.254-1.691a3.355,3.355,0,0,0-1.441-1.731c-.125-.074-.53.03-.316.159a3.13,3.13,0,0,1,1.282,1.508c.189.464.4,1.375-.195,1.65a.08.08,0,0,0-.034.136,2.071,2.071,0,0,1,.057,2.589.059.059,0,0,0,0,.059,4.207,4.207,0,0,1,.515,1.483c.061.415.144,1.034-.167,1.371a.07.07,0,0,0-.023.087,2.254,2.254,0,0,1,.206,1.108c-.042.273-.28.716-.614.672-.049-.006-.3,0-.282.108a7.211,7.211,0,0,1,.023,2.46,3.541,3.541,0,0,0,.059,1.214c.04.2.078.407.117.61.025.138.017.377.14.468a.346.346,0,0,0,.381,0,.1.1,0,0,0,.049-.093c0-.044-.042-.072-.083-.087a2.641,2.641,0,0,1-.044-.288c-.015-.087-.032-.174-.049-.261-.038-.2-.078-.4-.112-.6a3.424,3.424,0,0,1,.011-1.129,6.688,6.688,0,0,0-.028-2.184,1.01,1.01,0,0,0,.769-.542,1.842,1.842,0,0,0-.1-1.475,1.886,1.886,0,0,0,.193-1.436" transform="translate(58.669 36.381)" fill="#e26e61"/>
        <path id="Trazado_832039" data-name="Trazado 832039" d="M67.117,42.728a4.843,4.843,0,0,0,.445,3,4.584,4.584,0,0,0,1.778,1.5c2.123,1.18,4.867,1.822,6.913.515,1.75-1.119,2.445-3.288,2.979-5.3a60.943,60.943,0,0,0,1.947-9.8,13.885,13.885,0,0,0-.358-5.564,6.234,6.234,0,0,0-3.589-4.061,5.862,5.862,0,0,0-5.813,1.407c-2.14,1.994-2.756,4.951-2.833,7.756-.1,3.578-1.146,6.991-1.468,10.54" transform="translate(75.026 25.439)" fill="#ffa87d"/>
        <path id="Trazado_832040" data-name="Trazado 832040" d="M73.949,37.819q-6.582,6.505-12.926,13.244a23.02,23.02,0,0,1-2.159,2.106,5.8,5.8,0,0,0-.992.86,8.857,8.857,0,0,0-.733,1.208,2.721,2.721,0,0,0,.311,2.394,2.492,2.492,0,0,0,2.235,1.288,4.952,4.952,0,0,0,1.9-.477c1.826-.733,3.659-1.466,5.409-2.367a62.68,62.68,0,0,0,6.583-4.123l5.085-3.489c3.8-2.606,7.761-5.4,9.737-9.559a8.213,8.213,0,0,0,.9-3.8,4.754,4.754,0,0,0-1.587-3.487c-1.447-1.2-3.65-1.174-5.4-.828a7.151,7.151,0,0,0-2.659,1.606c-.818.655-1.574,1.381-2.326,2.11q-1.7,1.649-3.388,3.318" transform="translate(63.724 34.207)" fill="#ffa87d"/>
        <path id="Trazado_832041" data-name="Trazado 832041" d="M79.375,13.657c-1.674-.676-3.934-1.174-5.676-.432-1.106.472-3.292,1.606-3.786,2.725s-.311,3.1-.424,4.316c-.286,3.106-.5,6.216-.722,9.326-.439,6.246-1.492,12.477-1.78,18.724a82.226,82.226,0,0,0,8.786.947c.771,0,9.3.214,9.277.294,1.377-4.979,1.576-10.2,1.6-15.366.021-4.8-.121-9.7-1.689-14.239a11.045,11.045,0,0,0-2.506-4.36,9.357,9.357,0,0,0-3.08-1.934" transform="translate(74.934 14.382)" fill="#00be9c"/>
        <path id="Trazado_832042" data-name="Trazado 832042" d="M69.457,14.849q-.162,6.051-.623,12.087T67.616,38.978q-.429,3.394-.953,6.775c-.025.172.5.195.534,0q.925-5.984,1.555-12t.96-12.063q.188-3.416.278-6.837c.006-.186-.528-.191-.532,0" transform="translate(74.57 16.453)" fill="#017f67"/>
        <path id="Trazado_832043" data-name="Trazado 832043" d="M77.636,21.52A118.915,118.915,0,0,1,75.9,36.039q-.375,2.047-.822,4.074c-.036.165.489.2.534,0a118.332,118.332,0,0,0,2.248-14.449q.194-2.069.311-4.144c.011-.182-.521-.193-.532,0" transform="translate(83.979 23.917)" fill="#017f67"/>
        <path id="Trazado_832044" data-name="Trazado 832044" d="M68.2,43.44c-.023-.036-.047-.072-.072-.108a4.4,4.4,0,0,0-2.172-1.422,7.18,7.18,0,0,0-2.888-.47,4.241,4.241,0,0,0-2.235.792,8.125,8.125,0,0,1-2.034.956,8.475,8.475,0,0,0-2.144,1.064,3.354,3.354,0,0,1-2.076-1.383,6.642,6.642,0,0,0-.383-.606c-.267-.331-2.059-1.03-1.875-.03a6.709,6.709,0,0,0,.564,1.553,1.791,1.791,0,0,0-1.767-.462c-.46.127-.263.409-.072.672a5.045,5.045,0,0,1,.379.6,6.662,6.662,0,0,0,.7,1.172,6.842,6.842,0,0,0,1.909,1.261A10.536,10.536,0,0,0,56.5,48.347a6.2,6.2,0,0,0,1.108.1c.439.055.807.343,1.25.415a4.17,4.17,0,0,0,1.811-.252l6.494-1.917a2.869,2.869,0,0,0,.765-.309c.886-.58.78-2.148.275-2.945" transform="translate(56.868 46.342)" fill="#ffa87d"/>
        <path id="Trazado_832045" data-name="Trazado 832045" d="M56.509,44.19a.225.225,0,0,0-.019-.085.6.6,0,0,0-.284-.222,3.444,3.444,0,0,1-.47-.229,3.041,3.041,0,0,1-.71-.659c-.2-.242-.388-.5-.589-.742a1.253,1.253,0,0,0-.735-.544.139.139,0,0,0-.059,0,1.21,1.21,0,0,0-.752-.142,1.113,1.113,0,0,0-.458.049.347.347,0,0,0-.186.354,2.578,2.578,0,0,0,.377,1.356,2.574,2.574,0,0,0-1-.254.8.8,0,0,0-.767.267c-.163.275.142.625.269.856a6.112,6.112,0,0,0,1.235,1.824,13.28,13.28,0,0,0,1.826,1.235,8.5,8.5,0,0,0,2.227,1.028c.049.011.148.023.182-.025s0-.078-.047-.091a7.156,7.156,0,0,1-1.742-.763,17.25,17.25,0,0,1-1.661-1.036,5.834,5.834,0,0,1-.733-.574,3.407,3.407,0,0,1-.555-.775q-.248-.442-.492-.888c-.127-.227-.456-.61-.178-.839.244-.2.754-.057,1.019.034a2.3,2.3,0,0,1,.669.371.032.032,0,0,0,0,.038,3.528,3.528,0,0,0,1.525,1.142,3.892,3.892,0,0,0,.939.239c.2.028.79.144.947,0a.236.236,0,0,0,.051-.083,2.192,2.192,0,0,0,.165-.744.525.525,0,0,0,0-.1m-.3.782h-.025a3.3,3.3,0,0,1-2.877-1.146.041.041,0,0,0-.015-.036c-.017-.017-.034-.03-.051-.044l-.04-.051a.111.111,0,0,0-.051-.032,2.569,2.569,0,0,1-.619-1.377,2.022,2.022,0,0,1-.017-.375.234.234,0,0,1,.081-.184.38.38,0,0,1,.182-.021c.138,0,.275,0,.413,0a.377.377,0,0,1,.229.085.051.051,0,0,0,0,.074,5.518,5.518,0,0,1,.663,1,2.73,2.73,0,0,0,.549.907c.462.4,1.133.456,1.561.9a.121.121,0,0,0,.074.032,2.22,2.22,0,0,0-.061.267M54.92,43.69a3.068,3.068,0,0,1-.561-.951,5.647,5.647,0,0,0-.549-.826,1.392,1.392,0,0,1,.242.231c.112.123.216.254.32.383.189.242.371.487.578.714a2.684,2.684,0,0,0,.678.557,3.389,3.389,0,0,0,.367.172c.091.038.273.066.335.144a.2.2,0,0,1,.051.136.14.14,0,0,1-.125.121c-.066.006-.123-.042-.176-.072-.129-.07-.263-.129-.4-.186a2.826,2.826,0,0,1-.763-.422" transform="translate(56.837 46.499)" fill="#e26e61"/>
        <path id="Trazado_832046" data-name="Trazado 832046" d="M61.082,43.162a7.6,7.6,0,0,0-1.763.231c-.6.165-1.2.341-1.8.515s-1.172.343-1.744.557c-.508.189-1.138.489-1.663.18a1.466,1.466,0,0,1-.4-1.669l.025-.087a.13.13,0,0,0,.006-.089.111.111,0,0,0-.08-.055.23.23,0,0,0-.146.011c-.114.057-.106.309-.121.419a3.307,3.307,0,0,0-.032.479,1.376,1.376,0,0,0,.294.873,1.431,1.431,0,0,0,1.4.337,6.655,6.655,0,0,0,.877-.292c.305-.114.617-.216.928-.314.636-.2,1.278-.375,1.917-.557.375-.108.75-.229,1.133-.3a7.909,7.909,0,0,1,1.163-.1c.159-.006.161-.142,0-.136" transform="translate(59.701 47.808)" fill="#e26e61"/>
        <path id="Trazado_832047" data-name="Trazado 832047" d="M58.877,42.215a2.367,2.367,0,0,0-1.466-.742c-.047-.006-.14-.006-.163.047s.055.081.091.085a2.111,2.111,0,0,1,1.307.678c.059.064.314.023.231-.068" transform="translate(64.033 46.391)" fill="#e26e61"/>
        <path id="Trazado_832048" data-name="Trazado 832048" d="M69.935,32.653a2.49,2.49,0,0,0-2.525-.786c-.074.017-.146.085-.081.155a.347.347,0,0,0,.3.04,1.9,1.9,0,0,1,1.875.65.3.3,0,0,0,.273.081c.04-.006.218-.064.155-.14" transform="translate(75.287 35.559)" fill="#e26e61"/>
        <path id="Trazado_832049" data-name="Trazado 832049" d="M42.542,107.45v0l-.174-1.532L39.928,84.424l-.125-1.1L38.161,68.846H5.606L3.962,83.329v0l-.123,1.093v0L1.4,105.916l-.174,1.532v0L0,118.227H43.764ZM.786,117.439l1.273-11.216.174-1.532v0l2.2-19.39.125-1.1L6.212,69.632H37.553L39.207,84.2l.125,1.1,2.2,19.39v0l.174,1.532,1.273,11.216Z" transform="translate(0 77.014)" fill="#101729"/>
        <path id="Trazado_832050" data-name="Trazado 832050" d="M34,107.447l-.837-1.225-8.33-12.2-.436-.638L13.34,77.193l-.439-.638L8.177,69.634l-.538-.788h.871l.54.788,4.29,6.282.436.64L24.831,92.746l.436.638,7.72,11.305v0l.837,1.222Z" transform="translate(8.545 77.014)" fill="#101729"/>
        <path id="Trazado_832051" data-name="Trazado 832051" d="M31.493,76.777l-.6.875-5.521,8.085-.436.638L13.885,102.567l-.436.638-4.5,6.587-.538.788H7.54l.538-.788,4.934-7.225.436-.64L24.5,85.737l.436-.638,5.833-8.542.6-.875Z" transform="translate(8.434 84.661)" fill="#101729"/>
        <path id="Trazado_832052" data-name="Trazado 832052" d="M25.765,110.579h-.873l-.538-.788-4.5-6.587-.436-.64L8.365,86.374l-.436-.638L2.407,77.651l-.6-.873v0l.123-1.093.6.873L8.365,85.1l.436.64,11.055,16.191.436.638,4.934,7.227Z" transform="translate(2.027 84.662)" fill="#101729"/>
        <path id="Trazado_832053" data-name="Trazado 832053" d="M26.937,68.846l-.538.788-4.725,6.922-.436.638L10.183,93.384l-.439.64-8.33,12.2-.837,1.222.174-1.53.837-1.225v0l7.72-11.307.436-.638L20.8,76.555l.436-.638,4.288-6.284.54-.788Z" transform="translate(0.646 77.013)" fill="#101729"/>
        <rect id="Rectángulo_379359" data-name="Rectángulo 379359" width="39.072" height="4.049" transform="translate(2.233 144.306)" fill="#ffca60"/>
        <path id="Trazado_832054" data-name="Trazado 832054" d="M30.593,68a.08.08,0,0,1-.032.019.4.4,0,0,1-.112,0l-23.068.036a.551.551,0,0,1-.523-.574l0-1.794a.551.551,0,0,1,.521-.576l22.9-.036a.864.864,0,0,1,.286,0c.013.006.028,0,.042,0a.725.725,0,0,1-.089.487c-.07.161-.159.322-.2.449a2.015,2.015,0,0,0,.011,1.184,2.184,2.184,0,0,0,.189.46l.021.034c.061.089.157.218.057.307" transform="translate(7.669 72.783)" fill="#ffca60"/>
        <path id="Trazado_832055" data-name="Trazado 832055" d="M23.7,67.429l-10.515.017c-.362,0-.657-.2-.657-.441l0-1.244c0-.244.294-.443.655-.443l10.5-.017a4.614,4.614,0,0,0-.191.449,2.086,2.086,0,0,0,.011,1.184,2.23,2.23,0,0,0,.18.46l.021.034" transform="translate(14.018 73.05)" fill="#fff"/>
        <path id="Trazado_832056" data-name="Trazado 832056" d="M28.4,70.091a.094.094,0,0,1-.032.025.333.333,0,0,1-.112,0l-23.068.036c-.288,0-.523-.324-.523-.722l0-2.254c0-.4.235-.725.521-.725l22.9-.036c.072,0,.218-.04.284,0,.015.008.03,0,.044.006a1.151,1.151,0,0,1-.089.61c-.07.2-.159.4-.2.564a3.161,3.161,0,0,0,.011,1.489,3.061,3.061,0,0,0,.189.576l.021.044c.061.112.157.275.057.386" transform="translate(5.214 74.275)" fill="#00be9c"/>
        <path id="Trazado_832057" data-name="Trazado 832057" d="M21.511,69.37,11,69.387a.612.612,0,0,1-.657-.555l0-1.561a.613.613,0,0,1,.655-.557l10.5-.015c-.068.2-.153.4-.189.564a3.571,3.571,0,0,0,.191,2.066l.021.042" transform="translate(11.563 74.611)" fill="#fff"/>
      </g>
    </g>
  </g>
</svg>
