<svg xmlns="http://www.w3.org/2000/svg" xmlns:xlink="http://www.w3.org/1999/xlink" width="62" height="62" viewBox="0 0 62 62">
  <defs>
    <clipPath id="clip-path">
      <rect id="Rect치ngulo_379355" data-name="Rect치ngulo 379355" width="37.048" height="36.927" fill="#12263f"/>
    </clipPath>
  </defs>
  <g id="Grupo_1080544" data-name="Grupo 1080544" transform="translate(-273 -12906)">
    <g id="Grupo_1014856" data-name="Grupo 1014856" transform="translate(-111.999 10848)">
      <path id="Uni칩n_12" data-name="Uni칩n 12" d="M31,0A31,31,0,1,1,0,31,31,31,0,0,1,31,0Z" transform="translate(384.999 2058)" fill="#cadeb4"/>
    </g>
    <g id="Grupo_1080552" data-name="Grupo 1080552" transform="translate(285.476 12917)">
      <g id="Grupo_1080552-2" data-name="Grupo 1080552" clip-path="url(#clip-path)">
        <path id="Trazado_831905" data-name="Trazado 831905" d="M2.164,29.7c-.433,0-.773.015-1.112,0A.956.956,0,0,1,.03,28.787C0,26.827-.039,24.859.093,22.905c.087-1.29.749-2,2.163-2.951A4.967,4.967,0,0,1,1.9,16.7a3.621,3.621,0,0,1,3.764-2.861,3.558,3.558,0,0,1,3.339,3.519c-.011.863-.141,1.725-.229,2.719a3.857,3.857,0,0,1,1.713,1.9,4.594,4.594,0,0,1,.319,1.444c.038,1.682.017,3.366.014,5.049,0,.862-.372,1.224-1.25,1.233-.278,0-.557,0-.876,0v4.244a2.636,2.636,0,0,0,.325-.124c2.638-1.424,5.272-2.855,7.915-4.27a.8.8,0,0,0,.508-.821c-.029-1.858-.013-3.718-.013-5.642-.324,0-.6,0-.871,0-.885-.011-1.29-.407-1.292-1.28,0-1.763,0-3.526,0-5.29v-.644c-.371,0-.686.009-1,0a1.074,1.074,0,0,1-1.161-1.16c-.008-1.723-.025-3.447.005-5.169a3.783,3.783,0,0,1,1.76-3.114c.144-.1.3-.191.307-.2-.1-.96-.25-1.819-.257-2.679a3.594,3.594,0,0,1,7.187-.025c0,.861-.153,1.722-.248,2.7a3.9,3.9,0,0,1,1.984,2.7,8.5,8.5,0,0,1,.079,1.494c.009,1.362,0,2.725,0,4.088,0,1-.369,1.363-1.379,1.367-.237,0-.474,0-.785,0v2.182q0,1.833,0,3.667c0,.987-.384,1.361-1.389,1.365-.236,0-.472,0-.775,0V26.36c0,.8.019,1.6-.008,2.4a.7.7,0,0,0,.432.743c2.679,1.43,5.346,2.885,8.017,4.331.083.045.175.073.306.126V29.7c-.3,0-.615,0-.926,0-.833-.012-1.21-.385-1.212-1.21,0-1.623.013-3.246,0-4.869A3.853,3.853,0,0,1,28.071,20.2c.1-.066.2-.132.295-.2.014-.01.017-.034-.112-.043-.08-.842-.216-1.683-.228-2.526a3.562,3.562,0,0,1,3.557-3.608,3.6,3.6,0,0,1,3.628,3.5,25.7,25.7,0,0,1-.263,2.744,4.077,4.077,0,0,1,2.091,4.07c-.035.72-.006,1.442-.006,2.164,0,.7,0,1.4,0,2.1-.005.908-.377,1.285-1.269,1.294-.276,0-.552,0-.894,0v.691c0,1.763.006,3.526,0,5.29a1.093,1.093,0,0,1-1.216,1.231c-1.362.009-2.725.024-4.087-.012a2.376,2.376,0,0,1-1-.32q-4.78-2.565-9.541-5.167a.9.9,0,0,0-.983-.008c-3.137,1.719-6.278,3.43-9.438,5.1A3.757,3.757,0,0,1,7.07,36.9c-1.119.057-2.243.018-3.365.018-1.223,0-1.54-.311-1.54-1.513q0-2.525,0-5.049V29.7M19.6,20.892v-.454q0-2.7,0-5.407c0-.945.37-1.316,1.3-1.323.273,0,.546,0,.853,0,0-1.448.041-2.827-.015-4.2a1.7,1.7,0,0,0-1.7-1.559c-1.021-.028-2.043-.03-3.064,0A1.68,1.68,0,0,0,15.3,9.467c-.061,1.393-.017,2.791-.017,4.241.34,0,.635,0,.931,0a1.088,1.088,0,0,1,1.216,1.224c.008.561,0,1.122,0,1.682v4.278ZM8.657,27.535c0-1.349,0-2.609,0-3.87a1.787,1.787,0,0,0-1.871-1.9q-1.352-.024-2.7,0a1.835,1.835,0,0,0-1.913,1.938c-.011,1.122,0,2.244,0,3.366,0,.15.029.3.046.464.352,0,.653-.008.953,0A1.071,1.071,0,0,1,4.327,28.7c.01.5,0,1,0,1.5v4.514H6.474c.007-.152.018-.269.018-.386,0-1.843,0-3.687,0-5.53a1.134,1.134,0,0,1,1.261-1.261c.277,0,.553,0,.9,0m26.2,0c0-1.433.055-2.813-.019-4.186a1.726,1.726,0,0,0-1.757-1.576q-1.471-.045-2.945,0a1.706,1.706,0,0,0-1.724,1.47c-.059,1.413-.016,2.831-.016,4.292h.583c1.238.006,1.566.333,1.567,1.56q0,2.344,0,4.688v.937H32.7v-.613c0-1.783,0-3.566,0-5.349a1.086,1.086,0,0,1,1.219-1.222c.295-.006.59,0,.927,0m-27.93-9.68a1.632,1.632,0,0,0-.963-1.732,1.387,1.387,0,0,0-1.662.439,2.452,2.452,0,0,0-.074,2.387,1.343,1.343,0,0,0,1.562.589,1.94,1.94,0,0,0,.863-.672,3.2,3.2,0,0,0,.275-1.011m23.26-.1c0,.16-.007.32,0,.479a1.428,1.428,0,0,0,2.5.875,2.31,2.31,0,0,0,.027-2.575,1.384,1.384,0,0,0-1.559-.434c-.7.246-.972.7-.971,1.654M19.959,3.959c0-1.325-.862-2.082-1.93-1.7a1.486,1.486,0,0,0-.959,1.5c-.031.8.065,1.515.914,1.9a1.485,1.485,0,0,0,1.975-1.7" transform="translate(0 -0.001)" fill="#12263f"/>
      </g>
    </g>
  </g>
</svg>
