<svg xmlns="http://www.w3.org/2000/svg" xmlns:xlink="http://www.w3.org/1999/xlink" width="62" height="62" viewBox="0 0 62 62">
  <defs>
    <clipPath id="clip-path">
      <rect id="Rect치ngulo_379357" data-name="Rect치ngulo 379357" width="37.064" height="36.523" fill="#12263f"/>
    </clipPath>
  </defs>
  <g id="Grupo_1080557" data-name="Grupo 1080557" transform="translate(-1183 -3115)">
    <g id="Grupo_1080543" data-name="Grupo 1080543" transform="translate(414 -9791)">
      <g id="Grupo_1014857" data-name="Grupo 1014857" transform="translate(384.001 10848)">
        <path id="Uni칩n_12" data-name="Uni칩n 12" d="M31,0A31,31,0,1,1,0,31,31,31,0,0,1,31,0Z" transform="translate(384.999 2058)" fill="#cadeb4"/>
      </g>
    </g>
    <g id="Grupo_1080556" data-name="Grupo 1080556" transform="translate(1195 3126)">
      <g id="Grupo_1080555" data-name="Grupo 1080555" clip-path="url(#clip-path)">
        <path id="Trazado_831907" data-name="Trazado 831907" d="M37.058,21.1l0-1.9a5.757,5.757,0,0,0-.106-1.044,3.231,3.231,0,0,0-1.883-2.435.846.846,0,0,1-.379-.382q-1.325-2.3-2.659-4.6L31.309,9.5q-.264-.456-.527-.913c-.4-.69-.808-1.4-1.222-2.1a3.218,3.218,0,0,0-2.234-1.559,3.089,3.089,0,0,0-2.239.373.33.33,0,0,1-.376.022c-.045-.027-.093-.05-.141-.073s-.08-.038-.118-.06L24,4.934q-.926-.525-1.85-1.053L20.011,2.647Q18.132,1.564,16.249.486A3.083,3.083,0,0,0,14.26.024a3.375,3.375,0,0,0-2.584,1.665q-.542.925-1.075,1.856L9.06,6.216Q7.919,8.195,6.776,10.172c-.891,1.539-1.711,2.948-2.507,4.307-.179.307-.384.6-.541.821a.24.24,0,0,1-.153.089,2.454,2.454,0,0,0-1.238.175A3.328,3.328,0,0,0,.02,18.856C-.006,22.279,0,25.759,0,29.125q0,1.8,0,3.592a4.484,4.484,0,0,0,.038.639,3.744,3.744,0,0,0,.536,1.583,3.476,3.476,0,0,0,3.052,1.575c2.281.006,4.585.007,6.868.007H22.022c3.748,0,7.623,0,11.435,0a3.644,3.644,0,0,0,1.805-.445,3.38,3.38,0,0,0,1.788-3.084c.021-3.963.014-7.993.008-11.891M8.977,14.437l.47-.814,3.919-6.763c.02-.034.037-.072.055-.11.034-.074.069-.15.113-.171a.074.074,0,0,1,.032-.006.6.6,0,0,1,.149.033,1.126,1.126,0,0,0,.128.034,3.386,3.386,0,0,0,3.125-.964c.07-.069.094-.073.173-.027q1.431.834,2.866,1.66l.678.392.112.063L8.86,14.64ZM23.3,6.334l-.307.176c-.22.126-.448.256-.667.392a.164.164,0,0,1-.206,0Q20.412,5.91,18.7,4.924l-1.3-.749a.806.806,0,0,0-.9-.1,1.467,1.467,0,0,0-.359.39,1.884,1.884,0,0,1-.851.678,1.808,1.808,0,0,1-1.636-.1.721.721,0,0,0-1.058.3c-.2.338-.4.686-.6,1.022L10.274,9.36q-1.22,2.107-2.44,4.214-.207.357-.417.713c-.189.322-.378.644-.564.967a.181.181,0,0,1-.2.106c-.222-.006-.446-.007-.666-.007H5.528c-.037,0-.074,0-.115,0l.006-.013c.033-.066.063-.124.1-.181L12.492,3.125l.126-.22c.1-.175.2-.356.312-.529a1.851,1.851,0,0,1,1.89-.884,2.011,2.011,0,0,1,.835.287q3.629,2.094,7.26,4.184l.368.212c.046.026.092.051.145.078-.045.029-.087.056-.129.08M15.782,15.3l6.582-3.782.551-.316c.4-.231.807-.462,1.209-.7.08-.046.112-.042.184.026a3.3,3.3,0,0,0,3.144.924l.016,0c.261-.059.261-.059.4.182l1.014,1.749.919,1.586c.057.1.111.2.169.308l.036.067h-14.3c.024-.016.049-.031.074-.045m17.028.049c-.354,0-.72.006-1.079,0-.028,0-.1-.06-.136-.127q-.544-.923-1.078-1.851l-.748-1.293q-.525-.908-1.052-1.815A.8.8,0,0,0,27.5,9.934a1.832,1.832,0,0,1-1.595.006,1.858,1.858,0,0,1-.848-.755.67.67,0,0,0-1.016-.269Q21.971,10.1,19.9,11.3L17.285,12.8c-1.34.771-2.726,1.567-4.084,2.359a1.363,1.363,0,0,1-.753.193c-.23-.005-.461-.007-.691-.007s-.432,0-.644,0l-.6,0c-.027,0-.052,0-.077,0l.074-.044L20.444,9.6q2.617-1.5,5.232-3.011a1.956,1.956,0,0,1,1.513-.223,2.011,2.011,0,0,1,1.218.962c.652,1.14,1.323,2.294,1.971,3.411l.807,1.391,1.824,3.145.043.077Zm2.749,17.876a1.879,1.879,0,0,1-1.314,1.74,1.414,1.414,0,0,1-.4.046q-6.678,0-13.356,0H15.159c-3.84,0-7.81,0-11.715.008A1.836,1.836,0,0,1,2.1,34.55a1.725,1.725,0,0,1-.593-1.306l0-2.355c0-4.006.008-8.149-.01-12.223a1.842,1.842,0,0,1,.56-1.286,1.834,1.834,0,0,1,1.279-.558h0c9.418.011,19.361.011,30.4,0h0a1.9,1.9,0,0,1,1.82,1.825c-.02,5.17-.013,10.27,0,14.577" transform="translate(0 0.001)" fill="#12263f"/>
        <path id="Trazado_831908" data-name="Trazado 831908" d="M51.171,134.139a.673.673,0,0,0-.576-.553l-.181-.021-.092-.01a1.957,1.957,0,0,1-1.79-1.938.665.665,0,0,0-.589-.676,1.8,1.8,0,0,0-.283-.018H22.951a.707.707,0,0,0-.81.74,1.966,1.966,0,0,1-.944,1.619,2.41,2.41,0,0,1-1.077.3.665.665,0,0,0-.615.573,1.9,1.9,0,0,0-.02.3q0,4.093,0,8.186c0,.073,0,.146,0,.219,0,.192,0,.391.005.587a.715.715,0,0,0,.693.715,2.875,2.875,0,0,1,.807.176,1.925,1.925,0,0,1,1.154,1.75.7.7,0,0,0,.646.7,1.963,1.963,0,0,0,.282.02H47.626a1.848,1.848,0,0,0,.318-.027.7.7,0,0,0,.592-.676A2.13,2.13,0,0,1,48.884,145a1.919,1.919,0,0,1,1.569-.842.719.719,0,0,0,.742-.8q0-4.469,0-8.938a1.743,1.743,0,0,0-.02-.283M49.762,142.8a3.338,3.338,0,0,0-2.435,2.175c-.129.366-.129.366-.526.366H44.312q-10.324,0-20.648,0h0c-.15,0-.2-.033-.236-.16a3.348,3.348,0,0,0-2.4-2.344c-.1-.024-.112-.043-.112-.134,0-2.539,0-5.126,0-7.69,0-.091.019-.115.111-.141a3.329,3.329,0,0,0,2.153-1.718,4.923,4.923,0,0,0,.26-.646l.026-.075c.024-.068.049-.088.093-.088l.033,0a.4.4,0,0,0,.07,0H46.927c.266,0,.267,0,.346.251a3.386,3.386,0,0,0,.987,1.533,3.5,3.5,0,0,0,1.4.743c.085.024.1.047.1.133q0,3.2,0,6.409Z" transform="translate(-16.805 -112.927)" fill="#12263f"/>
        <path id="Trazado_831909" data-name="Trazado 831909" d="M109.184,151.939a4.439,4.439,0,0,0-3.591-1.917h-.008c-.062.005-.127.009-.194.013a3.655,3.655,0,0,0-.493.051,4.261,4.261,0,0,0-2.14,1.078A5.54,5.54,0,0,0,101,156a5.484,5.484,0,0,0,1.1,2.792,4.5,4.5,0,0,0,2.766,1.778,4.12,4.12,0,0,0,.8.08,3.91,3.91,0,0,0,2.332-.779,5.408,5.408,0,0,0,2.253-5.072,5.3,5.3,0,0,0-1.067-2.861m-.587,1.885a4.857,4.857,0,0,1,.232,1.585,4.01,4.01,0,0,1-1.209,2.965,2.762,2.762,0,0,1-2.161.83,2.931,2.931,0,0,1-2.132-1.138,4.239,4.239,0,0,1-.911-3.1,4.137,4.137,0,0,1,.725-2.133,3.038,3.038,0,0,1,2.4-1.393q.071,0,.141,0a2.663,2.663,0,0,1,1.463.47,3.69,3.69,0,0,1,1.455,1.913" transform="translate(-87.084 -129.4)" fill="#12263f"/>
      </g>
    </g>
  </g>
</svg>
